M48
; DRILL file {KiCad 8.0.0} date 2024-03-23T23:06:13+0200
; FORMAT={-:-/ absolute / inch / decimal}
; #@! TF.CreationDate,2024-03-23T23:06:13+02:00
; #@! TF.GenerationSoftware,Kicad,Pcbnew,8.0.0
; #@! TF.FileFunction,Plated,1,2,PTH
FMAT,2
INCH
; #@! TA.AperFunction,Plated,PTH,ViaDrill
T1C0.0197
; #@! TA.AperFunction,Plated,PTH,ComponentDrill
T2C0.0354
; #@! TA.AperFunction,Plated,PTH,ComponentDrill
T3C0.0394
%
G90
G05
T1
X6.1456Y-2.2148
X6.245Y-2.4844
X6.6246Y-1.9471
X6.6462Y-2.0618
X7.1178Y-2.2981
X7.1353Y-2.188
X7.2258Y-1.8228
X7.4459Y-2.4604
X7.5436Y-2.1584
X7.6904Y-1.8108
X7.7801Y-2.1825
X8.1955Y-1.9543
X8.2136Y-2.1341
X8.2536Y-2.2088
X8.955Y-2.4703
T2
X5.9753Y-2.1482
X6.0753Y-2.1482
X6.2317Y-2.148
X6.3317Y-2.148
X7.2616Y-1.6994
X7.2875Y-1.6028
X7.3279Y-1.4538
X7.3537Y-1.3572
X7.5454Y-1.3578
X7.5713Y-1.4544
X7.6116Y-1.6033
X7.6374Y-1.6999
X8.5702Y-2.1488
X8.6702Y-2.1488
X8.8244Y-2.1486
X8.9244Y-2.1486
T3
X6.7996Y-2.5462
X6.7996Y-2.6462
X6.8996Y-2.5462
X6.8996Y-2.6462
X6.9996Y-2.5462
X6.9996Y-2.6462
X7.0996Y-2.5462
X7.0996Y-2.6462
X7.1996Y-2.5462
X7.1996Y-2.6462
X7.2996Y-2.5462
X7.2996Y-2.6462
X7.3996Y-2.5462
X7.3996Y-2.6462
X7.4996Y-2.5462
X7.4996Y-2.6462
X7.5996Y-2.5462
X7.5996Y-2.6462
X7.6996Y-2.5462
X7.6996Y-2.6462
X7.7996Y-2.5462
X7.7996Y-2.6462
X7.8996Y-2.5462
X7.8996Y-2.6462
X7.9996Y-2.5462
X7.9996Y-2.6462
X8.0996Y-2.5462
X8.0996Y-2.6462
M30
