%TF.GenerationSoftware,KiCad,Pcbnew,8.0.0*%
%TF.CreationDate,2024-03-23T23:06:13+02:00*%
%TF.ProjectId,test,74657374-2e6b-4696-9361-645f70636258,rev?*%
%TF.SameCoordinates,Original*%
%TF.FileFunction,Copper,L1,Top*%
%TF.FilePolarity,Positive*%
%FSLAX46Y46*%
G04 Gerber Fmt 4.6, Leading zero omitted, Abs format (unit mm)*
G04 Created by KiCad (PCBNEW 8.0.0) date 2024-03-23 23:06:13*
%MOMM*%
%LPD*%
G01*
G04 APERTURE LIST*
G04 Aperture macros list*
%AMRoundRect*
0 Rectangle with rounded corners*
0 $1 Rounding radius*
0 $2 $3 $4 $5 $6 $7 $8 $9 X,Y pos of 4 corners*
0 Add a 4 corners polygon primitive as box body*
4,1,4,$2,$3,$4,$5,$6,$7,$8,$9,$2,$3,0*
0 Add four circle primitives for the rounded corners*
1,1,$1+$1,$2,$3*
1,1,$1+$1,$4,$5*
1,1,$1+$1,$6,$7*
1,1,$1+$1,$8,$9*
0 Add four rect primitives between the rounded corners*
20,1,$1+$1,$2,$3,$4,$5,0*
20,1,$1+$1,$4,$5,$6,$7,0*
20,1,$1+$1,$6,$7,$8,$9,0*
20,1,$1+$1,$8,$9,$2,$3,0*%
%AMRotRect*
0 Rectangle, with rotation*
0 The origin of the aperture is its center*
0 $1 length*
0 $2 width*
0 $3 Rotation angle, in degrees counterclockwise*
0 Add horizontal line*
21,1,$1,$2,0,0,$3*%
%AMFreePoly0*
4,1,19,0.500000,-0.750000,0.000000,-0.750000,0.000000,-0.744911,-0.071157,-0.744911,-0.207708,-0.704816,-0.327430,-0.627875,-0.420627,-0.520320,-0.479746,-0.390866,-0.500000,-0.250000,-0.500000,0.250000,-0.479746,0.390866,-0.420627,0.520320,-0.327430,0.627875,-0.207708,0.704816,-0.071157,0.744911,0.000000,0.744911,0.000000,0.750000,0.500000,0.750000,0.500000,-0.750000,0.500000,-0.750000,
$1*%
%AMFreePoly1*
4,1,19,0.000000,0.744911,0.071157,0.744911,0.207708,0.704816,0.327430,0.627875,0.420627,0.520320,0.479746,0.390866,0.500000,0.250000,0.500000,-0.250000,0.479746,-0.390866,0.420627,-0.520320,0.327430,-0.627875,0.207708,-0.704816,0.071157,-0.744911,0.000000,-0.744911,0.000000,-0.750000,-0.500000,-0.750000,-0.500000,0.750000,0.000000,0.750000,0.000000,0.744911,0.000000,0.744911,
$1*%
%AMFreePoly2*
4,1,6,1.000000,0.000000,0.500000,-0.750000,-0.500000,-0.750000,-0.500000,0.750000,0.500000,0.750000,1.000000,0.000000,1.000000,0.000000,$1*%
%AMFreePoly3*
4,1,7,0.700000,0.000000,1.200000,-0.750000,-1.200000,-0.750000,-0.700000,0.000000,-1.200000,0.750000,1.200000,0.750000,0.700000,0.000000,0.700000,0.000000,$1*%
G04 Aperture macros list end*
%TA.AperFunction,SMDPad,CuDef*%
%ADD10FreePoly0,90.000000*%
%TD*%
%TA.AperFunction,SMDPad,CuDef*%
%ADD11FreePoly1,90.000000*%
%TD*%
%TA.AperFunction,SMDPad,CuDef*%
%ADD12FreePoly2,180.000000*%
%TD*%
%TA.AperFunction,SMDPad,CuDef*%
%ADD13FreePoly3,180.000000*%
%TD*%
%TA.AperFunction,SMDPad,CuDef*%
%ADD14FreePoly2,0.000000*%
%TD*%
%TA.AperFunction,SMDPad,CuDef*%
%ADD15RoundRect,0.250000X0.450000X-0.262500X0.450000X0.262500X-0.450000X0.262500X-0.450000X-0.262500X0*%
%TD*%
%TA.AperFunction,SMDPad,CuDef*%
%ADD16RoundRect,0.250000X-0.450000X0.262500X-0.450000X-0.262500X0.450000X-0.262500X0.450000X0.262500X0*%
%TD*%
%TA.AperFunction,SMDPad,CuDef*%
%ADD17RoundRect,0.250000X-0.262500X-0.450000X0.262500X-0.450000X0.262500X0.450000X-0.262500X0.450000X0*%
%TD*%
%TA.AperFunction,SMDPad,CuDef*%
%ADD18R,1.410000X1.350000*%
%TD*%
%TA.AperFunction,SMDPad,CuDef*%
%ADD19R,2.000000X2.000000*%
%TD*%
%TA.AperFunction,ComponentPad*%
%ADD20R,1.800000X1.800000*%
%TD*%
%TA.AperFunction,ComponentPad*%
%ADD21C,1.800000*%
%TD*%
%TA.AperFunction,ComponentPad*%
%ADD22RotRect,1.800000X1.800000X105.000000*%
%TD*%
%TA.AperFunction,SMDPad,CuDef*%
%ADD23FreePoly0,270.000000*%
%TD*%
%TA.AperFunction,SMDPad,CuDef*%
%ADD24FreePoly1,270.000000*%
%TD*%
%TA.AperFunction,SMDPad,CuDef*%
%ADD25R,0.600000X1.100000*%
%TD*%
%TA.AperFunction,SMDPad,CuDef*%
%ADD26R,1.250000X0.700000*%
%TD*%
%TA.AperFunction,ComponentPad*%
%ADD27RotRect,1.800000X1.800000X255.000000*%
%TD*%
%TA.AperFunction,SMDPad,CuDef*%
%ADD28R,1.350000X1.410000*%
%TD*%
%TA.AperFunction,ComponentPad*%
%ADD29R,1.700000X1.700000*%
%TD*%
%TA.AperFunction,ComponentPad*%
%ADD30O,1.700000X1.700000*%
%TD*%
%TA.AperFunction,ViaPad*%
%ADD31C,1.000000*%
%TD*%
%TA.AperFunction,ViaPad*%
%ADD32C,2.000000*%
%TD*%
%TA.AperFunction,Conductor*%
%ADD33C,0.200000*%
%TD*%
%TA.AperFunction,Conductor*%
%ADD34C,0.500000*%
%TD*%
%TA.AperFunction,Conductor*%
%ADD35C,0.300000*%
%TD*%
G04 APERTURE END LIST*
D10*
%TO.P,JP28,1,A*%
%TO.N,/Batt*%
X213345599Y-45521379D03*
D11*
%TO.P,JP28,2,B*%
%TO.N,Net-(JP28-B)*%
X213345599Y-44221379D03*
%TD*%
D10*
%TO.P,JP27,1,A*%
%TO.N,/Batt*%
X172670081Y-44742898D03*
D11*
%TO.P,JP27,2,B*%
%TO.N,Net-(JP27-B)*%
X172670081Y-43442898D03*
%TD*%
D12*
%TO.P,JP14,1,A*%
%TO.N,/Batt*%
X170298639Y-47215159D03*
D13*
%TO.P,JP14,2,C*%
%TO.N,/DetectorIn*%
X168298639Y-47215159D03*
D14*
%TO.P,JP14,3,B*%
%TO.N,/DetectorRegulated*%
X166298639Y-47215159D03*
%TD*%
D12*
%TO.P,JP13,1,A*%
%TO.N,/Batt*%
X210860091Y-46955193D03*
D13*
%TO.P,JP13,2,C*%
%TO.N,/EmitterIn*%
X208860091Y-46955193D03*
D14*
%TO.P,JP13,3,B*%
%TO.N,/EmitterRegulated*%
X206860091Y-46955193D03*
%TD*%
D15*
%TO.P,R1,1*%
%TO.N,Net-(JP4-A)*%
X186324976Y-50292039D03*
%TO.P,R1,2*%
%TO.N,Net-(U1-A)*%
X186324976Y-48467039D03*
%TD*%
D16*
%TO.P,R2,1*%
%TO.N,Net-(JP20-A)*%
X166478154Y-61811222D03*
%TO.P,R2,2*%
%TO.N,GND*%
X166478154Y-63636222D03*
%TD*%
D15*
%TO.P,R3,1*%
%TO.N,Net-(JP7-A)*%
X150523878Y-60073471D03*
%TO.P,R3,2*%
%TO.N,Net-(U2-A)*%
X150523878Y-58248471D03*
%TD*%
%TO.P,R4,1*%
%TO.N,/Left input*%
X183168496Y-60383947D03*
%TO.P,R4,2*%
%TO.N,Net-(Q1-B)*%
X183168496Y-58558947D03*
%TD*%
%TO.P,R5,1*%
%TO.N,/Middle Left input*%
X169670872Y-57012940D03*
%TO.P,R5,2*%
%TO.N,Net-(Q2-B)*%
X169670872Y-55187940D03*
%TD*%
%TO.P,R6,1*%
%TO.N,Net-(JP2-A)*%
X192524381Y-50129376D03*
%TO.P,R6,2*%
%TO.N,Net-(U3-A)*%
X192524381Y-48304376D03*
%TD*%
%TO.P,R7,1*%
%TO.N,/Right input*%
X196603476Y-60165331D03*
%TO.P,R7,2*%
%TO.N,Net-(Q3-B)*%
X196603476Y-58340331D03*
%TD*%
%TO.P,R8,1*%
%TO.N,Net-(JP5-A)*%
X181244976Y-50292039D03*
%TO.P,R8,2*%
%TO.N,Net-(U1-A)*%
X181244976Y-48467039D03*
%TD*%
D16*
%TO.P,R9,1*%
%TO.N,Net-(JP17-A)*%
X177212707Y-52842515D03*
%TO.P,R9,2*%
%TO.N,GND*%
X177212707Y-54667515D03*
%TD*%
%TO.P,R10,1*%
%TO.N,Net-(JP23-A)*%
X200921048Y-53458944D03*
%TO.P,R10,2*%
%TO.N,GND*%
X200921048Y-55283944D03*
%TD*%
D15*
%TO.P,R11,1*%
%TO.N,Net-(JP6-A)*%
X183784976Y-50292039D03*
%TO.P,R11,2*%
%TO.N,Net-(U1-A)*%
X183784976Y-48467039D03*
%TD*%
%TO.P,R12,1*%
%TO.N,Net-(JP8-A)*%
X153213624Y-60062760D03*
%TO.P,R12,2*%
%TO.N,Net-(U2-A)*%
X153213624Y-58237760D03*
%TD*%
%TO.P,R13,1*%
%TO.N,Net-(JP9-A)*%
X155736343Y-60074279D03*
%TO.P,R13,2*%
%TO.N,Net-(U2-A)*%
X155736343Y-58249279D03*
%TD*%
%TO.P,R14,1*%
%TO.N,Net-(JP3-A)*%
X195064381Y-50129376D03*
%TO.P,R14,2*%
%TO.N,Net-(U3-A)*%
X195064381Y-48304376D03*
%TD*%
%TO.P,R15,1*%
%TO.N,Net-(JP1-A)*%
X197604381Y-50129376D03*
%TO.P,R15,2*%
%TO.N,Net-(U3-A)*%
X197604381Y-48304376D03*
%TD*%
D16*
%TO.P,R16,1*%
%TO.N,Net-(JP16-A)*%
X173265018Y-52836809D03*
%TO.P,R16,2*%
%TO.N,GND*%
X173265018Y-54661809D03*
%TD*%
%TO.P,R17,1*%
%TO.N,Net-(JP15-A)*%
X175241983Y-52841854D03*
%TO.P,R17,2*%
%TO.N,GND*%
X175241983Y-54666854D03*
%TD*%
%TO.P,R18,1*%
%TO.N,Net-(JP18-A)*%
X164467929Y-61808301D03*
%TO.P,R18,2*%
%TO.N,GND*%
X164467929Y-63633301D03*
%TD*%
%TO.P,R19,1*%
%TO.N,Net-(JP19-A)*%
X162447215Y-61808301D03*
%TO.P,R19,2*%
%TO.N,GND*%
X162447215Y-63633301D03*
%TD*%
%TO.P,R20,1*%
%TO.N,Net-(JP26-A)*%
X211732221Y-61357592D03*
%TO.P,R20,2*%
%TO.N,GND*%
X211732221Y-63182592D03*
%TD*%
D17*
%TO.P,R21,1*%
%TO.N,/Middle Right input*%
X206561859Y-57819683D03*
%TO.P,R21,2*%
%TO.N,Net-(Q4-B)*%
X208386859Y-57819683D03*
%TD*%
D15*
%TO.P,R22,1*%
%TO.N,Net-(JP10-A)*%
X224894143Y-59910658D03*
%TO.P,R22,2*%
%TO.N,Net-(U4-A)*%
X224894143Y-58085658D03*
%TD*%
%TO.P,R23,1*%
%TO.N,Net-(JP11-A)*%
X222321647Y-59954632D03*
%TO.P,R23,2*%
%TO.N,Net-(U4-A)*%
X222321647Y-58129632D03*
%TD*%
%TO.P,R24,1*%
%TO.N,Net-(JP12-A)*%
X219749151Y-59899697D03*
%TO.P,R24,2*%
%TO.N,Net-(U4-A)*%
X219749151Y-58074697D03*
%TD*%
D16*
%TO.P,R25,1*%
%TO.N,Net-(JP21-A)*%
X202875470Y-53457605D03*
%TO.P,R25,2*%
%TO.N,GND*%
X202875470Y-55282605D03*
%TD*%
%TO.P,R26,1*%
%TO.N,Net-(JP22-A)*%
X204826831Y-53457605D03*
%TO.P,R26,2*%
%TO.N,GND*%
X204826831Y-55282605D03*
%TD*%
%TO.P,R27,1*%
%TO.N,Net-(JP24-A)*%
X213702336Y-61354375D03*
%TO.P,R27,2*%
%TO.N,GND*%
X213702336Y-63179375D03*
%TD*%
%TO.P,R28,1*%
%TO.N,Net-(JP25-A)*%
X215662979Y-61354375D03*
%TO.P,R28,2*%
%TO.N,GND*%
X215662979Y-63179375D03*
%TD*%
D18*
%TO.P,C9,1*%
%TO.N,Net-(U5-C-)*%
X212788521Y-42200261D03*
%TO.P,C9,2*%
%TO.N,Net-(U5-C+)*%
X214788521Y-42200261D03*
%TD*%
%TO.P,C1,1*%
%TO.N,Net-(CGQ1-E)*%
X176157605Y-57955911D03*
%TO.P,C1,2*%
%TO.N,/Left output*%
X178157605Y-57955911D03*
%TD*%
D19*
%TO.P,TP5,1,1*%
%TO.N,Net-(U3-A)*%
X198850987Y-45871692D03*
%TD*%
%TO.P,TP1,1,1*%
%TO.N,Net-(CGQ1-E)*%
X177495182Y-46137808D03*
%TD*%
D18*
%TO.P,C8,1*%
%TO.N,/Batt*%
X212994540Y-47967358D03*
%TO.P,C8,2*%
%TO.N,GND*%
X214994540Y-47967358D03*
%TD*%
D19*
%TO.P,TP4,1,1*%
%TO.N,Net-(U2-A)*%
X158577599Y-58268183D03*
%TD*%
D10*
%TO.P,JP21,1,A*%
%TO.N,Net-(JP21-A)*%
X202898175Y-51641425D03*
D11*
%TO.P,JP21,2,B*%
%TO.N,Net-(CGQ3-E)*%
X202898175Y-50341425D03*
%TD*%
D18*
%TO.P,C6,1*%
%TO.N,Net-(CGQ4-E)*%
X207418225Y-61284732D03*
%TO.P,C6,2*%
%TO.N,/Middle Right output*%
X205418225Y-61284732D03*
%TD*%
D10*
%TO.P,JP22,1,A*%
%TO.N,Net-(JP22-A)*%
X205438175Y-51641425D03*
D11*
%TO.P,JP22,2,B*%
%TO.N,Net-(CGQ3-E)*%
X205438175Y-50341425D03*
%TD*%
D18*
%TO.P,C12,1*%
%TO.N,/Batt*%
X172387391Y-47144562D03*
%TO.P,C12,2*%
%TO.N,GND*%
X174387391Y-47144562D03*
%TD*%
%TO.P,C10,1*%
%TO.N,/DetectorRegulated*%
X165953190Y-44644623D03*
%TO.P,C10,2*%
%TO.N,GND*%
X163953190Y-44644623D03*
%TD*%
D10*
%TO.P,JP25,1,A*%
%TO.N,Net-(JP25-A)*%
X216276393Y-59508259D03*
D11*
%TO.P,JP25,2,B*%
%TO.N,Net-(CGQ4-E)*%
X216276393Y-58208259D03*
%TD*%
D20*
%TO.P,CGQ2,1,E*%
%TO.N,Net-(CGQ2-E)*%
X160825200Y-54559030D03*
D21*
%TO.P,CGQ2,2,C*%
%TO.N,/DetectorIn*%
X158285200Y-54559030D03*
%TD*%
D20*
%TO.P,U4,1,A*%
%TO.N,Net-(U4-A)*%
X226680404Y-54574658D03*
D21*
%TO.P,U4,2,C*%
%TO.N,Net-(Q4-C)*%
X224140404Y-54574658D03*
%TD*%
D10*
%TO.P,JP15,1,A*%
%TO.N,Net-(JP15-A)*%
X175574187Y-51012991D03*
D11*
%TO.P,JP15,2,B*%
%TO.N,Net-(CGQ1-E)*%
X175574187Y-49712991D03*
%TD*%
D22*
%TO.P,CGQ3,1,E*%
%TO.N,Net-(CGQ3-E)*%
X193991153Y-43176498D03*
D21*
%TO.P,CGQ3,2,C*%
%TO.N,/DetectorIn*%
X193333753Y-40723046D03*
%TD*%
D19*
%TO.P,TP7,1,1*%
%TO.N,Net-(CGQ4-E)*%
X213552848Y-54632582D03*
%TD*%
D10*
%TO.P,JP20,1,A*%
%TO.N,Net-(JP20-A)*%
X166986485Y-59973073D03*
D11*
%TO.P,JP20,2,B*%
%TO.N,Net-(CGQ2-E)*%
X166986485Y-58673073D03*
%TD*%
D23*
%TO.P,JP7,1,A*%
%TO.N,Net-(JP7-A)*%
X150523881Y-61868402D03*
D24*
%TO.P,JP7,2,B*%
%TO.N,/EmitterIn*%
X150523881Y-63168402D03*
%TD*%
D25*
%TO.P,U5,1,VOUT*%
%TO.N,/EmitterRegulated*%
X209051087Y-44498323D03*
%TO.P,U5,2,GND*%
%TO.N,GND*%
X210001087Y-44498323D03*
%TO.P,U5,3,EN*%
%TO.N,Net-(JP28-B)*%
X210951087Y-44498323D03*
%TO.P,U5,4,C-*%
%TO.N,Net-(U5-C-)*%
X210951087Y-41798323D03*
%TO.P,U5,5,VDD*%
%TO.N,Net-(JP28-B)*%
X210001087Y-41798323D03*
%TO.P,U5,6,C+*%
%TO.N,Net-(U5-C+)*%
X209051087Y-41798323D03*
%TD*%
D26*
%TO.P,Q3,1,B*%
%TO.N,Net-(Q3-B)*%
X193845106Y-57844032D03*
%TO.P,Q3,2,E*%
%TO.N,GND*%
X193845106Y-55944032D03*
%TO.P,Q3,3,C*%
%TO.N,Net-(Q3-C)*%
X191845106Y-56894032D03*
%TD*%
D19*
%TO.P,TP8,1,1*%
%TO.N,Net-(U4-A)*%
X227548922Y-58444061D03*
%TD*%
D26*
%TO.P,Q1,1,B*%
%TO.N,Net-(Q1-B)*%
X186021166Y-56088458D03*
%TO.P,Q1,2,E*%
%TO.N,GND*%
X186021166Y-57988458D03*
%TO.P,Q1,3,C*%
%TO.N,Net-(Q1-C)*%
X188021166Y-57038458D03*
%TD*%
D10*
%TO.P,JP18,1,A*%
%TO.N,Net-(JP18-A)*%
X164423382Y-59968028D03*
D11*
%TO.P,JP18,2,B*%
%TO.N,Net-(CGQ2-E)*%
X164423382Y-58668028D03*
%TD*%
D19*
%TO.P,TP2,1,1*%
%TO.N,Net-(CGQ2-E)*%
X164406353Y-55779019D03*
%TD*%
D23*
%TO.P,JP10,1,A*%
%TO.N,Net-(JP10-A)*%
X224888835Y-61920004D03*
D24*
%TO.P,JP10,2,B*%
%TO.N,/EmitterIn*%
X224888835Y-63220004D03*
%TD*%
D23*
%TO.P,JP6,1,A*%
%TO.N,Net-(JP6-A)*%
X183777636Y-52093571D03*
D24*
%TO.P,JP6,2,B*%
%TO.N,/EmitterIn*%
X183777636Y-53393571D03*
%TD*%
D20*
%TO.P,CGQ4,1,E*%
%TO.N,Net-(CGQ4-E)*%
X220223258Y-54580179D03*
D21*
%TO.P,CGQ4,2,C*%
%TO.N,/DetectorIn*%
X217683258Y-54580179D03*
%TD*%
D22*
%TO.P,U3,1,A*%
%TO.N,Net-(U3-A)*%
X192309943Y-36940771D03*
D21*
%TO.P,U3,2,C*%
%TO.N,Net-(Q3-C)*%
X191652543Y-34487319D03*
%TD*%
D18*
%TO.P,C11,1*%
%TO.N,Net-(U6-C-)*%
X164067315Y-41884507D03*
%TO.P,C11,2*%
%TO.N,Net-(U6-C+)*%
X166067315Y-41884507D03*
%TD*%
D19*
%TO.P,TP3,1,1*%
%TO.N,Net-(CGQ3-E)*%
X203320966Y-44875525D03*
%TD*%
D27*
%TO.P,U1,1,A*%
%TO.N,Net-(U1-A)*%
X186784954Y-34473617D03*
D21*
%TO.P,U1,2,C*%
%TO.N,Net-(Q1-C)*%
X186127554Y-36927069D03*
%TD*%
D11*
%TO.P,JP24,2,B*%
%TO.N,Net-(CGQ4-E)*%
X213736393Y-58208259D03*
D10*
%TO.P,JP24,1,A*%
%TO.N,Net-(JP24-A)*%
X213736393Y-59508259D03*
%TD*%
D19*
%TO.P,TP6,1,1*%
%TO.N,Net-(U1-A)*%
X180805512Y-46137808D03*
%TD*%
D28*
%TO.P,C3,1*%
%TO.N,Net-(CGQ3-E)*%
X199614140Y-58447197D03*
%TO.P,C3,2*%
%TO.N,/Right output*%
X199614140Y-60447197D03*
%TD*%
D10*
%TO.P,JP16,1,A*%
%TO.N,Net-(JP16-A)*%
X173014404Y-51007547D03*
D11*
%TO.P,JP16,2,B*%
%TO.N,Net-(CGQ1-E)*%
X173014404Y-49707547D03*
%TD*%
D27*
%TO.P,CGQ1,1,E*%
%TO.N,Net-(CGQ1-E)*%
X185103013Y-40711603D03*
D21*
%TO.P,CGQ1,2,C*%
%TO.N,/DetectorIn*%
X184445613Y-43165055D03*
%TD*%
D20*
%TO.P,U2,1,A*%
%TO.N,Net-(U2-A)*%
X154311726Y-54563040D03*
D21*
%TO.P,U2,2,C*%
%TO.N,Net-(Q2-C)*%
X151771726Y-54563040D03*
%TD*%
D23*
%TO.P,JP2,1,A*%
%TO.N,Net-(JP2-A)*%
X192524381Y-51970813D03*
D24*
%TO.P,JP2,2,B*%
%TO.N,/EmitterIn*%
X192524381Y-53270813D03*
%TD*%
D25*
%TO.P,U6,1,VOUT*%
%TO.N,/DetectorRegulated*%
X168378866Y-44630959D03*
%TO.P,U6,2,GND*%
%TO.N,GND*%
X169328866Y-44630959D03*
%TO.P,U6,3,EN*%
%TO.N,Net-(JP27-B)*%
X170278866Y-44630959D03*
%TO.P,U6,4,C-*%
%TO.N,Net-(U6-C-)*%
X170278866Y-41930959D03*
%TO.P,U6,5,VDD*%
%TO.N,Net-(JP27-B)*%
X169328866Y-41930959D03*
%TO.P,U6,6,C+*%
%TO.N,Net-(U6-C+)*%
X168378866Y-41930959D03*
%TD*%
D28*
%TO.P,C2,1*%
%TO.N,Net-(CGQ2-E)*%
X169568741Y-60435233D03*
%TO.P,C2,2*%
%TO.N,/Middle Left output*%
X169568741Y-62435233D03*
%TD*%
D23*
%TO.P,JP4,1,A*%
%TO.N,Net-(JP4-A)*%
X186317633Y-52067653D03*
D24*
%TO.P,JP4,2,B*%
%TO.N,/EmitterIn*%
X186317633Y-53367653D03*
%TD*%
D23*
%TO.P,JP11,1,A*%
%TO.N,Net-(JP11-A)*%
X222321647Y-61899115D03*
D24*
%TO.P,JP11,2,B*%
%TO.N,/EmitterIn*%
X222321647Y-63199115D03*
%TD*%
D23*
%TO.P,JP1,1,A*%
%TO.N,Net-(JP1-A)*%
X197612196Y-51981499D03*
D24*
%TO.P,JP1,2,B*%
%TO.N,/EmitterIn*%
X197612196Y-53281499D03*
%TD*%
D23*
%TO.P,JP8,1,A*%
%TO.N,Net-(JP8-A)*%
X153167552Y-61890238D03*
D24*
%TO.P,JP8,2,B*%
%TO.N,/EmitterIn*%
X153167552Y-63190238D03*
%TD*%
D23*
%TO.P,JP9,1,A*%
%TO.N,Net-(JP9-A)*%
X155733468Y-61892279D03*
D24*
%TO.P,JP9,2,B*%
%TO.N,/EmitterIn*%
X155733468Y-63192279D03*
%TD*%
D10*
%TO.P,JP17,1,A*%
%TO.N,Net-(JP17-A)*%
X178137291Y-51012991D03*
D11*
%TO.P,JP17,2,B*%
%TO.N,Net-(CGQ1-E)*%
X178137291Y-49712991D03*
%TD*%
D23*
%TO.P,JP12,1,A*%
%TO.N,Net-(JP12-A)*%
X219749151Y-61899115D03*
D24*
%TO.P,JP12,2,B*%
%TO.N,/EmitterIn*%
X219749151Y-63199115D03*
%TD*%
D23*
%TO.P,JP5,1,A*%
%TO.N,Net-(JP5-A)*%
X181237638Y-52119489D03*
D24*
%TO.P,JP5,2,B*%
%TO.N,/EmitterIn*%
X181237638Y-53419489D03*
%TD*%
D26*
%TO.P,Q2,1,B*%
%TO.N,Net-(Q2-B)*%
X165430678Y-52315083D03*
%TO.P,Q2,2,E*%
%TO.N,GND*%
X165430678Y-50415083D03*
%TO.P,Q2,3,C*%
%TO.N,Net-(Q2-C)*%
X163430678Y-51365083D03*
%TD*%
%TO.P,Q4,1,B*%
%TO.N,Net-(Q4-B)*%
X212371010Y-50268217D03*
%TO.P,Q4,2,E*%
%TO.N,GND*%
X212371010Y-52168217D03*
%TO.P,Q4,3,C*%
%TO.N,Net-(Q4-C)*%
X214371010Y-51218217D03*
%TD*%
D10*
%TO.P,JP23,1,A*%
%TO.N,Net-(JP23-A)*%
X200358175Y-51641425D03*
D11*
%TO.P,JP23,2,B*%
%TO.N,Net-(CGQ3-E)*%
X200358175Y-50341425D03*
%TD*%
D10*
%TO.P,JP19,1,A*%
%TO.N,Net-(JP19-A)*%
X161860677Y-59968028D03*
D11*
%TO.P,JP19,2,B*%
%TO.N,Net-(CGQ2-E)*%
X161860677Y-58668028D03*
%TD*%
D23*
%TO.P,JP3,1,A*%
%TO.N,Net-(JP3-A)*%
X195070139Y-51970813D03*
D24*
%TO.P,JP3,2,B*%
%TO.N,/EmitterIn*%
X195070139Y-53270813D03*
%TD*%
D28*
%TO.P,C7,1*%
%TO.N,/EmitterRegulated*%
X206663647Y-44541154D03*
%TO.P,C7,2*%
%TO.N,GND*%
X206663647Y-42541154D03*
%TD*%
D10*
%TO.P,JP26,1,A*%
%TO.N,Net-(JP26-A)*%
X211196393Y-59508259D03*
D11*
%TO.P,JP26,2,B*%
%TO.N,Net-(CGQ4-E)*%
X211196393Y-58208259D03*
%TD*%
D29*
%TO.P,J1,1,Pin_1*%
%TO.N,unconnected-(J1-Pin_1-Pad1)*%
X205730422Y-67212480D03*
D30*
%TO.P,J1,2,Pin_2*%
%TO.N,/3V3*%
X205730422Y-64672480D03*
%TO.P,J1,3,Pin_3*%
%TO.N,GND*%
X203190422Y-67212480D03*
%TO.P,J1,4,Pin_4*%
%TO.N,/Batt*%
X203190422Y-64672480D03*
%TO.P,J1,5,Pin_5*%
%TO.N,/Middle Right output*%
X200650422Y-67212480D03*
%TO.P,J1,6,Pin_6*%
%TO.N,unconnected-(J1-Pin_6-Pad6)*%
X200650422Y-64672480D03*
%TO.P,J1,7,Pin_7*%
%TO.N,/Right output*%
X198110422Y-67212480D03*
%TO.P,J1,8,Pin_8*%
%TO.N,/Middle Right input*%
X198110422Y-64672480D03*
%TO.P,J1,9,Pin_9*%
%TO.N,GND*%
X195570422Y-67212480D03*
%TO.P,J1,10,Pin_10*%
%TO.N,/Right input*%
X195570422Y-64672480D03*
%TO.P,J1,11,Pin_11*%
%TO.N,unconnected-(J1-Pin_11-Pad11)*%
X193030422Y-67212480D03*
%TO.P,J1,12,Pin_12*%
%TO.N,unconnected-(J1-Pin_12-Pad12)*%
X193030422Y-64672480D03*
%TO.P,J1,13,Pin_13*%
%TO.N,unconnected-(J1-Pin_13-Pad13)*%
X190490422Y-67212480D03*
%TO.P,J1,14,Pin_14*%
%TO.N,unconnected-(J1-Pin_14-Pad14)*%
X190490422Y-64672480D03*
%TO.P,J1,15,Pin_15*%
%TO.N,GND*%
X187950422Y-67212480D03*
%TO.P,J1,16,Pin_16*%
%TO.N,unconnected-(J1-Pin_16-Pad16)*%
X187950422Y-64672480D03*
%TO.P,J1,17,Pin_17*%
%TO.N,unconnected-(J1-Pin_17-Pad17)*%
X185410422Y-67212480D03*
%TO.P,J1,18,Pin_18*%
%TO.N,unconnected-(J1-Pin_18-Pad18)*%
X185410422Y-64672480D03*
%TO.P,J1,19,Pin_19*%
%TO.N,/Left output*%
X182870422Y-67212480D03*
%TO.P,J1,20,Pin_20*%
%TO.N,/Left input*%
X182870422Y-64672480D03*
%TO.P,J1,21,Pin_21*%
%TO.N,GND*%
X180330422Y-67212480D03*
%TO.P,J1,22,Pin_22*%
%TO.N,/Middle Left input*%
X180330422Y-64672480D03*
%TO.P,J1,23,Pin_23*%
%TO.N,unconnected-(J1-Pin_23-Pad23)*%
X177790422Y-67212480D03*
%TO.P,J1,24,Pin_24*%
%TO.N,unconnected-(J1-Pin_24-Pad24)*%
X177790422Y-64672480D03*
%TO.P,J1,25,Pin_25*%
%TO.N,/Middle Left output*%
X175250422Y-67212480D03*
%TO.P,J1,26,Pin_26*%
%TO.N,/Batt*%
X175250422Y-64672480D03*
%TO.P,J1,27,Pin_27*%
%TO.N,GND*%
X172710422Y-67212480D03*
%TO.P,J1,28,Pin_28*%
%TO.N,unconnected-(J1-Pin_28-Pad28)*%
X172710422Y-64672480D03*
%TD*%
D31*
%TO.N,GND*%
X189126812Y-62494018D03*
D32*
%TO.N,/Batt*%
X208626594Y-54206407D03*
X168812884Y-52369434D03*
D31*
%TO.N,GND*%
X209642109Y-56104788D03*
X156097344Y-56256190D03*
X180791339Y-58370762D03*
X191608152Y-54823602D03*
X195335857Y-45993396D03*
X183535113Y-46299909D03*
D32*
%TO.N,/DetectorIn*%
X168263773Y-49456758D03*
%TO.N,/EmitterIn*%
X197615123Y-55435608D03*
X158622676Y-63104025D03*
X227458103Y-62746427D03*
X181236678Y-55574588D03*
X208165022Y-49638439D03*
%TD*%
D33*
%TO.N,Net-(U1-A)*%
X181244976Y-48467039D02*
X181244976Y-46577272D01*
X181244976Y-46577272D02*
X180805512Y-46137808D01*
%TO.N,Net-(CGQ1-E)*%
X177495182Y-49408173D02*
X177800000Y-49712991D01*
X177495182Y-46137808D02*
X177495182Y-49408173D01*
X182921387Y-40711603D02*
X177495182Y-46137808D01*
X185103013Y-40711603D02*
X182921387Y-40711603D01*
D34*
%TO.N,/Batt*%
X172387391Y-45025588D02*
X172670081Y-44742898D01*
X172387391Y-47144562D02*
X172387391Y-45025588D01*
X172316794Y-47215159D02*
X172387391Y-47144562D01*
X170298639Y-47215159D02*
X172316794Y-47215159D01*
%TO.N,Net-(JP27-B)*%
X170416927Y-43442898D02*
X170278866Y-43580959D01*
X172670081Y-43442898D02*
X170416927Y-43442898D01*
%TO.N,Net-(JP28-B)*%
X211228031Y-44221379D02*
X210951087Y-44498323D01*
X213345599Y-44221379D02*
X211228031Y-44221379D01*
%TO.N,/Batt*%
X213345599Y-47616299D02*
X212994540Y-47967358D01*
X213345599Y-45521379D02*
X213345599Y-47616299D01*
X211872256Y-47967358D02*
X210860091Y-46955193D01*
X212994540Y-47967358D02*
X211872256Y-47967358D01*
D33*
%TO.N,Net-(JP28-B)*%
X213068655Y-44498323D02*
X213345599Y-44221379D01*
%TO.N,Net-(U5-C+)*%
X209075977Y-40948323D02*
X209051087Y-40973213D01*
X209051087Y-40973213D02*
X209051087Y-41798323D01*
X214788521Y-42068521D02*
X213668323Y-40948323D01*
X214788521Y-42200261D02*
X214788521Y-42068521D01*
X213668323Y-40948323D02*
X209075977Y-40948323D01*
%TO.N,Net-(U5-C-)*%
X210951087Y-41798323D02*
X212386583Y-41798323D01*
X212386583Y-41798323D02*
X212788521Y-42200261D01*
%TO.N,Net-(CGQ3-E)*%
X193991153Y-43176498D02*
X201621939Y-43176498D01*
%TO.N,Net-(U3-A)*%
X191596553Y-37654161D02*
X192309943Y-36940771D01*
X191596553Y-47376548D02*
X191596553Y-37654161D01*
%TO.N,Net-(Q3-C)*%
X190073300Y-36066562D02*
X190073300Y-36830000D01*
X190073300Y-55122226D02*
X190073300Y-36830000D01*
X191652543Y-34487319D02*
X190073300Y-36066562D01*
%TO.N,Net-(Q1-C)*%
X188021166Y-38820681D02*
X186127554Y-36927069D01*
X188021166Y-57038458D02*
X188021166Y-38820681D01*
%TO.N,Net-(U1-A)*%
X187074387Y-47717628D02*
X186324976Y-48467039D01*
X187074387Y-39610253D02*
X187074387Y-47717628D01*
X185557067Y-38942632D02*
X186406766Y-38942632D01*
X186406766Y-38942632D02*
X187074387Y-39610253D01*
X184140900Y-37526465D02*
X185557067Y-38942632D01*
X184140900Y-35025431D02*
X184140900Y-37526465D01*
X184692714Y-34473617D02*
X184140900Y-35025431D01*
X186247754Y-34473617D02*
X184692714Y-34473617D01*
%TO.N,Net-(CGQ4-E)*%
X213736393Y-54816127D02*
X213552848Y-54632582D01*
X213736393Y-58208259D02*
X213736393Y-54816127D01*
%TO.N,Net-(U2-A)*%
X153484966Y-58237760D02*
X154311726Y-57411000D01*
X153213624Y-58237760D02*
X153484966Y-58237760D01*
X154311726Y-57411000D02*
X154311726Y-54563040D01*
%TO.N,/Right output*%
X199614140Y-60570160D02*
X199614140Y-60447197D01*
X196844198Y-63340102D02*
X199614140Y-60570160D01*
%TO.N,Net-(CGQ3-E)*%
X206479671Y-50341425D02*
X205438175Y-50341425D01*
X206082336Y-56262159D02*
X206082336Y-52944025D01*
X206753584Y-50615337D02*
X206479671Y-50341425D01*
X204541840Y-57802655D02*
X206082336Y-56262159D01*
X206082336Y-52944025D02*
X206753584Y-52272777D01*
X206753584Y-52272777D02*
X206753584Y-50615337D01*
X200258682Y-57802655D02*
X204541840Y-57802655D01*
X199614140Y-58447197D02*
X200258682Y-57802655D01*
D34*
%TO.N,Net-(JP28-B)*%
X210001087Y-42748323D02*
X210860091Y-43607327D01*
%TO.N,Net-(JP27-B)*%
X170278866Y-43580959D02*
X169328866Y-42630959D01*
X170278866Y-44630959D02*
X170278866Y-43580959D01*
%TO.N,/Batt*%
X170278866Y-47195386D02*
X170298639Y-47215159D01*
%TO.N,Net-(JP28-B)*%
X210860091Y-44711000D02*
X210860091Y-44589319D01*
%TO.N,/Batt*%
X170298639Y-47215159D02*
X170298639Y-50883679D01*
%TO.N,Net-(JP28-B)*%
X210860091Y-43607327D02*
X210860091Y-44589319D01*
%TO.N,/Batt*%
X170298639Y-50883679D02*
X168812884Y-52369434D01*
%TO.N,Net-(JP27-B)*%
X169328866Y-42630959D02*
X169328866Y-41930959D01*
%TO.N,Net-(JP28-B)*%
X210001087Y-41798323D02*
X210001087Y-42748323D01*
X210860091Y-44589319D02*
X210951087Y-44498323D01*
%TO.N,/Batt*%
X210860091Y-46955193D02*
X210860091Y-50067438D01*
X210860091Y-50067438D02*
X208626594Y-52300935D01*
X208626594Y-52300935D02*
X208626594Y-54206407D01*
D35*
%TO.N,GND*%
X168917530Y-43619623D02*
X164978190Y-43619623D01*
X169328866Y-44030959D02*
X168917530Y-43619623D01*
X169328866Y-44630959D02*
X169328866Y-44030959D01*
X207720816Y-43598323D02*
X206663647Y-42541154D01*
X209951087Y-43598323D02*
X207720816Y-43598323D01*
X164978190Y-43619623D02*
X163953190Y-44644623D01*
X210001087Y-43648323D02*
X209951087Y-43598323D01*
X210001087Y-44498323D02*
X210001087Y-43648323D01*
D33*
%TO.N,Net-(U1-A)*%
X186324976Y-48467039D02*
X183784976Y-48467039D01*
X183784976Y-48467039D02*
X181244976Y-48467039D01*
X181244976Y-48467039D02*
X181237261Y-48467039D01*
X181237261Y-48467039D02*
X181219488Y-48449266D01*
%TO.N,/Left output*%
X181480422Y-65822480D02*
X181480422Y-62153728D01*
X181480422Y-62153728D02*
X178157605Y-58830911D01*
X182870422Y-67212480D02*
X181480422Y-65822480D01*
X178157605Y-57955911D02*
X178157605Y-58830911D01*
%TO.N,/Right output*%
X196844198Y-65946256D02*
X196844198Y-63340102D01*
X198110422Y-67212480D02*
X196844198Y-65946256D01*
%TO.N,Net-(Q1-B)*%
X186021166Y-56088458D02*
X185638985Y-56088458D01*
X185638985Y-56088458D02*
X183168496Y-58558947D01*
%TO.N,Net-(Q2-B)*%
X169670872Y-55187940D02*
X168303535Y-55187940D01*
X169670872Y-55187940D02*
X169670872Y-55087823D01*
X168303535Y-55187940D02*
X165430678Y-52315083D01*
%TO.N,Net-(Q2-C)*%
X163430678Y-51365083D02*
X154975423Y-51365083D01*
X154975423Y-51365083D02*
X151549775Y-54790731D01*
%TO.N,Net-(Q3-C)*%
X191845106Y-56894032D02*
X190073300Y-55122226D01*
%TO.N,Net-(Q3-B)*%
X193845106Y-57844032D02*
X196107177Y-57844032D01*
X196107177Y-57844032D02*
X196603476Y-58340331D01*
%TO.N,/Left input*%
X182870422Y-60682021D02*
X183168496Y-60383947D01*
X182870422Y-64672480D02*
X182870422Y-60682021D01*
%TO.N,/Right input*%
X195570422Y-61198385D02*
X196603476Y-60165331D01*
X195570422Y-64672480D02*
X195570422Y-61198385D01*
%TO.N,Net-(CGQ1-E)*%
X173019848Y-49712991D02*
X173014404Y-49707547D01*
X178447622Y-56674492D02*
X177439023Y-56674492D01*
X179679743Y-55442371D02*
X178447622Y-56674492D01*
X178137291Y-49712991D02*
X179601734Y-49712991D01*
X178137291Y-49712991D02*
X175574187Y-49712991D01*
X179601734Y-49712991D02*
X179679743Y-49791000D01*
X179679743Y-49791000D02*
X179679743Y-55442371D01*
X175574187Y-49712991D02*
X173019848Y-49712991D01*
X177439023Y-56674492D02*
X176157605Y-57955911D01*
%TO.N,Net-(CGQ2-E)*%
X160825200Y-54559030D02*
X160825200Y-57632551D01*
X167801536Y-58668028D02*
X166981440Y-58668028D01*
X164423382Y-58668028D02*
X166981440Y-58668028D01*
X166981440Y-58668028D02*
X166986485Y-58673073D01*
X164423382Y-58668028D02*
X164423382Y-55796048D01*
X160825200Y-57632551D02*
X161860677Y-58668028D01*
X169568741Y-60435233D02*
X167801536Y-58668028D01*
X161860677Y-58668028D02*
X164423382Y-58668028D01*
X164423382Y-55796048D02*
X164406353Y-55779019D01*
%TO.N,Net-(CGQ3-E)*%
X200358175Y-50341425D02*
X202898175Y-50341425D01*
X203320966Y-49493084D02*
X203320966Y-44875525D01*
X205438175Y-50341425D02*
X202898175Y-50341425D01*
X202898175Y-49915875D02*
X203320966Y-49493084D01*
X202898175Y-50341425D02*
X202898175Y-49915875D01*
X201621939Y-43176498D02*
X203320966Y-44875525D01*
%TO.N,Net-(U2-A)*%
X155736343Y-58249279D02*
X156215021Y-58249279D01*
X156215021Y-58249279D02*
X156233925Y-58268183D01*
X156233925Y-58268183D02*
X158577599Y-58268183D01*
X155736343Y-58249279D02*
X153225143Y-58249279D01*
X153225143Y-58249279D02*
X153213624Y-58237760D01*
X153213624Y-58237760D02*
X150511548Y-58237760D01*
%TO.N,Net-(U3-A)*%
X197613868Y-48294889D02*
X197604381Y-48304376D01*
X192524381Y-48304376D02*
X195064381Y-48304376D01*
X197604381Y-48304376D02*
X197604381Y-47118298D01*
X197604381Y-47118298D02*
X198850987Y-45871692D01*
X192524381Y-48304376D02*
X191596553Y-47376548D01*
X195064381Y-48304376D02*
X197604381Y-48304376D01*
D34*
%TO.N,Net-(JP1-A)*%
X197612196Y-51981499D02*
X197612196Y-50137191D01*
X197612196Y-50137191D02*
X197604381Y-50129376D01*
%TO.N,Net-(JP2-A)*%
X192524381Y-51970813D02*
X192524381Y-50129376D01*
%TO.N,Net-(JP3-A)*%
X195070139Y-51970813D02*
X195070139Y-50135134D01*
X195070139Y-50135134D02*
X195064381Y-50129376D01*
%TO.N,Net-(JP4-A)*%
X186324976Y-50292039D02*
X186324976Y-52060310D01*
X186324976Y-52060310D02*
X186317633Y-52067653D01*
%TO.N,Net-(JP5-A)*%
X181244976Y-52112151D02*
X181237638Y-52119489D01*
X181244976Y-50292039D02*
X181244976Y-52112151D01*
%TO.N,Net-(JP6-A)*%
X183784976Y-50292039D02*
X183784976Y-52086231D01*
X183784976Y-52086231D02*
X183777636Y-52093571D01*
D33*
%TO.N,Net-(JP7-A)*%
X150523878Y-61868399D02*
X150523881Y-61868402D01*
D34*
X150523881Y-60073474D02*
X150523878Y-60073471D01*
X150523881Y-61868402D02*
X150523881Y-60073474D01*
D33*
%TO.N,Net-(JP8-A)*%
X153213624Y-61844166D02*
X153167552Y-61890238D01*
D34*
X153167552Y-60108832D02*
X153213624Y-60062760D01*
X153167552Y-61890238D02*
X153167552Y-60108832D01*
%TO.N,Net-(JP9-A)*%
X155733468Y-60077154D02*
X155736343Y-60074279D01*
D33*
X155736343Y-61889404D02*
X155733468Y-61892279D01*
D34*
X155733468Y-61892279D02*
X155733468Y-60077154D01*
D33*
%TO.N,/Middle Left output*%
X169586746Y-62510733D02*
X169586746Y-63415733D01*
X169586746Y-63415733D02*
X172068993Y-65897980D01*
X173878427Y-65897980D02*
X175268427Y-67287980D01*
X172068993Y-65897980D02*
X173878427Y-65897980D01*
%TO.N,/Middle Left input*%
X172670882Y-57012940D02*
X180330422Y-64672480D01*
X169670872Y-57012940D02*
X172670882Y-57012940D01*
%TO.N,Net-(CGQ4-E)*%
X216276393Y-58208259D02*
X218483664Y-56000988D01*
X210441393Y-58208259D02*
X207418225Y-61231427D01*
X218483664Y-56000988D02*
X219153778Y-56000988D01*
X211196393Y-58208259D02*
X210441393Y-58208259D01*
X213736393Y-55557648D02*
X213600166Y-55421421D01*
X207418225Y-61231427D02*
X207418225Y-61284732D01*
X220223258Y-54580179D02*
X220223258Y-54931507D01*
X211196393Y-58208259D02*
X213736393Y-58208259D01*
X220223258Y-54931507D02*
X219153778Y-56000988D01*
X216276393Y-58208259D02*
X213736393Y-58208259D01*
%TO.N,/Middle Right output*%
X205418225Y-61284732D02*
X204513225Y-61284732D01*
X201934688Y-65928214D02*
X200650422Y-67212480D01*
X204513225Y-61284732D02*
X201934688Y-63863269D01*
X201934688Y-63863269D02*
X201934688Y-65928214D01*
D34*
%TO.N,Net-(JP10-A)*%
X224888835Y-61920004D02*
X224888835Y-59915966D01*
X224888835Y-59915966D02*
X224894143Y-59910658D01*
%TO.N,Net-(JP11-A)*%
X222321647Y-61899115D02*
X222321647Y-59954632D01*
%TO.N,Net-(JP12-A)*%
X219749151Y-61899115D02*
X219749151Y-59899697D01*
D33*
%TO.N,Net-(Q4-C)*%
X224140404Y-54574658D02*
X221225023Y-51659277D01*
X214371010Y-51218217D02*
X220783963Y-51218217D01*
X220783963Y-51218217D02*
X221225023Y-51659277D01*
%TO.N,Net-(Q4-B)*%
X211295810Y-51343417D02*
X212371010Y-50268217D01*
X208386859Y-57819683D02*
X209605842Y-57819683D01*
X209605842Y-57819683D02*
X211295810Y-56129715D01*
X211295810Y-56129715D02*
X211295810Y-51343417D01*
%TO.N,/Middle Right input*%
X206561859Y-57819683D02*
X205876873Y-57819683D01*
X205015556Y-58681000D02*
X205876873Y-57819683D01*
X198110422Y-64672480D02*
X204101902Y-58681000D01*
X204101902Y-58681000D02*
X205015556Y-58681000D01*
%TO.N,Net-(U4-A)*%
X226680404Y-56299397D02*
X224894143Y-58085658D01*
X222321647Y-58129632D02*
X222374668Y-58129632D01*
X222374668Y-58129632D02*
X222418642Y-58085658D01*
X226680404Y-54574658D02*
X226680404Y-56299397D01*
X219749151Y-58074697D02*
X222266712Y-58074697D01*
X222266712Y-58074697D02*
X222321647Y-58129632D01*
X227548922Y-58444061D02*
X227548922Y-57167915D01*
X227548922Y-57167915D02*
X226680404Y-56299397D01*
X222418642Y-58085658D02*
X224894143Y-58085658D01*
D34*
%TO.N,/DetectorIn*%
X168263773Y-47250025D02*
X168298639Y-47215159D01*
X168263773Y-49456758D02*
X168263773Y-47250025D01*
%TO.N,/EmitterRegulated*%
X209051087Y-44498323D02*
X206706478Y-44498323D01*
X206663647Y-44541154D02*
X206663647Y-46758749D01*
X206706478Y-44498323D02*
X206663647Y-44541154D01*
X206663647Y-46758749D02*
X206860091Y-46955193D01*
%TO.N,/DetectorRegulated*%
X166298639Y-44990072D02*
X165953190Y-44644623D01*
X166298639Y-47215159D02*
X166298639Y-44990072D01*
X168378866Y-44630959D02*
X166657752Y-44630959D01*
X166657752Y-44630959D02*
X166298639Y-44990072D01*
D33*
%TO.N,Net-(U6-C-)*%
X169757414Y-40909507D02*
X170278866Y-41430959D01*
X170278866Y-41430959D02*
X170278866Y-41930959D01*
X165042315Y-40909507D02*
X169757414Y-40909507D01*
X164067315Y-41884507D02*
X165042315Y-40909507D01*
%TO.N,Net-(U6-C+)*%
X166067315Y-41884507D02*
X168332414Y-41884507D01*
X168332414Y-41884507D02*
X168378866Y-41930959D01*
D34*
%TO.N,/EmitterIn*%
X181236678Y-55574588D02*
X181236678Y-53418529D01*
X208860091Y-48943370D02*
X208165022Y-49638439D01*
X197601510Y-53270813D02*
X197612196Y-53281499D01*
X195070139Y-53270813D02*
X197601510Y-53270813D01*
X155821722Y-63104025D02*
X155733468Y-63192279D01*
X208860091Y-46955193D02*
X208860091Y-48943370D01*
X150699542Y-63344063D02*
X150523881Y-63168402D01*
X186291715Y-53393571D02*
X186317633Y-53367653D01*
X153167552Y-63190238D02*
X150545717Y-63190238D01*
X183751718Y-53419489D02*
X183777636Y-53393571D01*
X195501368Y-53281499D02*
X195438848Y-53218979D01*
X192420781Y-53374413D02*
X192524381Y-53270813D01*
X183777636Y-53393571D02*
X186291715Y-53393571D01*
X219749151Y-63199115D02*
X222321647Y-63199115D01*
X181236678Y-53418529D02*
X181237638Y-53419489D01*
X158622676Y-63104025D02*
X155821722Y-63104025D01*
X181237638Y-53419489D02*
X183751718Y-53419489D01*
X197615123Y-53284426D02*
X197601510Y-53270813D01*
X153169593Y-63192279D02*
X153167552Y-63190238D01*
X224888835Y-63220004D02*
X226984526Y-63220004D01*
X226984526Y-63220004D02*
X227458103Y-62746427D01*
X197615123Y-55435608D02*
X197615123Y-53284426D01*
X224867946Y-63199115D02*
X224888835Y-63220004D01*
X222321647Y-63199115D02*
X224867946Y-63199115D01*
X192524381Y-53270813D02*
X195070139Y-53270813D01*
X150545717Y-63190238D02*
X150523881Y-63168402D01*
X155733468Y-63192279D02*
X153169593Y-63192279D01*
D33*
%TO.N,Net-(JP15-A)*%
X175241983Y-52841854D02*
X175241983Y-51345195D01*
X175241983Y-51345195D02*
X175574187Y-51012991D01*
%TO.N,Net-(JP16-A)*%
X173265018Y-52836809D02*
X173265018Y-51258161D01*
X173265018Y-51258161D02*
X173014404Y-51007547D01*
%TO.N,Net-(JP17-A)*%
X177212707Y-51937575D02*
X178137291Y-51012991D01*
X177212707Y-52842515D02*
X177212707Y-51937575D01*
%TO.N,Net-(JP18-A)*%
X164423382Y-59968028D02*
X164423382Y-61763754D01*
X164423382Y-61763754D02*
X164467929Y-61808301D01*
%TO.N,Net-(JP19-A)*%
X161860677Y-59968028D02*
X162447215Y-60554566D01*
X162447215Y-60554566D02*
X162447215Y-61808301D01*
%TO.N,Net-(JP20-A)*%
X166986485Y-59973073D02*
X166478154Y-60481404D01*
X166478154Y-60481404D02*
X166478154Y-61811222D01*
%TO.N,Net-(JP21-A)*%
X202898175Y-53434900D02*
X202875470Y-53457605D01*
X202898175Y-51641425D02*
X202898175Y-53434900D01*
%TO.N,Net-(JP22-A)*%
X205438175Y-51641425D02*
X204826831Y-52252769D01*
X204826831Y-52252769D02*
X204826831Y-53457605D01*
%TO.N,Net-(JP23-A)*%
X200921048Y-52204298D02*
X200921048Y-53458944D01*
X200358175Y-51641425D02*
X200921048Y-52204298D01*
%TO.N,Net-(JP24-A)*%
X213702336Y-61354375D02*
X213702336Y-59542316D01*
X213702336Y-59542316D02*
X213736393Y-59508259D01*
%TO.N,Net-(JP25-A)*%
X215662979Y-61354375D02*
X215662979Y-60121673D01*
X215662979Y-60121673D02*
X216276393Y-59508259D01*
%TO.N,Net-(JP26-A)*%
X211732221Y-61357592D02*
X211732221Y-60044087D01*
X211732221Y-60044087D02*
X211196393Y-59508259D01*
%TD*%
%TA.AperFunction,Conductor*%
%TO.N,GND*%
G36*
X162372966Y-51985268D02*
G01*
X162405193Y-52015271D01*
X162440406Y-52062308D01*
X162448132Y-52072629D01*
X162460686Y-52082027D01*
X162563342Y-52158876D01*
X162563349Y-52158880D01*
X162698195Y-52209174D01*
X162698194Y-52209174D01*
X162705122Y-52209918D01*
X162757805Y-52215583D01*
X164103550Y-52215582D01*
X164163161Y-52209174D01*
X164163165Y-52209172D01*
X164167923Y-52208661D01*
X164236682Y-52221067D01*
X164287820Y-52268677D01*
X164305178Y-52331951D01*
X164305178Y-52712952D01*
X164305179Y-52712959D01*
X164311586Y-52772566D01*
X164361880Y-52907411D01*
X164361884Y-52907418D01*
X164448130Y-53022627D01*
X164448133Y-53022630D01*
X164563342Y-53108876D01*
X164563349Y-53108880D01*
X164572779Y-53112397D01*
X164698195Y-53159174D01*
X164757805Y-53165583D01*
X165380580Y-53165582D01*
X165447619Y-53185266D01*
X165468261Y-53201901D01*
X167818674Y-55552314D01*
X167818684Y-55552325D01*
X167823014Y-55556655D01*
X167823015Y-55556656D01*
X167934819Y-55668460D01*
X167934821Y-55668461D01*
X167934825Y-55668464D01*
X168071744Y-55747513D01*
X168071751Y-55747517D01*
X168183554Y-55777474D01*
X168224477Y-55788440D01*
X168224478Y-55788440D01*
X168478364Y-55788440D01*
X168545403Y-55808125D01*
X168583901Y-55847341D01*
X168627764Y-55918454D01*
X168628161Y-55919097D01*
X168721823Y-56012759D01*
X168755308Y-56074082D01*
X168750324Y-56143774D01*
X168721823Y-56188121D01*
X168628161Y-56281782D01*
X168536059Y-56431103D01*
X168536057Y-56431108D01*
X168508221Y-56515110D01*
X168480873Y-56597643D01*
X168480873Y-56597644D01*
X168480872Y-56597644D01*
X168470372Y-56700423D01*
X168470372Y-57325441D01*
X168470373Y-57325459D01*
X168480872Y-57428236D01*
X168480873Y-57428239D01*
X168536057Y-57594771D01*
X168536059Y-57594776D01*
X168559713Y-57633125D01*
X168628160Y-57744096D01*
X168752216Y-57868152D01*
X168901538Y-57960254D01*
X169068075Y-58015439D01*
X169170863Y-58025940D01*
X170170880Y-58025939D01*
X170170888Y-58025938D01*
X170170891Y-58025938D01*
X170227174Y-58020188D01*
X170273669Y-58015439D01*
X170440206Y-57960254D01*
X170589528Y-57868152D01*
X170713584Y-57744096D01*
X170757842Y-57672342D01*
X170809789Y-57625619D01*
X170863380Y-57613440D01*
X172370785Y-57613440D01*
X172437824Y-57633125D01*
X172458466Y-57649759D01*
X177916755Y-63108048D01*
X177950240Y-63169371D01*
X177945256Y-63239063D01*
X177903384Y-63294996D01*
X177837920Y-63319413D01*
X177818266Y-63319257D01*
X177790423Y-63316821D01*
X177790421Y-63316821D01*
X177555018Y-63337416D01*
X177555008Y-63337418D01*
X177326766Y-63398574D01*
X177326757Y-63398578D01*
X177112593Y-63498444D01*
X177112591Y-63498445D01*
X176919019Y-63633985D01*
X176751927Y-63801077D01*
X176621997Y-63986638D01*
X176567420Y-64030263D01*
X176497922Y-64037457D01*
X176435567Y-64005934D01*
X176418847Y-63986638D01*
X176288916Y-63801077D01*
X176121824Y-63633986D01*
X176121817Y-63633981D01*
X175928256Y-63498447D01*
X175928252Y-63498445D01*
X175879810Y-63475856D01*
X175714085Y-63398577D01*
X175714081Y-63398576D01*
X175714077Y-63398574D01*
X175485835Y-63337418D01*
X175485825Y-63337416D01*
X175250423Y-63316821D01*
X175250421Y-63316821D01*
X175015018Y-63337416D01*
X175015008Y-63337418D01*
X174786766Y-63398574D01*
X174786757Y-63398578D01*
X174572593Y-63498444D01*
X174572591Y-63498445D01*
X174379019Y-63633985D01*
X174211927Y-63801077D01*
X174081997Y-63986638D01*
X174027420Y-64030263D01*
X173957922Y-64037457D01*
X173895567Y-64005934D01*
X173878847Y-63986638D01*
X173748916Y-63801077D01*
X173581824Y-63633986D01*
X173581817Y-63633981D01*
X173388256Y-63498447D01*
X173388252Y-63498445D01*
X173339810Y-63475856D01*
X173174085Y-63398577D01*
X173174081Y-63398576D01*
X173174077Y-63398574D01*
X172945835Y-63337418D01*
X172945825Y-63337416D01*
X172710423Y-63316821D01*
X172710421Y-63316821D01*
X172475018Y-63337416D01*
X172475008Y-63337418D01*
X172246766Y-63398574D01*
X172246757Y-63398578D01*
X172032593Y-63498444D01*
X172032591Y-63498445D01*
X171839019Y-63633985D01*
X171671927Y-63801077D01*
X171536388Y-63994648D01*
X171445386Y-64189800D01*
X171399213Y-64242238D01*
X171332019Y-64261390D01*
X171265138Y-64241174D01*
X171245323Y-64225075D01*
X170641619Y-63621371D01*
X170608134Y-63560048D01*
X170613118Y-63490356D01*
X170630033Y-63459379D01*
X170631992Y-63456762D01*
X170687537Y-63382564D01*
X170737832Y-63247716D01*
X170744241Y-63188106D01*
X170744240Y-61682361D01*
X170737832Y-61622750D01*
X170687537Y-61487902D01*
X170687535Y-61487899D01*
X170684437Y-61479593D01*
X170687694Y-61478377D01*
X170676369Y-61426458D01*
X170686582Y-61391673D01*
X170684437Y-61390873D01*
X170687535Y-61382566D01*
X170687537Y-61382564D01*
X170737832Y-61247716D01*
X170744241Y-61188106D01*
X170744240Y-59682361D01*
X170737832Y-59622750D01*
X170736325Y-59618710D01*
X170687538Y-59487904D01*
X170687534Y-59487897D01*
X170601288Y-59372688D01*
X170601285Y-59372685D01*
X170486076Y-59286439D01*
X170486069Y-59286435D01*
X170351223Y-59236141D01*
X170351224Y-59236141D01*
X170291624Y-59229734D01*
X170291622Y-59229733D01*
X170291614Y-59229733D01*
X170291606Y-59229733D01*
X169263838Y-59229733D01*
X169196799Y-59210048D01*
X169176157Y-59193414D01*
X168289126Y-58306383D01*
X168289124Y-58306380D01*
X168170254Y-58187510D01*
X168170252Y-58187508D01*
X168115885Y-58156119D01*
X168073569Y-58115770D01*
X168047108Y-58074595D01*
X168046291Y-58073159D01*
X168043496Y-58068974D01*
X167949277Y-57960242D01*
X167949274Y-57960239D01*
X167840620Y-57866091D01*
X167840617Y-57866088D01*
X167789402Y-57833175D01*
X167719579Y-57788303D01*
X167719572Y-57788300D01*
X167719566Y-57788296D01*
X167594841Y-57731336D01*
X167590542Y-57729087D01*
X167450746Y-57688039D01*
X167450736Y-57688036D01*
X167322785Y-57669640D01*
X167308426Y-57667576D01*
X167308425Y-57667576D01*
X167252086Y-57667576D01*
X167252076Y-57667573D01*
X167200721Y-57667573D01*
X166772249Y-57667573D01*
X166720912Y-57667573D01*
X166720884Y-57667576D01*
X166664544Y-57667576D01*
X166531006Y-57686776D01*
X166531004Y-57686776D01*
X166522229Y-57688037D01*
X166384171Y-57728576D01*
X166253403Y-57788296D01*
X166253393Y-57788301D01*
X166253391Y-57788303D01*
X166238884Y-57797626D01*
X166132352Y-57866088D01*
X166132348Y-57866091D01*
X166023711Y-57960225D01*
X166023692Y-57960242D01*
X166023691Y-57960244D01*
X165967813Y-58024731D01*
X165909037Y-58062505D01*
X165874101Y-58067528D01*
X165540139Y-58067528D01*
X165473100Y-58047843D01*
X165446427Y-58024732D01*
X165426094Y-58001267D01*
X165386173Y-57955196D01*
X165298895Y-57879570D01*
X165277517Y-57861046D01*
X165277514Y-57861043D01*
X165232715Y-57832253D01*
X165156476Y-57783258D01*
X165149399Y-57780026D01*
X165096369Y-57755807D01*
X165043566Y-57710051D01*
X165023882Y-57643013D01*
X165023882Y-57403518D01*
X165043567Y-57336479D01*
X165096371Y-57290724D01*
X165147882Y-57279518D01*
X165454224Y-57279518D01*
X165454225Y-57279518D01*
X165513836Y-57273110D01*
X165648684Y-57222815D01*
X165763899Y-57136565D01*
X165850149Y-57021350D01*
X165900444Y-56886502D01*
X165906853Y-56826892D01*
X165906852Y-54731147D01*
X165900444Y-54671536D01*
X165876040Y-54606106D01*
X165850150Y-54536690D01*
X165850146Y-54536683D01*
X165763900Y-54421474D01*
X165763897Y-54421471D01*
X165648688Y-54335225D01*
X165648681Y-54335221D01*
X165513835Y-54284927D01*
X165513836Y-54284927D01*
X165454236Y-54278520D01*
X165454234Y-54278519D01*
X165454226Y-54278519D01*
X165454217Y-54278519D01*
X163358482Y-54278519D01*
X163358476Y-54278520D01*
X163298869Y-54284927D01*
X163164024Y-54335221D01*
X163164017Y-54335225D01*
X163048808Y-54421471D01*
X163048805Y-54421474D01*
X162962559Y-54536683D01*
X162962555Y-54536690D01*
X162912261Y-54671536D01*
X162905854Y-54731135D01*
X162905854Y-54731142D01*
X162905853Y-54731154D01*
X162905853Y-56826889D01*
X162905854Y-56826895D01*
X162912261Y-56886502D01*
X162962555Y-57021347D01*
X162962559Y-57021354D01*
X163048805Y-57136563D01*
X163048808Y-57136566D01*
X163164017Y-57222812D01*
X163164024Y-57222816D01*
X163203319Y-57237472D01*
X163298870Y-57273110D01*
X163358480Y-57279519D01*
X163698882Y-57279518D01*
X163765921Y-57299202D01*
X163811676Y-57352006D01*
X163822882Y-57403518D01*
X163822882Y-57643013D01*
X163803197Y-57710052D01*
X163750395Y-57755807D01*
X163690296Y-57783254D01*
X163690292Y-57783255D01*
X163690288Y-57783258D01*
X163667931Y-57797626D01*
X163569249Y-57861043D01*
X163569245Y-57861046D01*
X163460608Y-57955180D01*
X163460589Y-57955197D01*
X163460572Y-57955216D01*
X163400339Y-58024730D01*
X163341561Y-58062505D01*
X163306626Y-58067528D01*
X162977434Y-58067528D01*
X162910395Y-58047843D01*
X162883722Y-58024732D01*
X162863389Y-58001267D01*
X162823468Y-57955196D01*
X162736190Y-57879570D01*
X162714812Y-57861046D01*
X162714809Y-57861043D01*
X162670010Y-57832253D01*
X162593771Y-57783258D01*
X162593764Y-57783255D01*
X162593758Y-57783251D01*
X162469033Y-57726291D01*
X162464734Y-57724042D01*
X162324938Y-57682994D01*
X162324928Y-57682991D01*
X162196977Y-57664595D01*
X162182618Y-57662531D01*
X162182617Y-57662531D01*
X162126278Y-57662531D01*
X162126268Y-57662528D01*
X162074913Y-57662528D01*
X161755774Y-57662528D01*
X161688735Y-57642843D01*
X161668093Y-57626209D01*
X161462019Y-57420134D01*
X161428534Y-57358811D01*
X161425700Y-57332453D01*
X161425700Y-56083529D01*
X161445385Y-56016490D01*
X161498189Y-55970735D01*
X161549700Y-55959529D01*
X161773071Y-55959529D01*
X161773072Y-55959529D01*
X161832683Y-55953121D01*
X161967531Y-55902826D01*
X162082746Y-55816576D01*
X162168996Y-55701361D01*
X162219291Y-55566513D01*
X162225700Y-55506903D01*
X162225699Y-53611158D01*
X162219291Y-53551547D01*
X162217321Y-53546266D01*
X162168997Y-53416701D01*
X162168993Y-53416694D01*
X162082747Y-53301485D01*
X162082744Y-53301482D01*
X161967535Y-53215236D01*
X161967528Y-53215232D01*
X161832682Y-53164938D01*
X161832683Y-53164938D01*
X161773083Y-53158531D01*
X161773081Y-53158530D01*
X161773073Y-53158530D01*
X161773064Y-53158530D01*
X159877329Y-53158530D01*
X159877323Y-53158531D01*
X159817716Y-53164938D01*
X159682871Y-53215232D01*
X159682864Y-53215236D01*
X159567655Y-53301482D01*
X159567652Y-53301485D01*
X159481406Y-53416694D01*
X159481403Y-53416700D01*
X159452744Y-53493538D01*
X159410872Y-53549471D01*
X159345408Y-53573888D01*
X159277135Y-53559036D01*
X159245335Y-53534188D01*
X159236984Y-53525117D01*
X159236978Y-53525112D01*
X159236977Y-53525111D01*
X159053834Y-53382565D01*
X159053828Y-53382561D01*
X158849704Y-53272094D01*
X158849695Y-53272091D01*
X158630184Y-53196732D01*
X158439650Y-53164938D01*
X158401249Y-53158530D01*
X158169151Y-53158530D01*
X158130750Y-53164938D01*
X157940215Y-53196732D01*
X157720704Y-53272091D01*
X157720695Y-53272094D01*
X157516571Y-53382561D01*
X157516565Y-53382565D01*
X157333422Y-53525111D01*
X157333419Y-53525114D01*
X157333416Y-53525116D01*
X157333416Y-53525117D01*
X157296610Y-53565099D01*
X157176216Y-53695882D01*
X157049275Y-53890181D01*
X156956042Y-54102729D01*
X156899066Y-54327721D01*
X156899064Y-54327732D01*
X156879900Y-54559023D01*
X156879900Y-54559036D01*
X156899064Y-54790327D01*
X156899066Y-54790338D01*
X156956042Y-55015330D01*
X157049275Y-55227878D01*
X157176216Y-55422177D01*
X157176219Y-55422181D01*
X157176221Y-55422183D01*
X157333416Y-55592943D01*
X157333419Y-55592945D01*
X157333422Y-55592948D01*
X157516565Y-55735494D01*
X157516571Y-55735498D01*
X157516574Y-55735500D01*
X157720697Y-55845966D01*
X157834687Y-55885098D01*
X157940215Y-55921327D01*
X157940217Y-55921327D01*
X157940219Y-55921328D01*
X158169151Y-55959530D01*
X158169152Y-55959530D01*
X158401248Y-55959530D01*
X158401249Y-55959530D01*
X158630181Y-55921328D01*
X158849703Y-55845966D01*
X159053826Y-55735500D01*
X159070511Y-55722514D01*
X159143148Y-55665978D01*
X159236984Y-55592943D01*
X159245330Y-55583876D01*
X159305210Y-55547884D01*
X159375049Y-55549979D01*
X159432668Y-55589499D01*
X159452744Y-55624521D01*
X159481403Y-55701360D01*
X159481406Y-55701365D01*
X159567652Y-55816574D01*
X159567655Y-55816577D01*
X159682864Y-55902823D01*
X159682871Y-55902827D01*
X159693612Y-55906833D01*
X159817717Y-55953121D01*
X159877327Y-55959530D01*
X160100700Y-55959529D01*
X160167739Y-55979213D01*
X160213494Y-56032017D01*
X160224700Y-56083529D01*
X160224700Y-56924875D01*
X160205015Y-56991914D01*
X160152211Y-57037669D01*
X160083053Y-57047613D01*
X160019497Y-57018588D01*
X160001434Y-56999187D01*
X159954229Y-56936130D01*
X159935145Y-56910637D01*
X159935143Y-56910636D01*
X159935143Y-56910635D01*
X159819934Y-56824389D01*
X159819927Y-56824385D01*
X159685081Y-56774091D01*
X159685082Y-56774091D01*
X159625482Y-56767684D01*
X159625480Y-56767683D01*
X159625472Y-56767683D01*
X159625463Y-56767683D01*
X157529728Y-56767683D01*
X157529722Y-56767684D01*
X157470115Y-56774091D01*
X157335270Y-56824385D01*
X157335263Y-56824389D01*
X157220054Y-56910635D01*
X157220051Y-56910638D01*
X157133805Y-57025847D01*
X157133801Y-57025854D01*
X157083507Y-57160700D01*
X157077100Y-57220299D01*
X157077099Y-57220318D01*
X157077099Y-57543683D01*
X157057414Y-57610722D01*
X157004610Y-57656477D01*
X156953099Y-57667683D01*
X156940511Y-57667683D01*
X156873472Y-57647998D01*
X156834972Y-57608780D01*
X156779055Y-57518123D01*
X156654999Y-57394067D01*
X156524203Y-57313392D01*
X156505679Y-57301966D01*
X156505674Y-57301964D01*
X156494928Y-57298403D01*
X156339140Y-57246780D01*
X156339138Y-57246779D01*
X156236353Y-57236279D01*
X155236341Y-57236279D01*
X155236323Y-57236280D01*
X155133546Y-57246779D01*
X155133543Y-57246780D01*
X155075230Y-57266104D01*
X155005402Y-57268506D01*
X154945360Y-57232774D01*
X154914167Y-57170254D01*
X154912226Y-57148398D01*
X154912226Y-56087539D01*
X154931911Y-56020500D01*
X154984715Y-55974745D01*
X155036226Y-55963539D01*
X155259597Y-55963539D01*
X155259598Y-55963539D01*
X155319209Y-55957131D01*
X155454057Y-55906836D01*
X155569272Y-55820586D01*
X155655522Y-55705371D01*
X155705817Y-55570523D01*
X155712226Y-55510913D01*
X155712225Y-53615168D01*
X155705817Y-53555557D01*
X155705733Y-53555333D01*
X155655523Y-53420711D01*
X155655519Y-53420704D01*
X155569273Y-53305495D01*
X155569270Y-53305492D01*
X155454061Y-53219246D01*
X155454054Y-53219242D01*
X155319208Y-53168948D01*
X155319209Y-53168948D01*
X155259609Y-53162541D01*
X155259607Y-53162540D01*
X155259599Y-53162540D01*
X155259591Y-53162540D01*
X154326562Y-53162540D01*
X154259523Y-53142855D01*
X154213768Y-53090051D01*
X154203824Y-53020893D01*
X154232849Y-52957337D01*
X154238881Y-52950859D01*
X154640585Y-52549156D01*
X155187839Y-52001902D01*
X155249162Y-51968417D01*
X155275520Y-51965583D01*
X162305927Y-51965583D01*
X162372966Y-51985268D01*
G37*
%TD.AperFunction*%
%TA.AperFunction,Conductor*%
G36*
X190879003Y-37093878D02*
G01*
X190916777Y-37152656D01*
X190917570Y-37155480D01*
X190918349Y-37158386D01*
X191004430Y-37479648D01*
X191004431Y-37543831D01*
X190996052Y-37575104D01*
X190996052Y-37743207D01*
X190996053Y-37743220D01*
X190996053Y-47289878D01*
X190996052Y-47289896D01*
X190996052Y-47455602D01*
X190996051Y-47455602D01*
X191036976Y-47608333D01*
X191050582Y-47631899D01*
X191116030Y-47745260D01*
X191116034Y-47745265D01*
X191234902Y-47864133D01*
X191234908Y-47864138D01*
X191287562Y-47916792D01*
X191321047Y-47978115D01*
X191323881Y-48004473D01*
X191323881Y-48616877D01*
X191323882Y-48616895D01*
X191334381Y-48719672D01*
X191334382Y-48719675D01*
X191389566Y-48886207D01*
X191389568Y-48886212D01*
X191401777Y-48906006D01*
X191459692Y-48999902D01*
X191481670Y-49035533D01*
X191575332Y-49129195D01*
X191608817Y-49190518D01*
X191603833Y-49260210D01*
X191575332Y-49304557D01*
X191481670Y-49398218D01*
X191389568Y-49547539D01*
X191389566Y-49547544D01*
X191381415Y-49572143D01*
X191334382Y-49714079D01*
X191334382Y-49714080D01*
X191334381Y-49714080D01*
X191323881Y-49816859D01*
X191323881Y-50441877D01*
X191323882Y-50441895D01*
X191334381Y-50544672D01*
X191334382Y-50544675D01*
X191374282Y-50665083D01*
X191389567Y-50711210D01*
X191479226Y-50856572D01*
X191481670Y-50860533D01*
X191605724Y-50984587D01*
X191605728Y-50984590D01*
X191620518Y-50993713D01*
X191667243Y-51045661D01*
X191678464Y-51114623D01*
X191650621Y-51178705D01*
X191636624Y-51192964D01*
X191561593Y-51257977D01*
X191561588Y-51257982D01*
X191561586Y-51257985D01*
X191552334Y-51268663D01*
X191467366Y-51366722D01*
X191467364Y-51366724D01*
X191467364Y-51366725D01*
X191467362Y-51366728D01*
X191389636Y-51487670D01*
X191389633Y-51487676D01*
X191329864Y-51618554D01*
X191289358Y-51756504D01*
X191289355Y-51756516D01*
X191268881Y-51898923D01*
X191268881Y-52470815D01*
X191274025Y-52542752D01*
X191284984Y-52580075D01*
X191288744Y-52632654D01*
X191268881Y-52770811D01*
X191268881Y-53342702D01*
X191289355Y-53485109D01*
X191289358Y-53485121D01*
X191292492Y-53495795D01*
X191329864Y-53623072D01*
X191347633Y-53661981D01*
X191389633Y-53753949D01*
X191389634Y-53753951D01*
X191463757Y-53869289D01*
X191464577Y-53870730D01*
X191467369Y-53874911D01*
X191561588Y-53983643D01*
X191561591Y-53983646D01*
X191670245Y-54077794D01*
X191670248Y-54077797D01*
X191670250Y-54077798D01*
X191670251Y-54077799D01*
X191791287Y-54155583D01*
X191791295Y-54155587D01*
X191791304Y-54155592D01*
X191916023Y-54212549D01*
X191920322Y-54214798D01*
X191922073Y-54215312D01*
X192060125Y-54255848D01*
X192060126Y-54255848D01*
X192060129Y-54255849D01*
X192102564Y-54261949D01*
X192202440Y-54276310D01*
X192258780Y-54276310D01*
X192258790Y-54276313D01*
X192310145Y-54276313D01*
X192789954Y-54276313D01*
X192789982Y-54276310D01*
X192846321Y-54276310D01*
X192846322Y-54276310D01*
X192979860Y-54257110D01*
X192979862Y-54257110D01*
X192985993Y-54256228D01*
X192988637Y-54255848D01*
X192988638Y-54255848D01*
X193126690Y-54215311D01*
X193257475Y-54155583D01*
X193378511Y-54077799D01*
X193408747Y-54051599D01*
X193472302Y-54022575D01*
X193489949Y-54021313D01*
X194104571Y-54021313D01*
X194171610Y-54040998D01*
X194185769Y-54051596D01*
X194216009Y-54077799D01*
X194337045Y-54155583D01*
X194337053Y-54155587D01*
X194337062Y-54155592D01*
X194461781Y-54212549D01*
X194466080Y-54214798D01*
X194467831Y-54215312D01*
X194605883Y-54255848D01*
X194605884Y-54255848D01*
X194605887Y-54255849D01*
X194648322Y-54261949D01*
X194748198Y-54276310D01*
X194804538Y-54276310D01*
X194804548Y-54276313D01*
X194855903Y-54276313D01*
X195335712Y-54276313D01*
X195335740Y-54276310D01*
X195392079Y-54276310D01*
X195392080Y-54276310D01*
X195525618Y-54257110D01*
X195525620Y-54257110D01*
X195531751Y-54256228D01*
X195534395Y-54255848D01*
X195534396Y-54255848D01*
X195672448Y-54215311D01*
X195803233Y-54155583D01*
X195924269Y-54077799D01*
X195954505Y-54051599D01*
X196018060Y-54022575D01*
X196035707Y-54021313D01*
X196628044Y-54021313D01*
X196695083Y-54040998D01*
X196740838Y-54093802D01*
X196750782Y-54162960D01*
X196721757Y-54226516D01*
X196704206Y-54243166D01*
X196595385Y-54327864D01*
X196595382Y-54327867D01*
X196595379Y-54327869D01*
X196595379Y-54327870D01*
X196576037Y-54348881D01*
X196426956Y-54510825D01*
X196290949Y-54719001D01*
X196191059Y-54946726D01*
X196130015Y-55187783D01*
X196130013Y-55187795D01*
X196109480Y-55435602D01*
X196109480Y-55435613D01*
X196130013Y-55683420D01*
X196130015Y-55683432D01*
X196191059Y-55924489D01*
X196290949Y-56152214D01*
X196426956Y-56360390D01*
X196435530Y-56369704D01*
X196595379Y-56543346D01*
X196791614Y-56696082D01*
X196799650Y-56700431D01*
X196982168Y-56799205D01*
X197010313Y-56814436D01*
X197245509Y-56895179D01*
X197490788Y-56936108D01*
X197739458Y-56936108D01*
X197984737Y-56895179D01*
X198219933Y-56814436D01*
X198438632Y-56696082D01*
X198634867Y-56543346D01*
X198803287Y-56360393D01*
X198939296Y-56152215D01*
X199039186Y-55924489D01*
X199100231Y-55683429D01*
X199100477Y-55680465D01*
X199112618Y-55533944D01*
X199721049Y-55533944D01*
X199721049Y-55596419D01*
X199731542Y-55699141D01*
X199786689Y-55865563D01*
X199786691Y-55865568D01*
X199878732Y-56014789D01*
X200002702Y-56138759D01*
X200151923Y-56230800D01*
X200151928Y-56230802D01*
X200318350Y-56285949D01*
X200318357Y-56285950D01*
X200421067Y-56296443D01*
X200671047Y-56296443D01*
X201171048Y-56296443D01*
X201421020Y-56296443D01*
X201421034Y-56296442D01*
X201523745Y-56285949D01*
X201690167Y-56230802D01*
X201690178Y-56230797D01*
X201834247Y-56141934D01*
X201901639Y-56123493D01*
X201964441Y-56141934D01*
X202106339Y-56229458D01*
X202106350Y-56229463D01*
X202272772Y-56284610D01*
X202272779Y-56284611D01*
X202375489Y-56295104D01*
X202625469Y-56295104D01*
X202625470Y-56295103D01*
X202625470Y-55532605D01*
X203125470Y-55532605D01*
X203125470Y-56295104D01*
X203375442Y-56295104D01*
X203375456Y-56295103D01*
X203478167Y-56284610D01*
X203644589Y-56229463D01*
X203644600Y-56229458D01*
X203786053Y-56142209D01*
X203853445Y-56123768D01*
X203916247Y-56142208D01*
X204057706Y-56229461D01*
X204057711Y-56229463D01*
X204224133Y-56284610D01*
X204224140Y-56284611D01*
X204326850Y-56295104D01*
X204576830Y-56295104D01*
X204576831Y-56295103D01*
X204576831Y-55532605D01*
X203125470Y-55532605D01*
X202625470Y-55532605D01*
X202123801Y-55532605D01*
X202111347Y-55533944D01*
X201171048Y-55533944D01*
X201171048Y-56296443D01*
X200671047Y-56296443D01*
X200671048Y-56296442D01*
X200671048Y-55533944D01*
X199721049Y-55533944D01*
X199112618Y-55533944D01*
X199120766Y-55435613D01*
X199120766Y-55435602D01*
X199100232Y-55187795D01*
X199100230Y-55187783D01*
X199039186Y-54946726D01*
X198939296Y-54719001D01*
X198803289Y-54510825D01*
X198758757Y-54462451D01*
X198634867Y-54327870D01*
X198568623Y-54276310D01*
X198519662Y-54238202D01*
X198478849Y-54181492D01*
X198475175Y-54111719D01*
X198509807Y-54051036D01*
X198514602Y-54046654D01*
X198574987Y-53994331D01*
X198574990Y-53994328D01*
X198669211Y-53885590D01*
X198746943Y-53764636D01*
X198806713Y-53633758D01*
X198847220Y-53495803D01*
X198867696Y-53353388D01*
X198867696Y-52781499D01*
X198862551Y-52709559D01*
X198851592Y-52672239D01*
X198847832Y-52619657D01*
X198848177Y-52617258D01*
X198867696Y-52481499D01*
X198867696Y-51909610D01*
X198847220Y-51767195D01*
X198806713Y-51629240D01*
X198746943Y-51498362D01*
X198745507Y-51496128D01*
X198672819Y-51383022D01*
X198671998Y-51381580D01*
X198669207Y-51377400D01*
X198574991Y-51268671D01*
X198574988Y-51268668D01*
X198574987Y-51268667D01*
X198489495Y-51194589D01*
X198451723Y-51135815D01*
X198451722Y-51065946D01*
X198489496Y-51007167D01*
X198505602Y-50995341D01*
X198523037Y-50984588D01*
X198647093Y-50860532D01*
X198739195Y-50711210D01*
X198794380Y-50544673D01*
X198804881Y-50441885D01*
X198804880Y-49816868D01*
X198804253Y-49810734D01*
X198794380Y-49714079D01*
X198794379Y-49714076D01*
X198784599Y-49684562D01*
X198739195Y-49547542D01*
X198647093Y-49398220D01*
X198553430Y-49304557D01*
X198519945Y-49243234D01*
X198524929Y-49173542D01*
X198553430Y-49129195D01*
X198600014Y-49082611D01*
X198647093Y-49035532D01*
X198739195Y-48886210D01*
X198794380Y-48719673D01*
X198804881Y-48616885D01*
X198804880Y-47991868D01*
X198801459Y-47958382D01*
X198794380Y-47889079D01*
X198794379Y-47889076D01*
X198783773Y-47857069D01*
X198739195Y-47722542D01*
X198647093Y-47573220D01*
X198647089Y-47573216D01*
X198647088Y-47573214D01*
X198646997Y-47573098D01*
X198646958Y-47573003D01*
X198643301Y-47567073D01*
X198644314Y-47566447D01*
X198620859Y-47508302D01*
X198633902Y-47439660D01*
X198681984Y-47388967D01*
X198744266Y-47372191D01*
X199898858Y-47372191D01*
X199898859Y-47372191D01*
X199958470Y-47365783D01*
X200093318Y-47315488D01*
X200208533Y-47229238D01*
X200294783Y-47114023D01*
X200345078Y-46979175D01*
X200351487Y-46919565D01*
X200351486Y-44823820D01*
X200345078Y-44764209D01*
X200329103Y-44721379D01*
X200294784Y-44629363D01*
X200294780Y-44629356D01*
X200208534Y-44514147D01*
X200208531Y-44514144D01*
X200093322Y-44427898D01*
X200093315Y-44427894D01*
X199958469Y-44377600D01*
X199958470Y-44377600D01*
X199898870Y-44371193D01*
X199898868Y-44371192D01*
X199898860Y-44371192D01*
X199898851Y-44371192D01*
X197803116Y-44371192D01*
X197803110Y-44371193D01*
X197743503Y-44377600D01*
X197608658Y-44427894D01*
X197608651Y-44427898D01*
X197493442Y-44514144D01*
X197493439Y-44514147D01*
X197407193Y-44629356D01*
X197407189Y-44629363D01*
X197356895Y-44764209D01*
X197354669Y-44784918D01*
X197350488Y-44823815D01*
X197350487Y-44823827D01*
X197350487Y-46471594D01*
X197330802Y-46538633D01*
X197314168Y-46559275D01*
X197123862Y-46749580D01*
X197123858Y-46749585D01*
X197082659Y-46820946D01*
X197082659Y-46820947D01*
X197044804Y-46886512D01*
X197044804Y-46886513D01*
X197003880Y-47039241D01*
X197003880Y-47039243D01*
X197003880Y-47207344D01*
X197003881Y-47207357D01*
X197003881Y-47211575D01*
X196984196Y-47278614D01*
X196931392Y-47324369D01*
X196918888Y-47329279D01*
X196916597Y-47330039D01*
X196835049Y-47357061D01*
X196835044Y-47357063D01*
X196685723Y-47449165D01*
X196561670Y-47573218D01*
X196556498Y-47581604D01*
X196521524Y-47638307D01*
X196517412Y-47644973D01*
X196465464Y-47691697D01*
X196411873Y-47703876D01*
X196256889Y-47703876D01*
X196189850Y-47684191D01*
X196151350Y-47644973D01*
X196147239Y-47638308D01*
X196107093Y-47573220D01*
X195983037Y-47449164D01*
X195885442Y-47388967D01*
X195833717Y-47357063D01*
X195833712Y-47357061D01*
X195832243Y-47356574D01*
X195667178Y-47301877D01*
X195667176Y-47301876D01*
X195564391Y-47291376D01*
X194564379Y-47291376D01*
X194564361Y-47291377D01*
X194461584Y-47301876D01*
X194461581Y-47301877D01*
X194295049Y-47357061D01*
X194295044Y-47357063D01*
X194145723Y-47449165D01*
X194021670Y-47573218D01*
X194016498Y-47581604D01*
X193981524Y-47638307D01*
X193977412Y-47644973D01*
X193925464Y-47691697D01*
X193871873Y-47703876D01*
X193716889Y-47703876D01*
X193649850Y-47684191D01*
X193611350Y-47644973D01*
X193607239Y-47638308D01*
X193567093Y-47573220D01*
X193443037Y-47449164D01*
X193345442Y-47388967D01*
X193293717Y-47357063D01*
X193293712Y-47357061D01*
X193292243Y-47356574D01*
X193127178Y-47301877D01*
X193127176Y-47301876D01*
X193024397Y-47291376D01*
X193024390Y-47291376D01*
X192411978Y-47291376D01*
X192344939Y-47271691D01*
X192324297Y-47255057D01*
X192233372Y-47164132D01*
X192199887Y-47102809D01*
X192197053Y-47076451D01*
X192197053Y-42833814D01*
X192216738Y-42766775D01*
X192269542Y-42721020D01*
X192338700Y-42711076D01*
X192402256Y-42740101D01*
X192440030Y-42798879D01*
X192440807Y-42801648D01*
X192883702Y-44454548D01*
X192905320Y-44510469D01*
X192988803Y-44627705D01*
X192988804Y-44627706D01*
X192988805Y-44627707D01*
X192988806Y-44627708D01*
X193009164Y-44643717D01*
X193101934Y-44716671D01*
X193235546Y-44770162D01*
X193378816Y-44783842D01*
X193438054Y-44774605D01*
X195269203Y-44283949D01*
X195325124Y-44262331D01*
X195442360Y-44178848D01*
X195531326Y-44065717D01*
X195584817Y-43932105D01*
X195584816Y-43932105D01*
X195584818Y-43932103D01*
X195588914Y-43889211D01*
X195614882Y-43824346D01*
X195671796Y-43783818D01*
X195712352Y-43776998D01*
X201321842Y-43776998D01*
X201388881Y-43796683D01*
X201409523Y-43813317D01*
X201784147Y-44187941D01*
X201817632Y-44249264D01*
X201820466Y-44275622D01*
X201820466Y-45923395D01*
X201820467Y-45923401D01*
X201826874Y-45983008D01*
X201877168Y-46117853D01*
X201877172Y-46117860D01*
X201963418Y-46233069D01*
X201963421Y-46233072D01*
X202078630Y-46319318D01*
X202078637Y-46319322D01*
X202102870Y-46328360D01*
X202213483Y-46369616D01*
X202273093Y-46376025D01*
X202596466Y-46376024D01*
X202663505Y-46395708D01*
X202709260Y-46448512D01*
X202720466Y-46500024D01*
X202720466Y-49192985D01*
X202700781Y-49260024D01*
X202684150Y-49280664D01*
X202665208Y-49299607D01*
X202603885Y-49333094D01*
X202580651Y-49335591D01*
X202580653Y-49335612D01*
X202580086Y-49335652D01*
X202577524Y-49335928D01*
X202576234Y-49335928D01*
X202442696Y-49355128D01*
X202442694Y-49355128D01*
X202433919Y-49356389D01*
X202295861Y-49396928D01*
X202165093Y-49456648D01*
X202165083Y-49456653D01*
X202165081Y-49456655D01*
X202137439Y-49474419D01*
X202044042Y-49534440D01*
X202044038Y-49534443D01*
X201935401Y-49628577D01*
X201935382Y-49628594D01*
X201935365Y-49628613D01*
X201875132Y-49698127D01*
X201816354Y-49735902D01*
X201781419Y-49740925D01*
X201474932Y-49740925D01*
X201407893Y-49721240D01*
X201381220Y-49698129D01*
X201364612Y-49678963D01*
X201320966Y-49628593D01*
X201247671Y-49565083D01*
X201212310Y-49534443D01*
X201212307Y-49534440D01*
X201181349Y-49514545D01*
X201091269Y-49456655D01*
X201091262Y-49456652D01*
X201091256Y-49456648D01*
X200966531Y-49399688D01*
X200962232Y-49397439D01*
X200822436Y-49356391D01*
X200822426Y-49356388D01*
X200694475Y-49337992D01*
X200680116Y-49335928D01*
X200680115Y-49335928D01*
X200623776Y-49335928D01*
X200623766Y-49335925D01*
X200572411Y-49335925D01*
X200143939Y-49335925D01*
X200092602Y-49335925D01*
X200092574Y-49335928D01*
X200036234Y-49335928D01*
X199902696Y-49355128D01*
X199902694Y-49355128D01*
X199893919Y-49356389D01*
X199755861Y-49396928D01*
X199625093Y-49456648D01*
X199625083Y-49456653D01*
X199625081Y-49456655D01*
X199597439Y-49474419D01*
X199504042Y-49534440D01*
X199504038Y-49534443D01*
X199395401Y-49628577D01*
X199395382Y-49628594D01*
X199395381Y-49628596D01*
X199301160Y-49737334D01*
X199301158Y-49737336D01*
X199301158Y-49737337D01*
X199301156Y-49737340D01*
X199223430Y-49858282D01*
X199223427Y-49858288D01*
X199163658Y-49989166D01*
X199123152Y-50127116D01*
X199123149Y-50127128D01*
X199102675Y-50269535D01*
X199102675Y-50841427D01*
X199107819Y-50913364D01*
X199118778Y-50950687D01*
X199122538Y-51003266D01*
X199102675Y-51141423D01*
X199102675Y-51713314D01*
X199123149Y-51855721D01*
X199123152Y-51855733D01*
X199138251Y-51907155D01*
X199163658Y-51993684D01*
X199185822Y-52042217D01*
X199223427Y-52124561D01*
X199223428Y-52124563D01*
X199297551Y-52239901D01*
X199298371Y-52241342D01*
X199301163Y-52245523D01*
X199395382Y-52354255D01*
X199395385Y-52354258D01*
X199504039Y-52448406D01*
X199504042Y-52448409D01*
X199504044Y-52448410D01*
X199504045Y-52448411D01*
X199625081Y-52526195D01*
X199625089Y-52526199D01*
X199625098Y-52526204D01*
X199749817Y-52583161D01*
X199754117Y-52585410D01*
X199777735Y-52592345D01*
X199836513Y-52630119D01*
X199865539Y-52693674D01*
X199855596Y-52762833D01*
X199848340Y-52776418D01*
X199786237Y-52877103D01*
X199786234Y-52877110D01*
X199731049Y-53043647D01*
X199731049Y-53043648D01*
X199731048Y-53043648D01*
X199720548Y-53146427D01*
X199720548Y-53771445D01*
X199720549Y-53771463D01*
X199731048Y-53874240D01*
X199731049Y-53874243D01*
X199786233Y-54040775D01*
X199786235Y-54040780D01*
X199809067Y-54077797D01*
X199878073Y-54189674D01*
X199878337Y-54190101D01*
X199972352Y-54284116D01*
X200005837Y-54345439D01*
X200000853Y-54415131D01*
X199972353Y-54459478D01*
X199878730Y-54553101D01*
X199786691Y-54702319D01*
X199786689Y-54702324D01*
X199731542Y-54868746D01*
X199731541Y-54868753D01*
X199721048Y-54971457D01*
X199721048Y-55033944D01*
X201672717Y-55033944D01*
X201685171Y-55032605D01*
X204952831Y-55032605D01*
X205019870Y-55052290D01*
X205065625Y-55105094D01*
X205076831Y-55156605D01*
X205076831Y-56316735D01*
X205084297Y-56330408D01*
X205079313Y-56400100D01*
X205050812Y-56444447D01*
X204329424Y-57165836D01*
X204268101Y-57199321D01*
X204241743Y-57202155D01*
X200345351Y-57202155D01*
X200345335Y-57202154D01*
X200337739Y-57202154D01*
X200179625Y-57202154D01*
X200047816Y-57237472D01*
X200015723Y-57241697D01*
X198891269Y-57241697D01*
X198891263Y-57241698D01*
X198831656Y-57248105D01*
X198696811Y-57298399D01*
X198696804Y-57298403D01*
X198581595Y-57384649D01*
X198581592Y-57384652D01*
X198495346Y-57499861D01*
X198495342Y-57499868D01*
X198445048Y-57634714D01*
X198438641Y-57694313D01*
X198438640Y-57694332D01*
X198438640Y-59200067D01*
X198438641Y-59200073D01*
X198445048Y-59259680D01*
X198498443Y-59402838D01*
X198495197Y-59404048D01*
X198506503Y-59456065D01*
X198496315Y-59490762D01*
X198498443Y-59491556D01*
X198445048Y-59634714D01*
X198439926Y-59682361D01*
X198438641Y-59694320D01*
X198438640Y-59694332D01*
X198438640Y-60845061D01*
X198418955Y-60912100D01*
X198402321Y-60932742D01*
X196475484Y-62859580D01*
X196382603Y-62952461D01*
X196321280Y-62985946D01*
X196251588Y-62980962D01*
X196195655Y-62939090D01*
X196171238Y-62873626D01*
X196170922Y-62864780D01*
X196170922Y-61498481D01*
X196190607Y-61431442D01*
X196207237Y-61410804D01*
X196403392Y-61214648D01*
X196464715Y-61181164D01*
X196491073Y-61178330D01*
X197103478Y-61178330D01*
X197103484Y-61178330D01*
X197112530Y-61177406D01*
X197121371Y-61176502D01*
X197206273Y-61167830D01*
X197372810Y-61112645D01*
X197522132Y-61020543D01*
X197646188Y-60896487D01*
X197738290Y-60747165D01*
X197793475Y-60580628D01*
X197803976Y-60477840D01*
X197803975Y-59852823D01*
X197794590Y-59760954D01*
X197793475Y-59750034D01*
X197793474Y-59750031D01*
X197772385Y-59686389D01*
X197738290Y-59583497D01*
X197646188Y-59434175D01*
X197552525Y-59340512D01*
X197519040Y-59279189D01*
X197524024Y-59209497D01*
X197552525Y-59165150D01*
X197599230Y-59118445D01*
X197646188Y-59071487D01*
X197738290Y-58922165D01*
X197793475Y-58755628D01*
X197803976Y-58652840D01*
X197803975Y-58027823D01*
X197803782Y-58025938D01*
X197793475Y-57925034D01*
X197793474Y-57925031D01*
X197781705Y-57889514D01*
X197738290Y-57758497D01*
X197646188Y-57609175D01*
X197522132Y-57485119D01*
X197386195Y-57401273D01*
X197372812Y-57393018D01*
X197372807Y-57393016D01*
X197345040Y-57383815D01*
X197206273Y-57337832D01*
X197206271Y-57337831D01*
X197103492Y-57327331D01*
X197103485Y-57327331D01*
X196446449Y-57327331D01*
X196384448Y-57310717D01*
X196338962Y-57284455D01*
X196186234Y-57243531D01*
X196028120Y-57243531D01*
X196020524Y-57243531D01*
X196020508Y-57243532D01*
X194969857Y-57243532D01*
X194902818Y-57223847D01*
X194870591Y-57193844D01*
X194836569Y-57148398D01*
X194827652Y-57136486D01*
X194801131Y-57116632D01*
X194712441Y-57050238D01*
X194712434Y-57050234D01*
X194604418Y-57009947D01*
X194548484Y-56968076D01*
X194524067Y-56902612D01*
X194538919Y-56834339D01*
X194588324Y-56784933D01*
X194604419Y-56777583D01*
X194712190Y-56737387D01*
X194712199Y-56737382D01*
X194827293Y-56651222D01*
X194827296Y-56651219D01*
X194913456Y-56536125D01*
X194913460Y-56536118D01*
X194963702Y-56401411D01*
X194963704Y-56401404D01*
X194970105Y-56341876D01*
X194970106Y-56341859D01*
X194970106Y-56194032D01*
X192879003Y-56194032D01*
X192811964Y-56174347D01*
X192804702Y-56169305D01*
X192712437Y-56100236D01*
X192712434Y-56100234D01*
X192577588Y-56049940D01*
X192577589Y-56049940D01*
X192517989Y-56043533D01*
X192517987Y-56043532D01*
X192517979Y-56043532D01*
X192517971Y-56043532D01*
X191895203Y-56043532D01*
X191828164Y-56023847D01*
X191807522Y-56007213D01*
X191494341Y-55694032D01*
X192720106Y-55694032D01*
X193595106Y-55694032D01*
X193595106Y-55094032D01*
X194095106Y-55094032D01*
X194095106Y-55694032D01*
X194970106Y-55694032D01*
X194970106Y-55546204D01*
X194970105Y-55546187D01*
X194963704Y-55486659D01*
X194963702Y-55486652D01*
X194913460Y-55351945D01*
X194913456Y-55351938D01*
X194827296Y-55236844D01*
X194827293Y-55236841D01*
X194712199Y-55150681D01*
X194712192Y-55150677D01*
X194577485Y-55100435D01*
X194577478Y-55100433D01*
X194517950Y-55094032D01*
X194095106Y-55094032D01*
X193595106Y-55094032D01*
X193172261Y-55094032D01*
X193112733Y-55100433D01*
X193112726Y-55100435D01*
X192978019Y-55150677D01*
X192978012Y-55150681D01*
X192862918Y-55236841D01*
X192862915Y-55236844D01*
X192776755Y-55351938D01*
X192776751Y-55351945D01*
X192726509Y-55486652D01*
X192726507Y-55486659D01*
X192720106Y-55546187D01*
X192720106Y-55694032D01*
X191494341Y-55694032D01*
X190710119Y-54909810D01*
X190676634Y-54848487D01*
X190673800Y-54822129D01*
X190673800Y-37187591D01*
X190693485Y-37120552D01*
X190746289Y-37074797D01*
X190815447Y-37064853D01*
X190879003Y-37093878D01*
G37*
%TD.AperFunction*%
%TA.AperFunction,Conductor*%
G36*
X187348178Y-54117692D02*
G01*
X187400982Y-54163447D01*
X187420666Y-54230486D01*
X187420666Y-56068794D01*
X187400981Y-56135833D01*
X187348177Y-56181588D01*
X187309919Y-56192084D01*
X187283918Y-56194879D01*
X187215159Y-56182472D01*
X187164022Y-56134861D01*
X187146665Y-56071589D01*
X187146665Y-55690587D01*
X187146664Y-55690581D01*
X187146663Y-55690574D01*
X187140257Y-55630975D01*
X187139345Y-55628531D01*
X187089963Y-55496129D01*
X187089959Y-55496122D01*
X187003713Y-55380913D01*
X187003710Y-55380910D01*
X186888501Y-55294664D01*
X186888494Y-55294660D01*
X186753648Y-55244366D01*
X186753649Y-55244366D01*
X186694049Y-55237959D01*
X186694047Y-55237958D01*
X186694039Y-55237958D01*
X186694030Y-55237958D01*
X185348295Y-55237958D01*
X185348289Y-55237959D01*
X185288682Y-55244366D01*
X185153837Y-55294660D01*
X185153830Y-55294664D01*
X185038621Y-55380910D01*
X185038618Y-55380913D01*
X184952372Y-55496122D01*
X184952368Y-55496129D01*
X184902074Y-55630975D01*
X184896756Y-55680446D01*
X184895667Y-55690581D01*
X184895666Y-55690593D01*
X184895666Y-55931179D01*
X184875981Y-55998218D01*
X184859347Y-56018860D01*
X183368578Y-57509628D01*
X183307255Y-57543113D01*
X183280897Y-57545947D01*
X182668494Y-57545947D01*
X182668476Y-57545948D01*
X182565699Y-57556447D01*
X182565696Y-57556448D01*
X182399164Y-57611632D01*
X182399159Y-57611634D01*
X182249838Y-57703736D01*
X182125785Y-57827789D01*
X182033683Y-57977110D01*
X182033681Y-57977115D01*
X182017502Y-58025940D01*
X181978497Y-58143650D01*
X181978497Y-58143651D01*
X181978496Y-58143651D01*
X181967996Y-58246430D01*
X181967996Y-58871448D01*
X181967997Y-58871466D01*
X181978496Y-58974243D01*
X181978497Y-58974246D01*
X182033681Y-59140778D01*
X182033683Y-59140783D01*
X182046664Y-59161829D01*
X182120478Y-59281501D01*
X182125785Y-59290104D01*
X182219447Y-59383766D01*
X182252932Y-59445089D01*
X182247948Y-59514781D01*
X182219447Y-59559128D01*
X182125785Y-59652789D01*
X182033683Y-59802110D01*
X182033682Y-59802113D01*
X181978497Y-59968650D01*
X181978497Y-59968651D01*
X181978496Y-59968651D01*
X181967996Y-60071430D01*
X181967996Y-60696448D01*
X181967997Y-60696466D01*
X181978496Y-60799243D01*
X181978497Y-60799246D01*
X182033681Y-60965778D01*
X182033683Y-60965783D01*
X182046105Y-60985922D01*
X182124504Y-61113028D01*
X182125785Y-61115104D01*
X182233603Y-61222922D01*
X182267088Y-61284245D01*
X182269922Y-61310603D01*
X182269922Y-61857406D01*
X182250237Y-61924445D01*
X182197433Y-61970200D01*
X182128275Y-61980144D01*
X182064719Y-61951119D01*
X182038536Y-61919407D01*
X181997375Y-61848116D01*
X181997373Y-61848114D01*
X181994737Y-61843549D01*
X181967582Y-61796513D01*
X181960943Y-61785013D01*
X181844807Y-61668877D01*
X181844796Y-61668867D01*
X179272254Y-59096325D01*
X179238769Y-59035002D01*
X179243753Y-58965310D01*
X179260668Y-58934333D01*
X179265719Y-58927586D01*
X179306401Y-58873242D01*
X179356696Y-58738394D01*
X179363105Y-58678784D01*
X179363104Y-57233039D01*
X179356696Y-57173428D01*
X179355512Y-57170254D01*
X179306402Y-57038582D01*
X179306398Y-57038575D01*
X179214837Y-56916266D01*
X179216369Y-56915118D01*
X179188260Y-56863625D01*
X179193252Y-56793934D01*
X179221746Y-56749601D01*
X179713329Y-56258018D01*
X179774650Y-56224535D01*
X179844342Y-56229519D01*
X179888689Y-56258020D01*
X179888690Y-56258021D01*
X179910063Y-56286684D01*
X179912501Y-56291190D01*
X180048511Y-56499370D01*
X180048514Y-56499373D01*
X180216934Y-56682326D01*
X180413169Y-56835062D01*
X180413171Y-56835063D01*
X180625498Y-56949969D01*
X180631868Y-56953416D01*
X180867064Y-57034159D01*
X181112343Y-57075088D01*
X181361013Y-57075088D01*
X181606292Y-57034159D01*
X181841488Y-56953416D01*
X182060187Y-56835062D01*
X182256422Y-56682326D01*
X182424842Y-56499373D01*
X182560851Y-56291195D01*
X182660741Y-56063469D01*
X182721786Y-55822409D01*
X182721937Y-55820584D01*
X182742321Y-55574593D01*
X182742321Y-55574582D01*
X182721787Y-55326775D01*
X182721785Y-55326763D01*
X182660741Y-55085706D01*
X182560851Y-54857981D01*
X182424844Y-54649805D01*
X182384613Y-54606103D01*
X182256422Y-54466850D01*
X182160050Y-54391841D01*
X182119239Y-54335132D01*
X182115564Y-54265359D01*
X182150195Y-54204676D01*
X182212137Y-54172349D01*
X182236214Y-54169989D01*
X182841979Y-54169989D01*
X182909018Y-54189674D01*
X182923185Y-54200279D01*
X182923504Y-54200556D01*
X182942166Y-54212549D01*
X183044542Y-54278341D01*
X183044550Y-54278345D01*
X183044559Y-54278350D01*
X183169278Y-54335307D01*
X183173577Y-54337556D01*
X183225105Y-54352686D01*
X183313380Y-54378606D01*
X183313381Y-54378606D01*
X183313384Y-54378607D01*
X183355819Y-54384707D01*
X183455695Y-54399068D01*
X183512035Y-54399068D01*
X183512045Y-54399071D01*
X183563400Y-54399071D01*
X184043209Y-54399071D01*
X184043237Y-54399068D01*
X184099576Y-54399068D01*
X184099577Y-54399068D01*
X184233115Y-54379868D01*
X184233117Y-54379868D01*
X184239248Y-54378986D01*
X184241892Y-54378606D01*
X184241893Y-54378606D01*
X184379945Y-54338069D01*
X184510730Y-54278341D01*
X184631766Y-54200557D01*
X184662002Y-54174357D01*
X184725557Y-54145333D01*
X184743204Y-54144071D01*
X185381976Y-54144071D01*
X185449015Y-54163756D01*
X185463182Y-54174361D01*
X185463501Y-54174638D01*
X185480310Y-54185440D01*
X185584539Y-54252423D01*
X185584547Y-54252427D01*
X185584556Y-54252432D01*
X185709275Y-54309389D01*
X185713574Y-54311638D01*
X185722007Y-54314114D01*
X185853377Y-54352688D01*
X185853378Y-54352688D01*
X185853381Y-54352689D01*
X185895816Y-54358789D01*
X185995692Y-54373150D01*
X186052032Y-54373150D01*
X186052042Y-54373153D01*
X186103397Y-54373153D01*
X186583206Y-54373153D01*
X186583234Y-54373150D01*
X186639573Y-54373150D01*
X186639574Y-54373150D01*
X186773112Y-54353950D01*
X186773114Y-54353950D01*
X186779245Y-54353068D01*
X186781889Y-54352688D01*
X186781890Y-54352688D01*
X186919942Y-54312151D01*
X187050727Y-54252423D01*
X187171763Y-54174639D01*
X187172084Y-54174361D01*
X187215464Y-54136773D01*
X187279019Y-54107748D01*
X187348178Y-54117692D01*
G37*
%TD.AperFunction*%
%TA.AperFunction,Conductor*%
G36*
X207537102Y-51004761D02*
G01*
X207560201Y-51017262D01*
X207560207Y-51017264D01*
X207560212Y-51017267D01*
X207795408Y-51098010D01*
X208040687Y-51138939D01*
X208289356Y-51138939D01*
X208289357Y-51138939D01*
X208433133Y-51114947D01*
X208502496Y-51123329D01*
X208556318Y-51167882D01*
X208577509Y-51234460D01*
X208559341Y-51301926D01*
X208541222Y-51324937D01*
X208043643Y-51822516D01*
X207995519Y-51894539D01*
X207995520Y-51894540D01*
X207961508Y-51945443D01*
X207904937Y-52082017D01*
X207904934Y-52082027D01*
X207876094Y-52227014D01*
X207876094Y-52832535D01*
X207856409Y-52899574D01*
X207811116Y-52941586D01*
X207803085Y-52945933D01*
X207704549Y-53022627D01*
X207606851Y-53098668D01*
X207438427Y-53281624D01*
X207302420Y-53489800D01*
X207202530Y-53717525D01*
X207141486Y-53958582D01*
X207141484Y-53958594D01*
X207120951Y-54206401D01*
X207120951Y-54206412D01*
X207141484Y-54454219D01*
X207141486Y-54454231D01*
X207202530Y-54695288D01*
X207302420Y-54923013D01*
X207438427Y-55131189D01*
X207438430Y-55131192D01*
X207606850Y-55314145D01*
X207803085Y-55466881D01*
X207893500Y-55515811D01*
X207994598Y-55570523D01*
X208021784Y-55585235D01*
X208256980Y-55665978D01*
X208502259Y-55706907D01*
X208750929Y-55706907D01*
X208996208Y-55665978D01*
X209231404Y-55585235D01*
X209450103Y-55466881D01*
X209646338Y-55314145D01*
X209814758Y-55131192D01*
X209950767Y-54923014D01*
X210050657Y-54695288D01*
X210111702Y-54454228D01*
X210114416Y-54421473D01*
X210132237Y-54206412D01*
X210132237Y-54206401D01*
X210111703Y-53958594D01*
X210111701Y-53958582D01*
X210050657Y-53717525D01*
X209950767Y-53489800D01*
X209814760Y-53281624D01*
X209773114Y-53236385D01*
X209646338Y-53098669D01*
X209450103Y-52945933D01*
X209442071Y-52941586D01*
X209392485Y-52892368D01*
X209377094Y-52832535D01*
X209377094Y-52663165D01*
X209396779Y-52596126D01*
X209413413Y-52575484D01*
X210483629Y-51505268D01*
X210544952Y-51471783D01*
X210614644Y-51476767D01*
X210670577Y-51518639D01*
X210694994Y-51584103D01*
X210695310Y-51592949D01*
X210695310Y-55829617D01*
X210675625Y-55896656D01*
X210658991Y-55917298D01*
X209518222Y-57058066D01*
X209456899Y-57091551D01*
X209387207Y-57086567D01*
X209331274Y-57044695D01*
X209325002Y-57035481D01*
X209316288Y-57021354D01*
X209242071Y-56901027D01*
X209118015Y-56776971D01*
X208986874Y-56696083D01*
X208968695Y-56684870D01*
X208968690Y-56684868D01*
X208961019Y-56682326D01*
X208802156Y-56629684D01*
X208802154Y-56629683D01*
X208699369Y-56619183D01*
X208074357Y-56619183D01*
X208074339Y-56619184D01*
X207971562Y-56629683D01*
X207971559Y-56629684D01*
X207805027Y-56684868D01*
X207805022Y-56684870D01*
X207655701Y-56776972D01*
X207562040Y-56870634D01*
X207500717Y-56904119D01*
X207431025Y-56899135D01*
X207386678Y-56870634D01*
X207293016Y-56776972D01*
X207293015Y-56776971D01*
X207161874Y-56696083D01*
X207143695Y-56684870D01*
X207143690Y-56684868D01*
X207136019Y-56682326D01*
X206977156Y-56629684D01*
X206977154Y-56629683D01*
X206874375Y-56619183D01*
X206874368Y-56619183D01*
X206769955Y-56619183D01*
X206702916Y-56599498D01*
X206657161Y-56546694D01*
X206647217Y-56477536D01*
X206650180Y-56463090D01*
X206654725Y-56446127D01*
X206682836Y-56341216D01*
X206682836Y-53244121D01*
X206702521Y-53177082D01*
X206719151Y-53156444D01*
X207112090Y-52763504D01*
X207112095Y-52763501D01*
X207122298Y-52753297D01*
X207122300Y-52753297D01*
X207234104Y-52641493D01*
X207287415Y-52549155D01*
X207291112Y-52542753D01*
X207307816Y-52513819D01*
X207313161Y-52504562D01*
X207354085Y-52351834D01*
X207354085Y-52193720D01*
X207354085Y-52186125D01*
X207354084Y-52186107D01*
X207354084Y-51113815D01*
X207373769Y-51046776D01*
X207426573Y-51001021D01*
X207495731Y-50991077D01*
X207537102Y-51004761D01*
G37*
%TD.AperFunction*%
%TA.AperFunction,Conductor*%
G36*
X183448853Y-41331788D02*
G01*
X183494608Y-41384592D01*
X183505252Y-41424316D01*
X183509347Y-41467208D01*
X183562839Y-41600821D01*
X183651802Y-41713949D01*
X183651804Y-41713950D01*
X183651806Y-41713953D01*
X183719775Y-41762353D01*
X183762965Y-41817273D01*
X183769607Y-41886826D01*
X183737592Y-41948929D01*
X183706867Y-41972414D01*
X183676989Y-41988583D01*
X183676978Y-41988590D01*
X183493835Y-42131136D01*
X183493832Y-42131139D01*
X183336629Y-42301907D01*
X183209688Y-42496206D01*
X183116455Y-42708754D01*
X183059479Y-42933746D01*
X183059477Y-42933757D01*
X183040313Y-43165048D01*
X183040313Y-43165061D01*
X183059477Y-43396352D01*
X183059479Y-43396363D01*
X183116455Y-43621355D01*
X183209688Y-43833903D01*
X183336629Y-44028202D01*
X183336632Y-44028206D01*
X183336634Y-44028208D01*
X183493829Y-44198968D01*
X183493832Y-44198970D01*
X183493835Y-44198973D01*
X183676978Y-44341519D01*
X183676984Y-44341523D01*
X183676987Y-44341525D01*
X183881110Y-44451991D01*
X183995100Y-44491123D01*
X184100628Y-44527352D01*
X184100630Y-44527352D01*
X184100632Y-44527353D01*
X184329564Y-44565555D01*
X184329565Y-44565555D01*
X184561661Y-44565555D01*
X184561662Y-44565555D01*
X184790594Y-44527353D01*
X185010116Y-44451991D01*
X185214239Y-44341525D01*
X185245238Y-44317398D01*
X185288218Y-44283945D01*
X185397397Y-44198968D01*
X185554592Y-44028208D01*
X185681537Y-43833904D01*
X185774770Y-43621355D01*
X185831747Y-43396360D01*
X185832079Y-43392358D01*
X185850913Y-43165061D01*
X185850913Y-43165048D01*
X185831748Y-42933757D01*
X185831746Y-42933746D01*
X185774770Y-42708754D01*
X185708699Y-42558128D01*
X185681537Y-42496206D01*
X185681533Y-42496200D01*
X185681098Y-42495395D01*
X185681018Y-42495023D01*
X185679477Y-42491509D01*
X185680199Y-42491191D01*
X185666497Y-42427068D01*
X185691155Y-42361694D01*
X185747242Y-42320029D01*
X185778359Y-42312930D01*
X185858620Y-42305267D01*
X185992232Y-42251776D01*
X186105363Y-42162810D01*
X186188846Y-42045574D01*
X186210465Y-41989654D01*
X186230112Y-41916326D01*
X186266477Y-41856667D01*
X186329324Y-41826138D01*
X186398699Y-41834433D01*
X186452577Y-41878918D01*
X186473852Y-41945470D01*
X186473887Y-41948421D01*
X186473887Y-47330039D01*
X186454202Y-47397078D01*
X186401398Y-47442833D01*
X186349887Y-47454039D01*
X185824974Y-47454039D01*
X185824956Y-47454040D01*
X185722179Y-47464539D01*
X185722176Y-47464540D01*
X185555644Y-47519724D01*
X185555639Y-47519726D01*
X185406318Y-47611828D01*
X185282265Y-47735881D01*
X185238007Y-47807636D01*
X185186059Y-47854360D01*
X185132468Y-47866539D01*
X184977484Y-47866539D01*
X184910445Y-47846854D01*
X184871945Y-47807636D01*
X184843986Y-47762307D01*
X184827688Y-47735883D01*
X184703632Y-47611827D01*
X184554310Y-47519725D01*
X184387773Y-47464540D01*
X184387771Y-47464539D01*
X184284986Y-47454039D01*
X183284974Y-47454039D01*
X183284956Y-47454040D01*
X183182179Y-47464539D01*
X183182176Y-47464540D01*
X183015644Y-47519724D01*
X183015639Y-47519726D01*
X182866318Y-47611828D01*
X182742265Y-47735881D01*
X182698007Y-47807636D01*
X182646059Y-47854360D01*
X182592468Y-47866539D01*
X182437484Y-47866539D01*
X182370445Y-47846854D01*
X182331945Y-47807636D01*
X182303986Y-47762307D01*
X182287688Y-47735883D01*
X182189416Y-47637611D01*
X182155931Y-47576288D01*
X182160915Y-47506596D01*
X182177827Y-47475624D01*
X182249308Y-47380139D01*
X182299603Y-47245291D01*
X182306012Y-47185681D01*
X182306011Y-45089936D01*
X182299603Y-45030325D01*
X182299049Y-45028840D01*
X182249309Y-44895479D01*
X182249305Y-44895472D01*
X182163059Y-44780263D01*
X182163056Y-44780260D01*
X182047847Y-44694014D01*
X182047840Y-44694010D01*
X181912994Y-44643716D01*
X181912995Y-44643716D01*
X181853395Y-44637309D01*
X181853393Y-44637308D01*
X181853385Y-44637308D01*
X181853377Y-44637308D01*
X180144278Y-44637308D01*
X180077239Y-44617623D01*
X180031484Y-44564819D01*
X180021540Y-44495661D01*
X180050565Y-44432105D01*
X180056597Y-44425627D01*
X180682433Y-43799792D01*
X183133804Y-41348422D01*
X183195127Y-41314937D01*
X183221485Y-41312103D01*
X183381814Y-41312103D01*
X183448853Y-41331788D01*
G37*
%TD.AperFunction*%
%TA.AperFunction,Conductor*%
G36*
X171357620Y-44213083D02*
G01*
X171403375Y-44265887D01*
X171414581Y-44317398D01*
X171414581Y-44814787D01*
X171435055Y-44957194D01*
X171435058Y-44957206D01*
X171450157Y-45008628D01*
X171475564Y-45095157D01*
X171502859Y-45154926D01*
X171535333Y-45226034D01*
X171535334Y-45226036D01*
X171609459Y-45341377D01*
X171610277Y-45342814D01*
X171616007Y-45351393D01*
X171636872Y-45418074D01*
X171636891Y-45420263D01*
X171636891Y-45866257D01*
X171617206Y-45933296D01*
X171564402Y-45979051D01*
X171556224Y-45982439D01*
X171440062Y-46025764D01*
X171440055Y-46025768D01*
X171317746Y-46117330D01*
X171316294Y-46115391D01*
X171266360Y-46142648D01*
X171196669Y-46137653D01*
X171158817Y-46115191D01*
X171121812Y-46083126D01*
X171071933Y-46039905D01*
X171071929Y-46039903D01*
X170941058Y-45980135D01*
X170941053Y-45980134D01*
X170798639Y-45959659D01*
X169798639Y-45959659D01*
X169798623Y-45959659D01*
X169735120Y-45963665D01*
X169724252Y-45966658D01*
X169688528Y-45976499D01*
X169637955Y-45979689D01*
X169498639Y-45959659D01*
X167173139Y-45959659D01*
X167106100Y-45939974D01*
X167060345Y-45887170D01*
X167049139Y-45835659D01*
X167049139Y-45673819D01*
X167068824Y-45606780D01*
X167073864Y-45599518D01*
X167101986Y-45561954D01*
X167111250Y-45537117D01*
X167139220Y-45462126D01*
X167181091Y-45406192D01*
X167246556Y-45381775D01*
X167255402Y-45381459D01*
X167541686Y-45381459D01*
X167608725Y-45401144D01*
X167640951Y-45431146D01*
X167721320Y-45538505D01*
X167752317Y-45561709D01*
X167836530Y-45624752D01*
X167836537Y-45624756D01*
X167844345Y-45627668D01*
X167971383Y-45675050D01*
X168030993Y-45681459D01*
X168726738Y-45681458D01*
X168786349Y-45675050D01*
X168811246Y-45665763D01*
X168880936Y-45660778D01*
X168897915Y-45665764D01*
X168921485Y-45674555D01*
X168921493Y-45674557D01*
X168981021Y-45680958D01*
X168981038Y-45680959D01*
X169078866Y-45680959D01*
X169078866Y-45523065D01*
X169098551Y-45456026D01*
X169103600Y-45448753D01*
X169122662Y-45423290D01*
X169124608Y-45418074D01*
X169151455Y-45346092D01*
X169172957Y-45288442D01*
X169179366Y-45228832D01*
X169179365Y-44504957D01*
X169199049Y-44437920D01*
X169251853Y-44392165D01*
X169303365Y-44380959D01*
X169354366Y-44380959D01*
X169421405Y-44400644D01*
X169467160Y-44453448D01*
X169478366Y-44504959D01*
X169478366Y-45228829D01*
X169478367Y-45228835D01*
X169484774Y-45288442D01*
X169535069Y-45423288D01*
X169554132Y-45448753D01*
X169578550Y-45514217D01*
X169578866Y-45523065D01*
X169578866Y-45680959D01*
X169676694Y-45680959D01*
X169676710Y-45680958D01*
X169736238Y-45674557D01*
X169736241Y-45674556D01*
X169759815Y-45665764D01*
X169829506Y-45660778D01*
X169846485Y-45665764D01*
X169871377Y-45675048D01*
X169871383Y-45675050D01*
X169930993Y-45681459D01*
X170626738Y-45681458D01*
X170686349Y-45675050D01*
X170821197Y-45624755D01*
X170936412Y-45538505D01*
X171022662Y-45423290D01*
X171072957Y-45288442D01*
X171079366Y-45228832D01*
X171079365Y-44317397D01*
X171099049Y-44250359D01*
X171151853Y-44204604D01*
X171203365Y-44193398D01*
X171290581Y-44193398D01*
X171357620Y-44213083D01*
G37*
%TD.AperFunction*%
%TA.AperFunction,Conductor*%
G36*
X189952519Y-32037891D02*
G01*
X189955675Y-32037934D01*
X191398878Y-32076399D01*
X191402177Y-32076531D01*
X192843810Y-32153415D01*
X192847035Y-32153630D01*
X194286138Y-32268883D01*
X194289305Y-32269179D01*
X195724880Y-32422722D01*
X195728072Y-32423106D01*
X197158984Y-32614817D01*
X197162211Y-32615294D01*
X198587517Y-32845045D01*
X198590682Y-32845599D01*
X200009424Y-33113239D01*
X200012548Y-33113872D01*
X201423588Y-33419185D01*
X201426751Y-33419914D01*
X202829183Y-33762703D01*
X202832327Y-33763516D01*
X204225107Y-34143525D01*
X204228156Y-34144400D01*
X205610410Y-34561394D01*
X205613471Y-34562362D01*
X206984100Y-35016009D01*
X206987136Y-35017060D01*
X208345156Y-35507033D01*
X208348159Y-35508162D01*
X209573475Y-35987507D01*
X209692618Y-36034116D01*
X209695678Y-36035360D01*
X211025629Y-36596922D01*
X211028654Y-36598247D01*
X212343177Y-37195028D01*
X212346165Y-37196433D01*
X213644296Y-37827995D01*
X213647247Y-37829479D01*
X213865833Y-37943121D01*
X214928199Y-38495441D01*
X214931054Y-38496975D01*
X216193738Y-39196770D01*
X216196582Y-39198396D01*
X217440212Y-39931589D01*
X217443003Y-39933285D01*
X218632139Y-40677723D01*
X218666671Y-40699341D01*
X218669431Y-40701121D01*
X219872260Y-41499490D01*
X219874910Y-41501300D01*
X221056126Y-42331473D01*
X221058739Y-42333363D01*
X221688937Y-42801835D01*
X222217358Y-43194649D01*
X222219982Y-43196655D01*
X223355188Y-44088439D01*
X223357758Y-44090513D01*
X223660338Y-44341525D01*
X224443920Y-44991564D01*
X224468889Y-45012277D01*
X224471387Y-45014407D01*
X225242934Y-45689947D01*
X225557504Y-45965374D01*
X225559960Y-45967582D01*
X225638250Y-46039903D01*
X226620438Y-46947204D01*
X226622772Y-46949417D01*
X227608928Y-47910302D01*
X227656784Y-47956932D01*
X227659114Y-47959264D01*
X228640548Y-48967877D01*
X228665882Y-48993912D01*
X228668154Y-48996310D01*
X229607834Y-50014935D01*
X229616336Y-50026777D01*
X229616873Y-50026376D01*
X229622187Y-50033474D01*
X229622188Y-50033475D01*
X229622190Y-50033478D01*
X229631616Y-50042904D01*
X229652972Y-50064261D01*
X229657539Y-50069080D01*
X229690547Y-50105830D01*
X229695184Y-50110315D01*
X229805978Y-50234294D01*
X229815688Y-50245159D01*
X229824354Y-50256028D01*
X229951773Y-50435607D01*
X229952994Y-50437327D01*
X229960393Y-50449102D01*
X230067933Y-50643684D01*
X230073966Y-50656212D01*
X230159037Y-50861593D01*
X230163630Y-50874717D01*
X230225175Y-51088344D01*
X230228269Y-51101901D01*
X230265507Y-51321070D01*
X230267064Y-51334888D01*
X230279729Y-51560406D01*
X230279924Y-51567359D01*
X230279924Y-61790947D01*
X230279775Y-61797032D01*
X230263181Y-62134800D01*
X230261988Y-62146909D01*
X230212817Y-62478397D01*
X230210443Y-62490332D01*
X230129018Y-62815402D01*
X230125486Y-62827047D01*
X230012586Y-63142583D01*
X230007929Y-63153825D01*
X229864652Y-63456762D01*
X229858916Y-63467494D01*
X229686629Y-63754941D01*
X229679868Y-63765059D01*
X229480243Y-64034225D01*
X229472523Y-64043632D01*
X229247472Y-64291940D01*
X229238868Y-64300544D01*
X228990563Y-64525598D01*
X228981156Y-64533318D01*
X228711991Y-64732946D01*
X228701874Y-64739707D01*
X228528791Y-64843450D01*
X228414428Y-64911998D01*
X228403703Y-64917731D01*
X228100760Y-65061015D01*
X228089517Y-65065672D01*
X227773996Y-65178570D01*
X227762352Y-65182103D01*
X227437270Y-65263536D01*
X227425335Y-65265910D01*
X227093849Y-65315084D01*
X227081739Y-65316277D01*
X226744908Y-65332829D01*
X226738822Y-65332978D01*
X210687743Y-65332978D01*
X210685361Y-65332955D01*
X210551511Y-65330383D01*
X210551507Y-65330383D01*
X210551499Y-65330383D01*
X210551489Y-65330383D01*
X210551489Y-65330384D01*
X210277658Y-65358306D01*
X210277654Y-65358306D01*
X210277652Y-65358307D01*
X210189192Y-65378316D01*
X210009161Y-65419037D01*
X210009149Y-65419041D01*
X209749959Y-65511683D01*
X209749952Y-65511685D01*
X209503813Y-65634897D01*
X209503803Y-65634903D01*
X209274307Y-65786885D01*
X209064802Y-65965419D01*
X209064792Y-65965429D01*
X208878337Y-66167913D01*
X208878332Y-66167919D01*
X208717634Y-66391416D01*
X208717628Y-66391424D01*
X208585055Y-66632634D01*
X208585053Y-66632640D01*
X208585050Y-66632646D01*
X208538347Y-66748993D01*
X208482511Y-66888091D01*
X208482507Y-66888102D01*
X208411503Y-67154057D01*
X208373074Y-67426625D01*
X208371694Y-67498389D01*
X208370446Y-67513710D01*
X208370389Y-67514103D01*
X208370355Y-67566813D01*
X208370335Y-67568986D01*
X208370324Y-67569591D01*
X208370023Y-67576259D01*
X208352703Y-67816350D01*
X208350174Y-67833860D01*
X208299777Y-68064849D01*
X208294782Y-68081822D01*
X208212026Y-68303285D01*
X208204667Y-68319374D01*
X208091228Y-68526818D01*
X208081653Y-68541695D01*
X207939859Y-68730867D01*
X207928265Y-68744231D01*
X207760985Y-68911306D01*
X207747607Y-68922884D01*
X207558252Y-69064451D01*
X207543363Y-69074007D01*
X207335789Y-69187185D01*
X207319690Y-69194525D01*
X207098113Y-69277012D01*
X207081136Y-69281985D01*
X206850096Y-69332096D01*
X206832582Y-69334603D01*
X206591937Y-69351665D01*
X206583095Y-69351976D01*
X206521809Y-69351940D01*
X206521280Y-69351977D01*
X171939453Y-69351045D01*
X171938881Y-69351005D01*
X171877388Y-69351041D01*
X171868544Y-69350730D01*
X171628284Y-69333691D01*
X171610771Y-69331184D01*
X171379712Y-69281066D01*
X171362734Y-69276092D01*
X171141164Y-69193604D01*
X171125067Y-69186265D01*
X170917484Y-69073082D01*
X170902595Y-69063526D01*
X170713236Y-68921956D01*
X170699867Y-68910387D01*
X170532563Y-68743289D01*
X170520994Y-68729955D01*
X170379167Y-68540744D01*
X170369602Y-68525880D01*
X170358881Y-68506276D01*
X170256158Y-68318432D01*
X170248804Y-68302355D01*
X170166038Y-68080879D01*
X170161045Y-68063914D01*
X170110640Y-67832907D01*
X170108112Y-67815399D01*
X170101025Y-67717204D01*
X170090849Y-67576209D01*
X170090551Y-67569670D01*
X170090522Y-67568169D01*
X170090500Y-67565910D01*
X170090467Y-67513160D01*
X170090465Y-67513153D01*
X170090365Y-67512458D01*
X170089112Y-67497105D01*
X170087742Y-67425703D01*
X170049321Y-67153131D01*
X169978324Y-66887178D01*
X169875787Y-66631721D01*
X169875783Y-66631714D01*
X169875781Y-66631709D01*
X169743214Y-66390501D01*
X169743210Y-66390495D01*
X169743209Y-66390494D01*
X169743206Y-66390488D01*
X169582513Y-66166994D01*
X169396052Y-65964500D01*
X169344167Y-65920284D01*
X169186543Y-65785957D01*
X169186540Y-65785955D01*
X168957044Y-65633975D01*
X168957028Y-65633965D01*
X168710889Y-65510758D01*
X168451680Y-65418113D01*
X168451669Y-65418109D01*
X168183199Y-65357389D01*
X167964117Y-65335053D01*
X167909348Y-65329470D01*
X167909347Y-65329470D01*
X167776835Y-65332019D01*
X167774450Y-65332042D01*
X151722956Y-65332042D01*
X151716872Y-65331893D01*
X151686135Y-65330383D01*
X151379102Y-65315299D01*
X151366993Y-65314106D01*
X151035504Y-65264936D01*
X151023569Y-65262562D01*
X150698498Y-65181137D01*
X150686853Y-65177605D01*
X150371315Y-65064705D01*
X150360073Y-65060048D01*
X150057135Y-64916771D01*
X150046403Y-64911035D01*
X149758955Y-64738748D01*
X149748837Y-64731987D01*
X149479676Y-64532367D01*
X149470270Y-64524648D01*
X149221949Y-64299587D01*
X149213344Y-64290982D01*
X149153993Y-64225500D01*
X148988296Y-64042685D01*
X148980578Y-64033280D01*
X148780945Y-63764110D01*
X148774184Y-63753993D01*
X148601891Y-63466548D01*
X148596155Y-63455816D01*
X148525054Y-63305490D01*
X148494216Y-63240291D01*
X149268381Y-63240291D01*
X149271211Y-63259976D01*
X149288855Y-63382698D01*
X149288858Y-63382710D01*
X149299561Y-63419162D01*
X149329364Y-63520661D01*
X149347380Y-63560110D01*
X149389133Y-63651538D01*
X149389134Y-63651540D01*
X149463257Y-63766878D01*
X149464077Y-63768319D01*
X149466869Y-63772500D01*
X149561088Y-63881232D01*
X149561091Y-63881235D01*
X149669745Y-63975383D01*
X149669748Y-63975386D01*
X149669750Y-63975387D01*
X149669751Y-63975388D01*
X149790787Y-64053172D01*
X149790795Y-64053176D01*
X149790804Y-64053181D01*
X149915523Y-64110138D01*
X149919822Y-64112387D01*
X149966977Y-64126233D01*
X150059625Y-64153437D01*
X150059626Y-64153437D01*
X150059629Y-64153438D01*
X150102064Y-64159538D01*
X150201940Y-64173899D01*
X150258280Y-64173899D01*
X150258290Y-64173902D01*
X150309645Y-64173902D01*
X150789454Y-64173902D01*
X150789482Y-64173899D01*
X150845821Y-64173899D01*
X150845822Y-64173899D01*
X150979360Y-64154699D01*
X150979362Y-64154699D01*
X150985493Y-64153817D01*
X150988137Y-64153437D01*
X150988138Y-64153437D01*
X151126190Y-64112900D01*
X151256975Y-64053172D01*
X151378011Y-63975388D01*
X151380691Y-63973066D01*
X151383046Y-63971026D01*
X151446601Y-63942000D01*
X151464249Y-63940738D01*
X152201984Y-63940738D01*
X152269023Y-63960423D01*
X152283182Y-63971021D01*
X152313422Y-63997224D01*
X152434458Y-64075008D01*
X152434466Y-64075012D01*
X152434475Y-64075017D01*
X152559194Y-64131974D01*
X152563493Y-64134223D01*
X152595476Y-64143614D01*
X152703296Y-64175273D01*
X152703297Y-64175273D01*
X152703300Y-64175274D01*
X152745735Y-64181374D01*
X152845611Y-64195735D01*
X152901951Y-64195735D01*
X152901961Y-64195738D01*
X152953316Y-64195738D01*
X153433125Y-64195738D01*
X153433153Y-64195735D01*
X153489492Y-64195735D01*
X153489493Y-64195735D01*
X153623031Y-64176535D01*
X153623033Y-64176535D01*
X153629164Y-64175653D01*
X153631808Y-64175273D01*
X153631809Y-64175273D01*
X153769861Y-64134736D01*
X153900646Y-64075008D01*
X154021682Y-63997224D01*
X154021688Y-63997219D01*
X154049563Y-63973066D01*
X154113118Y-63944041D01*
X154130765Y-63942779D01*
X154767900Y-63942779D01*
X154834939Y-63962464D01*
X154849098Y-63973062D01*
X154879338Y-63999265D01*
X155000374Y-64077049D01*
X155000382Y-64077053D01*
X155000391Y-64077058D01*
X155125110Y-64134015D01*
X155129409Y-64136264D01*
X155154441Y-64143614D01*
X155269212Y-64177314D01*
X155269213Y-64177314D01*
X155269216Y-64177315D01*
X155311651Y-64183415D01*
X155411527Y-64197776D01*
X155467867Y-64197776D01*
X155467877Y-64197779D01*
X155519232Y-64197779D01*
X155999041Y-64197779D01*
X155999069Y-64197776D01*
X156055408Y-64197776D01*
X156055409Y-64197776D01*
X156188947Y-64178576D01*
X156188949Y-64178576D01*
X156195080Y-64177694D01*
X156197724Y-64177314D01*
X156197725Y-64177314D01*
X156335777Y-64136777D01*
X156466562Y-64077049D01*
X156587598Y-63999265D01*
X156589954Y-63997224D01*
X156644898Y-63949615D01*
X156696259Y-63905111D01*
X156696262Y-63905108D01*
X156703006Y-63897325D01*
X156761783Y-63859549D01*
X156796721Y-63854525D01*
X157253540Y-63854525D01*
X157320579Y-63874210D01*
X157357348Y-63910702D01*
X157434512Y-64028810D01*
X157602932Y-64211763D01*
X157799167Y-64364499D01*
X157799169Y-64364500D01*
X157979314Y-64461990D01*
X158017866Y-64482853D01*
X158253062Y-64563596D01*
X158498341Y-64604525D01*
X158747011Y-64604525D01*
X158992290Y-64563596D01*
X159227486Y-64482853D01*
X159446185Y-64364499D01*
X159642420Y-64211763D01*
X159810840Y-64028810D01*
X159905905Y-63883301D01*
X161247216Y-63883301D01*
X161247216Y-63945787D01*
X161257709Y-64048498D01*
X161312856Y-64214920D01*
X161312858Y-64214925D01*
X161404899Y-64364146D01*
X161528869Y-64488116D01*
X161678090Y-64580157D01*
X161678095Y-64580159D01*
X161844517Y-64635306D01*
X161844524Y-64635307D01*
X161947234Y-64645800D01*
X162197214Y-64645800D01*
X162197215Y-64645799D01*
X162197215Y-63883301D01*
X162697215Y-63883301D01*
X162697215Y-64645800D01*
X162947187Y-64645800D01*
X162947201Y-64645799D01*
X163049912Y-64635306D01*
X163216334Y-64580159D01*
X163216339Y-64580157D01*
X163365560Y-64488116D01*
X163369891Y-64483786D01*
X163431214Y-64450301D01*
X163500906Y-64455285D01*
X163545253Y-64483786D01*
X163549583Y-64488116D01*
X163698804Y-64580157D01*
X163698809Y-64580159D01*
X163865231Y-64635306D01*
X163865238Y-64635307D01*
X163967948Y-64645800D01*
X164217928Y-64645800D01*
X164217929Y-64645799D01*
X164217929Y-63883301D01*
X164717929Y-63883301D01*
X164717929Y-64645800D01*
X164967901Y-64645800D01*
X164967915Y-64645799D01*
X165070626Y-64635306D01*
X165237048Y-64580159D01*
X165237053Y-64580157D01*
X165386275Y-64488116D01*
X165391936Y-64483640D01*
X165393296Y-64485360D01*
X165445223Y-64457006D01*
X165514915Y-64461990D01*
X165553810Y-64486987D01*
X165554147Y-64486561D01*
X165558487Y-64489993D01*
X165559262Y-64490491D01*
X165559808Y-64491037D01*
X165709029Y-64583078D01*
X165709034Y-64583080D01*
X165875456Y-64638227D01*
X165875463Y-64638228D01*
X165978173Y-64648721D01*
X166228153Y-64648721D01*
X166228154Y-64648720D01*
X166228154Y-63886222D01*
X166728154Y-63886222D01*
X166728154Y-64648721D01*
X166978126Y-64648721D01*
X166978140Y-64648720D01*
X167080851Y-64638227D01*
X167247273Y-64583080D01*
X167247278Y-64583078D01*
X167396499Y-64491037D01*
X167520469Y-64367067D01*
X167612510Y-64217846D01*
X167612512Y-64217841D01*
X167667659Y-64051419D01*
X167667660Y-64051412D01*
X167678153Y-63948708D01*
X167678154Y-63948695D01*
X167678154Y-63886222D01*
X166728154Y-63886222D01*
X166228154Y-63886222D01*
X165289437Y-63886222D01*
X165279489Y-63883301D01*
X164717929Y-63883301D01*
X164217929Y-63883301D01*
X162697215Y-63883301D01*
X162197215Y-63883301D01*
X161247216Y-63883301D01*
X159905905Y-63883301D01*
X159946849Y-63820632D01*
X160046739Y-63592906D01*
X160107784Y-63351846D01*
X160107785Y-63351837D01*
X160128319Y-63104030D01*
X160128319Y-63104019D01*
X160107785Y-62856212D01*
X160107783Y-62856200D01*
X160046739Y-62615143D01*
X159946849Y-62387418D01*
X159810842Y-62179242D01*
X159759740Y-62123731D01*
X159642420Y-61996287D01*
X159446185Y-61843551D01*
X159446183Y-61843550D01*
X159446182Y-61843549D01*
X159227487Y-61725197D01*
X159227478Y-61725194D01*
X158992292Y-61644454D01*
X158747011Y-61603525D01*
X158498341Y-61603525D01*
X158253059Y-61644454D01*
X158017873Y-61725194D01*
X158017864Y-61725197D01*
X157799169Y-61843549D01*
X157602933Y-61996286D01*
X157602932Y-61996287D01*
X157434512Y-62179240D01*
X157405532Y-62223598D01*
X157357349Y-62297347D01*
X157304202Y-62342703D01*
X157253540Y-62353525D01*
X157112968Y-62353525D01*
X157045929Y-62333840D01*
X157000174Y-62281036D01*
X156988968Y-62229525D01*
X156988968Y-61820393D01*
X156988968Y-61820390D01*
X156968492Y-61677975D01*
X156927985Y-61540020D01*
X156868215Y-61409142D01*
X156866910Y-61407112D01*
X156794091Y-61293802D01*
X156793270Y-61292360D01*
X156790479Y-61288180D01*
X156696260Y-61179448D01*
X156696257Y-61179445D01*
X156638221Y-61129157D01*
X156600446Y-61070379D01*
X156600446Y-61000510D01*
X156638220Y-60941731D01*
X156654326Y-60929905D01*
X156654999Y-60929491D01*
X156779055Y-60805435D01*
X156871157Y-60656113D01*
X156926342Y-60489576D01*
X156936843Y-60386788D01*
X156936842Y-59761771D01*
X156936759Y-59760963D01*
X156926342Y-59658982D01*
X156926340Y-59658977D01*
X156926074Y-59658175D01*
X156912996Y-59618709D01*
X156910594Y-59548881D01*
X156928004Y-59519624D01*
X156905612Y-59515169D01*
X156857555Y-59470393D01*
X156856096Y-59468028D01*
X156779055Y-59343123D01*
X156685392Y-59249460D01*
X156651907Y-59188137D01*
X156656891Y-59118445D01*
X156685392Y-59074098D01*
X156728959Y-59030531D01*
X156779055Y-58980435D01*
X156811652Y-58927585D01*
X156863600Y-58880862D01*
X156917191Y-58868683D01*
X156953100Y-58868683D01*
X157020139Y-58888368D01*
X157065894Y-58941172D01*
X157077100Y-58992683D01*
X157077100Y-59316059D01*
X157083508Y-59375673D01*
X157083772Y-59376788D01*
X157083724Y-59377678D01*
X157084337Y-59383379D01*
X157083412Y-59383478D01*
X157080028Y-59446558D01*
X157067432Y-59464021D01*
X157078304Y-59465205D01*
X157129968Y-59505392D01*
X157220054Y-59625730D01*
X157335263Y-59711976D01*
X157335270Y-59711980D01*
X157470116Y-59762274D01*
X157470115Y-59762274D01*
X157477043Y-59763018D01*
X157529726Y-59768683D01*
X159625471Y-59768682D01*
X159685082Y-59762274D01*
X159819930Y-59711979D01*
X159935145Y-59625729D01*
X160021395Y-59510514D01*
X160071690Y-59375666D01*
X160078099Y-59316056D01*
X160078098Y-58002306D01*
X160097783Y-57935269D01*
X160150586Y-57889514D01*
X160219745Y-57879570D01*
X160283301Y-57908595D01*
X160309485Y-57940308D01*
X160344677Y-58001263D01*
X160344681Y-58001268D01*
X160463549Y-58120136D01*
X160463555Y-58120141D01*
X160612552Y-58269138D01*
X160646037Y-58330461D01*
X160643849Y-58391752D01*
X160625653Y-58453724D01*
X160625651Y-58453731D01*
X160605177Y-58596138D01*
X160605177Y-59168030D01*
X160610321Y-59239967D01*
X160621280Y-59277290D01*
X160625040Y-59329869D01*
X160605177Y-59468026D01*
X160605177Y-60039917D01*
X160625651Y-60182324D01*
X160625653Y-60182332D01*
X160666160Y-60320287D01*
X160682127Y-60355249D01*
X160725929Y-60451164D01*
X160725930Y-60451166D01*
X160800053Y-60566504D01*
X160800873Y-60567945D01*
X160803665Y-60572126D01*
X160897884Y-60680858D01*
X160897887Y-60680861D01*
X161006541Y-60775009D01*
X161006544Y-60775012D01*
X161006546Y-60775013D01*
X161006547Y-60775014D01*
X161127583Y-60852798D01*
X161127591Y-60852802D01*
X161127600Y-60852807D01*
X161252319Y-60909764D01*
X161256617Y-60912012D01*
X161258368Y-60912526D01*
X161258369Y-60912527D01*
X161306035Y-60926523D01*
X161312158Y-60928321D01*
X161370935Y-60966096D01*
X161399960Y-61029652D01*
X161390016Y-61098810D01*
X161382761Y-61112394D01*
X161312404Y-61226460D01*
X161312400Y-61226469D01*
X161290765Y-61291761D01*
X161257216Y-61393004D01*
X161257216Y-61393005D01*
X161257215Y-61393005D01*
X161246715Y-61495784D01*
X161246715Y-62120802D01*
X161246716Y-62120820D01*
X161257215Y-62223597D01*
X161257216Y-62223600D01*
X161312400Y-62390132D01*
X161312402Y-62390137D01*
X161330824Y-62420004D01*
X161348418Y-62448529D01*
X161404504Y-62539458D01*
X161498519Y-62633473D01*
X161532004Y-62694796D01*
X161527020Y-62764488D01*
X161498520Y-62808835D01*
X161404897Y-62902458D01*
X161312858Y-63051676D01*
X161312856Y-63051681D01*
X161257709Y-63218103D01*
X161257708Y-63218110D01*
X161247215Y-63320814D01*
X161247215Y-63383301D01*
X165656646Y-63383301D01*
X165666594Y-63386222D01*
X167678153Y-63386222D01*
X167678153Y-63323750D01*
X167678152Y-63323735D01*
X167667659Y-63221024D01*
X167612512Y-63054602D01*
X167612510Y-63054597D01*
X167520469Y-62905376D01*
X167426849Y-62811756D01*
X167393364Y-62750433D01*
X167398348Y-62680741D01*
X167426845Y-62636398D01*
X167520866Y-62542378D01*
X167612968Y-62393056D01*
X167668153Y-62226519D01*
X167678654Y-62123731D01*
X167678653Y-61498714D01*
X167677349Y-61485953D01*
X167668153Y-61395925D01*
X167668152Y-61395922D01*
X167643022Y-61320085D01*
X167612968Y-61229388D01*
X167531329Y-61097030D01*
X167512890Y-61029639D01*
X167533813Y-60962976D01*
X167585357Y-60919141D01*
X167719566Y-60857849D01*
X167719566Y-60857848D01*
X167719579Y-60857843D01*
X167840615Y-60780059D01*
X167845577Y-60775760D01*
X167911750Y-60718421D01*
X167949276Y-60685905D01*
X167949279Y-60685902D01*
X168043500Y-60577164D01*
X168121232Y-60456210D01*
X168156447Y-60379099D01*
X168202201Y-60326296D01*
X168269240Y-60306611D01*
X168336279Y-60326295D01*
X168382035Y-60379098D01*
X168393241Y-60430611D01*
X168393241Y-61188103D01*
X168393242Y-61188109D01*
X168399649Y-61247716D01*
X168453044Y-61390874D01*
X168449798Y-61392084D01*
X168461104Y-61444101D01*
X168450916Y-61478798D01*
X168453044Y-61479592D01*
X168399649Y-61622750D01*
X168393242Y-61682349D01*
X168393242Y-61682356D01*
X168393241Y-61682368D01*
X168393241Y-63188103D01*
X168393242Y-63188109D01*
X168399649Y-63247716D01*
X168449943Y-63382561D01*
X168449947Y-63382568D01*
X168536193Y-63497777D01*
X168536196Y-63497780D01*
X168651405Y-63584026D01*
X168651412Y-63584030D01*
X168696359Y-63600794D01*
X168786258Y-63634324D01*
X168845868Y-63640733D01*
X168951660Y-63640732D01*
X169018699Y-63660416D01*
X169059047Y-63702732D01*
X169099323Y-63772493D01*
X169106225Y-63784447D01*
X169106227Y-63784450D01*
X169225095Y-63903318D01*
X169225101Y-63903323D01*
X171584132Y-66262354D01*
X171584153Y-66262377D01*
X171594976Y-66273200D01*
X171628461Y-66334523D01*
X171623477Y-66404215D01*
X171608871Y-66432003D01*
X171536821Y-66534903D01*
X171436992Y-66748987D01*
X171436989Y-66748993D01*
X171379786Y-66962479D01*
X171379786Y-66962480D01*
X172277410Y-66962480D01*
X172244497Y-67019487D01*
X172210422Y-67146654D01*
X172210422Y-67278306D01*
X172244497Y-67405473D01*
X172277410Y-67462480D01*
X171379786Y-67462480D01*
X171436989Y-67675966D01*
X171436992Y-67675972D01*
X171536821Y-67890058D01*
X171672316Y-68083562D01*
X171839339Y-68250585D01*
X172032843Y-68386080D01*
X172246929Y-68485909D01*
X172246938Y-68485913D01*
X172460422Y-68543114D01*
X172460422Y-67645492D01*
X172517429Y-67678405D01*
X172644596Y-67712480D01*
X172776248Y-67712480D01*
X172903415Y-67678405D01*
X172960422Y-67645492D01*
X172960422Y-68543113D01*
X173173905Y-68485913D01*
X173173914Y-68485909D01*
X173388000Y-68386080D01*
X173581504Y-68250585D01*
X173748527Y-68083562D01*
X173878541Y-67897885D01*
X173933118Y-67854261D01*
X174002617Y-67847068D01*
X174064971Y-67878590D01*
X174081691Y-67897885D01*
X174211927Y-68083881D01*
X174379021Y-68250975D01*
X174464259Y-68310659D01*
X174572587Y-68386512D01*
X174572589Y-68386513D01*
X174572592Y-68386515D01*
X174786759Y-68486383D01*
X175015014Y-68547543D01*
X175191456Y-68562980D01*
X175250421Y-68568139D01*
X175250422Y-68568139D01*
X175250423Y-68568139D01*
X175309388Y-68562980D01*
X175485830Y-68547543D01*
X175714085Y-68486383D01*
X175928252Y-68386515D01*
X176121823Y-68250975D01*
X176288917Y-68083881D01*
X176418847Y-67898322D01*
X176473424Y-67854697D01*
X176542922Y-67847503D01*
X176605277Y-67879026D01*
X176621997Y-67898322D01*
X176751703Y-68083562D01*
X176751927Y-68083881D01*
X176919021Y-68250975D01*
X177004259Y-68310659D01*
X177112587Y-68386512D01*
X177112589Y-68386513D01*
X177112592Y-68386515D01*
X177326759Y-68486383D01*
X177555014Y-68547543D01*
X177731456Y-68562980D01*
X177790421Y-68568139D01*
X177790422Y-68568139D01*
X177790423Y-68568139D01*
X177849388Y-68562980D01*
X178025830Y-68547543D01*
X178254085Y-68486383D01*
X178468252Y-68386515D01*
X178661823Y-68250975D01*
X178828917Y-68083881D01*
X178959152Y-67897885D01*
X179013729Y-67854261D01*
X179083227Y-67847067D01*
X179145582Y-67878590D01*
X179162301Y-67897885D01*
X179292312Y-68083558D01*
X179459339Y-68250585D01*
X179652843Y-68386080D01*
X179866929Y-68485909D01*
X179866938Y-68485913D01*
X180080422Y-68543114D01*
X180080422Y-67645492D01*
X180137429Y-67678405D01*
X180264596Y-67712480D01*
X180396248Y-67712480D01*
X180523415Y-67678405D01*
X180580422Y-67645492D01*
X180580422Y-68543113D01*
X180793905Y-68485913D01*
X180793914Y-68485909D01*
X181008000Y-68386080D01*
X181201504Y-68250585D01*
X181368527Y-68083562D01*
X181498541Y-67897885D01*
X181553118Y-67854261D01*
X181622617Y-67847068D01*
X181684971Y-67878590D01*
X181701691Y-67897885D01*
X181831927Y-68083881D01*
X181999021Y-68250975D01*
X182084259Y-68310659D01*
X182192587Y-68386512D01*
X182192589Y-68386513D01*
X182192592Y-68386515D01*
X182406759Y-68486383D01*
X182635014Y-68547543D01*
X182811456Y-68562980D01*
X182870421Y-68568139D01*
X182870422Y-68568139D01*
X182870423Y-68568139D01*
X182929388Y-68562980D01*
X183105830Y-68547543D01*
X183334085Y-68486383D01*
X183548252Y-68386515D01*
X183741823Y-68250975D01*
X183908917Y-68083881D01*
X184038847Y-67898322D01*
X184093424Y-67854697D01*
X184162922Y-67847503D01*
X184225277Y-67879026D01*
X184241997Y-67898322D01*
X184371703Y-68083562D01*
X184371927Y-68083881D01*
X184539021Y-68250975D01*
X184624259Y-68310659D01*
X184732587Y-68386512D01*
X184732589Y-68386513D01*
X184732592Y-68386515D01*
X184946759Y-68486383D01*
X185175014Y-68547543D01*
X185351456Y-68562980D01*
X185410421Y-68568139D01*
X185410422Y-68568139D01*
X185410423Y-68568139D01*
X185469388Y-68562980D01*
X185645830Y-68547543D01*
X185874085Y-68486383D01*
X186088252Y-68386515D01*
X186281823Y-68250975D01*
X186448917Y-68083881D01*
X186579152Y-67897885D01*
X186633729Y-67854261D01*
X186703227Y-67847067D01*
X186765582Y-67878590D01*
X186782301Y-67897885D01*
X186912312Y-68083558D01*
X187079339Y-68250585D01*
X187272843Y-68386080D01*
X187486929Y-68485909D01*
X187486938Y-68485913D01*
X187700422Y-68543114D01*
X187700422Y-67645492D01*
X187757429Y-67678405D01*
X187884596Y-67712480D01*
X188016248Y-67712480D01*
X188143415Y-67678405D01*
X188200422Y-67645492D01*
X188200422Y-68543113D01*
X188413905Y-68485913D01*
X188413914Y-68485909D01*
X188628000Y-68386080D01*
X188821504Y-68250585D01*
X188988527Y-68083562D01*
X189118541Y-67897885D01*
X189173118Y-67854261D01*
X189242617Y-67847068D01*
X189304971Y-67878590D01*
X189321691Y-67897885D01*
X189451927Y-68083881D01*
X189619021Y-68250975D01*
X189704259Y-68310659D01*
X189812587Y-68386512D01*
X189812589Y-68386513D01*
X189812592Y-68386515D01*
X190026759Y-68486383D01*
X190255014Y-68547543D01*
X190431456Y-68562980D01*
X190490421Y-68568139D01*
X190490422Y-68568139D01*
X190490423Y-68568139D01*
X190549388Y-68562980D01*
X190725830Y-68547543D01*
X190954085Y-68486383D01*
X191168252Y-68386515D01*
X191361823Y-68250975D01*
X191528917Y-68083881D01*
X191658847Y-67898322D01*
X191713424Y-67854697D01*
X191782922Y-67847503D01*
X191845277Y-67879026D01*
X191861997Y-67898322D01*
X191991703Y-68083562D01*
X191991927Y-68083881D01*
X192159021Y-68250975D01*
X192244259Y-68310659D01*
X192352587Y-68386512D01*
X192352589Y-68386513D01*
X192352592Y-68386515D01*
X192566759Y-68486383D01*
X192795014Y-68547543D01*
X192971456Y-68562980D01*
X193030421Y-68568139D01*
X193030422Y-68568139D01*
X193030423Y-68568139D01*
X193089388Y-68562980D01*
X193265830Y-68547543D01*
X193494085Y-68486383D01*
X193708252Y-68386515D01*
X193901823Y-68250975D01*
X194068917Y-68083881D01*
X194199152Y-67897885D01*
X194253729Y-67854261D01*
X194323227Y-67847067D01*
X194385582Y-67878590D01*
X194402301Y-67897885D01*
X194532312Y-68083558D01*
X194699339Y-68250585D01*
X194892843Y-68386080D01*
X195106929Y-68485909D01*
X195106938Y-68485913D01*
X195320422Y-68543114D01*
X195320422Y-67645492D01*
X195377429Y-67678405D01*
X195504596Y-67712480D01*
X195636248Y-67712480D01*
X195763415Y-67678405D01*
X195820422Y-67645492D01*
X195820422Y-68543113D01*
X196033905Y-68485913D01*
X196033914Y-68485909D01*
X196248000Y-68386080D01*
X196441504Y-68250585D01*
X196608527Y-68083562D01*
X196738541Y-67897885D01*
X196793118Y-67854261D01*
X196862617Y-67847068D01*
X196924971Y-67878590D01*
X196941691Y-67897885D01*
X197071927Y-68083881D01*
X197239021Y-68250975D01*
X197324259Y-68310659D01*
X197432587Y-68386512D01*
X197432589Y-68386513D01*
X197432592Y-68386515D01*
X197646759Y-68486383D01*
X197875014Y-68547543D01*
X198051456Y-68562980D01*
X198110421Y-68568139D01*
X198110422Y-68568139D01*
X198110423Y-68568139D01*
X198169388Y-68562980D01*
X198345830Y-68547543D01*
X198574085Y-68486383D01*
X198788252Y-68386515D01*
X198981823Y-68250975D01*
X199148917Y-68083881D01*
X199278847Y-67898322D01*
X199333424Y-67854697D01*
X199402922Y-67847503D01*
X199465277Y-67879026D01*
X199481997Y-67898322D01*
X199611703Y-68083562D01*
X199611927Y-68083881D01*
X199779021Y-68250975D01*
X199864259Y-68310659D01*
X199972587Y-68386512D01*
X199972589Y-68386513D01*
X199972592Y-68386515D01*
X200186759Y-68486383D01*
X200415014Y-68547543D01*
X200591456Y-68562980D01*
X200650421Y-68568139D01*
X200650422Y-68568139D01*
X200650423Y-68568139D01*
X200709388Y-68562980D01*
X200885830Y-68547543D01*
X201114085Y-68486383D01*
X201328252Y-68386515D01*
X201521823Y-68250975D01*
X201688917Y-68083881D01*
X201819152Y-67897885D01*
X201873729Y-67854261D01*
X201943227Y-67847067D01*
X202005582Y-67878590D01*
X202022301Y-67897885D01*
X202152312Y-68083558D01*
X202319339Y-68250585D01*
X202512843Y-68386080D01*
X202726929Y-68485909D01*
X202726938Y-68485913D01*
X202940422Y-68543114D01*
X202940422Y-67645492D01*
X202997429Y-67678405D01*
X203124596Y-67712480D01*
X203256248Y-67712480D01*
X203383415Y-67678405D01*
X203440422Y-67645492D01*
X203440422Y-68543113D01*
X203653905Y-68485913D01*
X203653914Y-68485909D01*
X203868000Y-68386080D01*
X204061500Y-68250588D01*
X204183555Y-68128533D01*
X204244878Y-68095048D01*
X204314570Y-68100032D01*
X204370504Y-68141903D01*
X204387419Y-68172881D01*
X204436624Y-68304808D01*
X204436628Y-68304815D01*
X204522874Y-68420024D01*
X204522877Y-68420027D01*
X204638086Y-68506273D01*
X204638093Y-68506277D01*
X204772939Y-68556571D01*
X204772938Y-68556571D01*
X204779866Y-68557315D01*
X204832549Y-68562980D01*
X206628294Y-68562979D01*
X206687905Y-68556571D01*
X206822753Y-68506276D01*
X206937968Y-68420026D01*
X207024218Y-68304811D01*
X207074513Y-68169963D01*
X207080922Y-68110353D01*
X207080921Y-66314608D01*
X207074513Y-66254997D01*
X207074290Y-66254400D01*
X207024219Y-66120151D01*
X207024215Y-66120144D01*
X206937969Y-66004935D01*
X206937966Y-66004932D01*
X206822757Y-65918686D01*
X206822750Y-65918682D01*
X206691339Y-65869669D01*
X206635405Y-65827798D01*
X206610988Y-65762333D01*
X206625840Y-65694060D01*
X206646985Y-65665812D01*
X206768917Y-65543881D01*
X206904457Y-65350310D01*
X207004325Y-65136143D01*
X207065485Y-64907888D01*
X207086081Y-64672480D01*
X207065485Y-64437072D01*
X207004325Y-64208817D01*
X206904457Y-63994651D01*
X206898847Y-63986638D01*
X206768916Y-63801077D01*
X206601824Y-63633986D01*
X206601817Y-63633981D01*
X206408256Y-63498447D01*
X206408252Y-63498445D01*
X206359810Y-63475856D01*
X206267030Y-63432592D01*
X210532222Y-63432592D01*
X210532222Y-63495078D01*
X210542715Y-63597789D01*
X210597862Y-63764211D01*
X210597864Y-63764216D01*
X210689905Y-63913437D01*
X210813875Y-64037407D01*
X210963096Y-64129448D01*
X210963101Y-64129450D01*
X211129523Y-64184597D01*
X211129530Y-64184598D01*
X211232240Y-64195091D01*
X211482220Y-64195091D01*
X211982221Y-64195091D01*
X212232193Y-64195091D01*
X212232207Y-64195090D01*
X212334918Y-64184597D01*
X212501340Y-64129450D01*
X212501351Y-64129445D01*
X212654789Y-64034803D01*
X212722181Y-64016362D01*
X212784983Y-64034803D01*
X212933205Y-64126228D01*
X212933216Y-64126233D01*
X213099638Y-64181380D01*
X213099645Y-64181381D01*
X213202355Y-64191874D01*
X213452335Y-64191874D01*
X213452336Y-64191873D01*
X213452336Y-63429375D01*
X213952336Y-63429375D01*
X213952336Y-64191874D01*
X214202308Y-64191874D01*
X214202322Y-64191873D01*
X214305033Y-64181380D01*
X214471455Y-64126233D01*
X214471466Y-64126228D01*
X214617560Y-64036116D01*
X214684952Y-64017675D01*
X214747754Y-64036115D01*
X214893854Y-64126231D01*
X214893859Y-64126233D01*
X215060281Y-64181380D01*
X215060288Y-64181381D01*
X215162998Y-64191874D01*
X215412978Y-64191874D01*
X215412979Y-64191873D01*
X215412979Y-63429375D01*
X215912979Y-63429375D01*
X215912979Y-64191874D01*
X216162951Y-64191874D01*
X216162965Y-64191873D01*
X216265676Y-64181380D01*
X216432098Y-64126233D01*
X216432103Y-64126231D01*
X216581324Y-64034190D01*
X216705294Y-63910220D01*
X216797335Y-63760999D01*
X216797337Y-63760994D01*
X216852484Y-63594572D01*
X216852485Y-63594565D01*
X216862978Y-63491861D01*
X216862979Y-63491848D01*
X216862979Y-63429375D01*
X215912979Y-63429375D01*
X215412979Y-63429375D01*
X213952336Y-63429375D01*
X213452336Y-63429375D01*
X212947701Y-63429375D01*
X212947000Y-63429758D01*
X212920642Y-63432592D01*
X211982221Y-63432592D01*
X211982221Y-64195091D01*
X211482220Y-64195091D01*
X211482221Y-64195090D01*
X211482221Y-63432592D01*
X210532222Y-63432592D01*
X206267030Y-63432592D01*
X206194085Y-63398577D01*
X206194081Y-63398576D01*
X206194077Y-63398574D01*
X205965835Y-63337418D01*
X205965825Y-63337416D01*
X205730423Y-63316821D01*
X205730421Y-63316821D01*
X205495018Y-63337416D01*
X205495008Y-63337418D01*
X205266766Y-63398574D01*
X205266757Y-63398578D01*
X205052593Y-63498444D01*
X205052591Y-63498445D01*
X204859019Y-63633985D01*
X204691927Y-63801077D01*
X204561997Y-63986638D01*
X204507420Y-64030263D01*
X204437922Y-64037457D01*
X204375567Y-64005934D01*
X204358847Y-63986638D01*
X204228916Y-63801077D01*
X204061824Y-63633986D01*
X204061817Y-63633981D01*
X203868256Y-63498447D01*
X203868252Y-63498445D01*
X203819810Y-63475856D01*
X203654085Y-63398577D01*
X203654082Y-63398576D01*
X203654080Y-63398575D01*
X203541755Y-63368478D01*
X203482095Y-63332113D01*
X203451566Y-63269266D01*
X203459861Y-63199890D01*
X203486165Y-63161025D01*
X204264969Y-62382221D01*
X204326290Y-62348738D01*
X204395982Y-62353722D01*
X204426952Y-62370633D01*
X204470894Y-62403528D01*
X204470897Y-62403529D01*
X204470896Y-62403529D01*
X204605742Y-62453823D01*
X204605741Y-62453823D01*
X204612669Y-62454567D01*
X204665352Y-62460232D01*
X206171097Y-62460231D01*
X206230708Y-62453823D01*
X206365556Y-62403528D01*
X206365558Y-62403526D01*
X206373865Y-62400428D01*
X206375080Y-62403685D01*
X206427000Y-62392360D01*
X206461784Y-62402573D01*
X206462585Y-62400428D01*
X206470891Y-62403526D01*
X206470894Y-62403528D01*
X206605742Y-62453823D01*
X206665352Y-62460232D01*
X208171097Y-62460231D01*
X208230708Y-62453823D01*
X208365556Y-62403528D01*
X208480771Y-62317278D01*
X208567021Y-62202063D01*
X208617316Y-62067215D01*
X208623725Y-62007605D01*
X208623724Y-60926522D01*
X208643409Y-60859484D01*
X208660038Y-60838847D01*
X209771592Y-59727294D01*
X209832911Y-59693812D01*
X209902603Y-59698796D01*
X209958536Y-59740668D01*
X209978246Y-59780042D01*
X210001876Y-59860518D01*
X210061645Y-59991395D01*
X210061646Y-59991397D01*
X210135769Y-60106735D01*
X210136589Y-60108176D01*
X210139381Y-60112357D01*
X210233600Y-60221089D01*
X210233603Y-60221092D01*
X210342257Y-60315240D01*
X210342260Y-60315243D01*
X210342262Y-60315244D01*
X210342263Y-60315245D01*
X210463299Y-60393029D01*
X210463307Y-60393033D01*
X210463316Y-60393038D01*
X210588035Y-60449995D01*
X210592335Y-60452244D01*
X210609669Y-60457334D01*
X210668448Y-60495108D01*
X210697473Y-60558664D01*
X210687530Y-60627822D01*
X210680274Y-60641407D01*
X210597410Y-60775751D01*
X210597406Y-60775760D01*
X210577403Y-60836127D01*
X210542222Y-60942295D01*
X210542222Y-60942296D01*
X210542221Y-60942296D01*
X210531721Y-61045075D01*
X210531721Y-61670093D01*
X210531722Y-61670111D01*
X210542221Y-61772888D01*
X210542222Y-61772891D01*
X210572538Y-61864377D01*
X210597407Y-61939426D01*
X210680826Y-62074671D01*
X210689510Y-62088749D01*
X210783525Y-62182764D01*
X210817010Y-62244087D01*
X210812026Y-62313779D01*
X210783526Y-62358126D01*
X210689903Y-62451749D01*
X210597864Y-62600967D01*
X210597862Y-62600972D01*
X210542715Y-62767394D01*
X210542714Y-62767401D01*
X210532221Y-62870105D01*
X210532221Y-62932592D01*
X212486856Y-62932592D01*
X212487557Y-62932209D01*
X212513915Y-62929375D01*
X216862978Y-62929375D01*
X216862978Y-62866903D01*
X216862977Y-62866888D01*
X216852484Y-62764177D01*
X216797337Y-62597755D01*
X216797335Y-62597750D01*
X216705294Y-62448529D01*
X216611674Y-62354909D01*
X216578189Y-62293586D01*
X216583173Y-62223894D01*
X216611670Y-62179551D01*
X216705691Y-62085531D01*
X216797793Y-61936209D01*
X216852978Y-61769672D01*
X216863479Y-61666884D01*
X216863478Y-61041867D01*
X216862288Y-61030221D01*
X216852978Y-60939078D01*
X216852977Y-60939075D01*
X216849801Y-60929490D01*
X216797793Y-60772541D01*
X216728501Y-60660200D01*
X216710062Y-60592810D01*
X216730985Y-60526147D01*
X216784627Y-60481377D01*
X216799097Y-60476131D01*
X216878702Y-60452757D01*
X217009487Y-60393029D01*
X217130523Y-60315245D01*
X217130811Y-60314996D01*
X217160953Y-60288878D01*
X217239184Y-60221091D01*
X217239187Y-60221088D01*
X217333408Y-60112350D01*
X217411140Y-59991396D01*
X217470910Y-59860518D01*
X217511417Y-59722563D01*
X217531893Y-59580148D01*
X217531893Y-59008259D01*
X217526748Y-58936319D01*
X217515789Y-58898999D01*
X217512029Y-58846417D01*
X217512679Y-58841894D01*
X217531893Y-58708259D01*
X217531893Y-58136370D01*
X217512618Y-58002308D01*
X217511418Y-57993961D01*
X217511417Y-57993959D01*
X217511417Y-57993955D01*
X217493221Y-57931985D01*
X217493221Y-57862116D01*
X217524517Y-57809369D01*
X217787939Y-57545948D01*
X218401338Y-56932549D01*
X218696081Y-56637807D01*
X218757404Y-56604322D01*
X218783762Y-56601488D01*
X219074717Y-56601488D01*
X219074721Y-56601489D01*
X219232836Y-56601488D01*
X219385563Y-56560565D01*
X219436457Y-56531181D01*
X219522494Y-56481508D01*
X219634298Y-56369704D01*
X219634298Y-56369702D01*
X219644502Y-56359499D01*
X219644506Y-56359494D01*
X219987003Y-56016997D01*
X220048326Y-55983512D01*
X220074684Y-55980678D01*
X221171129Y-55980678D01*
X221171130Y-55980678D01*
X221230741Y-55974270D01*
X221365589Y-55923975D01*
X221480804Y-55837725D01*
X221567054Y-55722510D01*
X221617349Y-55587662D01*
X221623758Y-55528052D01*
X221623757Y-53632307D01*
X221617349Y-53572696D01*
X221615584Y-53567965D01*
X221567055Y-53437850D01*
X221567051Y-53437843D01*
X221480805Y-53322634D01*
X221480802Y-53322631D01*
X221365593Y-53236385D01*
X221365586Y-53236381D01*
X221230740Y-53186087D01*
X221230741Y-53186087D01*
X221171141Y-53179680D01*
X221171139Y-53179679D01*
X221171131Y-53179679D01*
X221171122Y-53179679D01*
X219275387Y-53179679D01*
X219275381Y-53179680D01*
X219215774Y-53186087D01*
X219080929Y-53236381D01*
X219080922Y-53236385D01*
X218965713Y-53322631D01*
X218965710Y-53322634D01*
X218879464Y-53437843D01*
X218879461Y-53437849D01*
X218850802Y-53514687D01*
X218808930Y-53570620D01*
X218743466Y-53595037D01*
X218675193Y-53580185D01*
X218643393Y-53555337D01*
X218635042Y-53546266D01*
X218635036Y-53546261D01*
X218635035Y-53546260D01*
X218451892Y-53403714D01*
X218451886Y-53403710D01*
X218247762Y-53293243D01*
X218247753Y-53293240D01*
X218028242Y-53217881D01*
X217804622Y-53180566D01*
X217799307Y-53179679D01*
X217567209Y-53179679D01*
X217561894Y-53180566D01*
X217338273Y-53217881D01*
X217118762Y-53293240D01*
X217118753Y-53293243D01*
X216914629Y-53403710D01*
X216914623Y-53403714D01*
X216731480Y-53546260D01*
X216731477Y-53546263D01*
X216731474Y-53546265D01*
X216731474Y-53546266D01*
X216696089Y-53584705D01*
X216574274Y-53717031D01*
X216447333Y-53911330D01*
X216354100Y-54123878D01*
X216297124Y-54348870D01*
X216297122Y-54348881D01*
X216277958Y-54580172D01*
X216277958Y-54580185D01*
X216297122Y-54811476D01*
X216297124Y-54811487D01*
X216354100Y-55036479D01*
X216447333Y-55249027D01*
X216574274Y-55443326D01*
X216574277Y-55443330D01*
X216574279Y-55443332D01*
X216731474Y-55614092D01*
X216731477Y-55614094D01*
X216731480Y-55614097D01*
X216914623Y-55756643D01*
X216914629Y-55756647D01*
X216914632Y-55756649D01*
X217118755Y-55867115D01*
X217338277Y-55942477D01*
X217404608Y-55953545D01*
X217467493Y-55983995D01*
X217503933Y-56043609D01*
X217502359Y-56113461D01*
X217471880Y-56163535D01*
X216468977Y-57166440D01*
X216407654Y-57199925D01*
X216381296Y-57202759D01*
X216010820Y-57202759D01*
X216010792Y-57202762D01*
X215954452Y-57202762D01*
X215820914Y-57221962D01*
X215820912Y-57221962D01*
X215812137Y-57223223D01*
X215674079Y-57263762D01*
X215543311Y-57323482D01*
X215543301Y-57323487D01*
X215543299Y-57323489D01*
X215522932Y-57336578D01*
X215422260Y-57401274D01*
X215422256Y-57401277D01*
X215313619Y-57495411D01*
X215313600Y-57495428D01*
X215313583Y-57495447D01*
X215253350Y-57564961D01*
X215194572Y-57602736D01*
X215159637Y-57607759D01*
X214853150Y-57607759D01*
X214786111Y-57588074D01*
X214759438Y-57564963D01*
X214740998Y-57543683D01*
X214699184Y-57495427D01*
X214630983Y-57436331D01*
X214590528Y-57401277D01*
X214590525Y-57401274D01*
X214561386Y-57382548D01*
X214469487Y-57323489D01*
X214447378Y-57313392D01*
X214409380Y-57296038D01*
X214356577Y-57250282D01*
X214336893Y-57183244D01*
X214336893Y-56257081D01*
X214356578Y-56190042D01*
X214409382Y-56144287D01*
X214460893Y-56133081D01*
X214600719Y-56133081D01*
X214600720Y-56133081D01*
X214660331Y-56126673D01*
X214795179Y-56076378D01*
X214910394Y-55990128D01*
X214996644Y-55874913D01*
X215046939Y-55740065D01*
X215053348Y-55680455D01*
X215053347Y-53584710D01*
X215046939Y-53525099D01*
X215040996Y-53509166D01*
X214996645Y-53390253D01*
X214996641Y-53390246D01*
X214910395Y-53275037D01*
X214910392Y-53275034D01*
X214795183Y-53188788D01*
X214795176Y-53188784D01*
X214660330Y-53138490D01*
X214660331Y-53138490D01*
X214600731Y-53132083D01*
X214600729Y-53132082D01*
X214600721Y-53132082D01*
X214600713Y-53132082D01*
X213382880Y-53132082D01*
X213315841Y-53112397D01*
X213270086Y-53059593D01*
X213260142Y-52990435D01*
X213289167Y-52926879D01*
X213308569Y-52908815D01*
X213353201Y-52875403D01*
X213439360Y-52760310D01*
X213439364Y-52760303D01*
X213489606Y-52625596D01*
X213489608Y-52625589D01*
X213496009Y-52566061D01*
X213496010Y-52566044D01*
X213496010Y-52418217D01*
X212245010Y-52418217D01*
X212177971Y-52398532D01*
X212132216Y-52345728D01*
X212121010Y-52294217D01*
X212121010Y-52042217D01*
X212140695Y-51975178D01*
X212193499Y-51929423D01*
X212245010Y-51918217D01*
X213337113Y-51918217D01*
X213404152Y-51937902D01*
X213411413Y-51942943D01*
X213503675Y-52012010D01*
X213503678Y-52012012D01*
X213503681Y-52012014D01*
X213638527Y-52062308D01*
X213638526Y-52062308D01*
X213645454Y-52063052D01*
X213698137Y-52068717D01*
X215043882Y-52068716D01*
X215103493Y-52062308D01*
X215238341Y-52012013D01*
X215353556Y-51925763D01*
X215383091Y-51886310D01*
X215396495Y-51868405D01*
X215452429Y-51826535D01*
X215495761Y-51818717D01*
X220483866Y-51818717D01*
X220550905Y-51838402D01*
X220571547Y-51855036D01*
X222766199Y-54049688D01*
X222799684Y-54111011D01*
X222798724Y-54167809D01*
X222754270Y-54343349D01*
X222754268Y-54343360D01*
X222735104Y-54574651D01*
X222735104Y-54574664D01*
X222754268Y-54805955D01*
X222754270Y-54805966D01*
X222811246Y-55030958D01*
X222904479Y-55243506D01*
X223031420Y-55437805D01*
X223031423Y-55437809D01*
X223031425Y-55437811D01*
X223188620Y-55608571D01*
X223188623Y-55608573D01*
X223188626Y-55608576D01*
X223371769Y-55751122D01*
X223371775Y-55751126D01*
X223371778Y-55751128D01*
X223492715Y-55816576D01*
X223554436Y-55849978D01*
X223575901Y-55861594D01*
X223676833Y-55896244D01*
X223795419Y-55936955D01*
X223795421Y-55936955D01*
X223795423Y-55936956D01*
X224024355Y-55975158D01*
X224024356Y-55975158D01*
X224256452Y-55975158D01*
X224256453Y-55975158D01*
X224485385Y-55936956D01*
X224704907Y-55861594D01*
X224909030Y-55751128D01*
X224913670Y-55747517D01*
X224996010Y-55683429D01*
X225092188Y-55608571D01*
X225100534Y-55599504D01*
X225160414Y-55563512D01*
X225230253Y-55565607D01*
X225287872Y-55605127D01*
X225307948Y-55640149D01*
X225336607Y-55716988D01*
X225336610Y-55716993D01*
X225422856Y-55832202D01*
X225422859Y-55832205D01*
X225538068Y-55918451D01*
X225538075Y-55918455D01*
X225583022Y-55935219D01*
X225672921Y-55968749D01*
X225732531Y-55975158D01*
X225856046Y-55975157D01*
X225923084Y-55994841D01*
X225968839Y-56047645D01*
X225978783Y-56116803D01*
X225949759Y-56180359D01*
X225943726Y-56186838D01*
X225094225Y-57036339D01*
X225032902Y-57069824D01*
X225006544Y-57072658D01*
X224394141Y-57072658D01*
X224394123Y-57072659D01*
X224291346Y-57083158D01*
X224291343Y-57083159D01*
X224124811Y-57138343D01*
X224124806Y-57138345D01*
X223975485Y-57230447D01*
X223851432Y-57354500D01*
X223851431Y-57354502D01*
X223813935Y-57415294D01*
X223807174Y-57426255D01*
X223755226Y-57472979D01*
X223701635Y-57485158D01*
X223487032Y-57485158D01*
X223419993Y-57465473D01*
X223381494Y-57426255D01*
X223364361Y-57398479D01*
X223364358Y-57398475D01*
X223240304Y-57274421D01*
X223240303Y-57274420D01*
X223123142Y-57202155D01*
X223090983Y-57182319D01*
X223090978Y-57182317D01*
X223089509Y-57181830D01*
X222924444Y-57127133D01*
X222924442Y-57127132D01*
X222821657Y-57116632D01*
X221821645Y-57116632D01*
X221821627Y-57116633D01*
X221718850Y-57127132D01*
X221718847Y-57127133D01*
X221552315Y-57182317D01*
X221552310Y-57182319D01*
X221402989Y-57274421D01*
X221278936Y-57398474D01*
X221268562Y-57415294D01*
X221216614Y-57462019D01*
X221163023Y-57474197D01*
X220941659Y-57474197D01*
X220874620Y-57454512D01*
X220836120Y-57415294D01*
X220791863Y-57343541D01*
X220667807Y-57219485D01*
X220552556Y-57148398D01*
X220518487Y-57127384D01*
X220518482Y-57127382D01*
X220517013Y-57126895D01*
X220351948Y-57072198D01*
X220351946Y-57072197D01*
X220249161Y-57061697D01*
X219249149Y-57061697D01*
X219249131Y-57061698D01*
X219146354Y-57072197D01*
X219146351Y-57072198D01*
X218979819Y-57127382D01*
X218979814Y-57127384D01*
X218830493Y-57219486D01*
X218706440Y-57343539D01*
X218614338Y-57492860D01*
X218614336Y-57492865D01*
X218597686Y-57543113D01*
X218559152Y-57659400D01*
X218559152Y-57659401D01*
X218559151Y-57659401D01*
X218548651Y-57762180D01*
X218548651Y-58387198D01*
X218548652Y-58387216D01*
X218559151Y-58489993D01*
X218559152Y-58489996D01*
X218614336Y-58656528D01*
X218614338Y-58656533D01*
X218638464Y-58695648D01*
X218695884Y-58788741D01*
X218706440Y-58805854D01*
X218800102Y-58899516D01*
X218833587Y-58960839D01*
X218828603Y-59030531D01*
X218800102Y-59074878D01*
X218706440Y-59168539D01*
X218614338Y-59317860D01*
X218614336Y-59317865D01*
X218596171Y-59372685D01*
X218559152Y-59484400D01*
X218559152Y-59484401D01*
X218559151Y-59484401D01*
X218548651Y-59587180D01*
X218548651Y-60212198D01*
X218548652Y-60212216D01*
X218559151Y-60314993D01*
X218559152Y-60314996D01*
X218614336Y-60481528D01*
X218614338Y-60481533D01*
X218618800Y-60488767D01*
X218706439Y-60630853D01*
X218830495Y-60754909D01*
X218939748Y-60822296D01*
X218986472Y-60874244D01*
X218998651Y-60927835D01*
X218998651Y-60957821D01*
X218978966Y-61024860D01*
X218941691Y-61062136D01*
X218918337Y-61077145D01*
X218895021Y-61092129D01*
X218863629Y-61119330D01*
X218786361Y-61186282D01*
X218786358Y-61186284D01*
X218786356Y-61186287D01*
X218784781Y-61188105D01*
X218692136Y-61295024D01*
X218692134Y-61295026D01*
X218692134Y-61295027D01*
X218692132Y-61295030D01*
X218614406Y-61415972D01*
X218614403Y-61415978D01*
X218554634Y-61546856D01*
X218514128Y-61684806D01*
X218514125Y-61684818D01*
X218493651Y-61827225D01*
X218493651Y-62399117D01*
X218498795Y-62471054D01*
X218509754Y-62508377D01*
X218513514Y-62560956D01*
X218493651Y-62699113D01*
X218493651Y-63271004D01*
X218514125Y-63413411D01*
X218514128Y-63413423D01*
X218519757Y-63432592D01*
X218554634Y-63551374D01*
X218558624Y-63560110D01*
X218614403Y-63682251D01*
X218614404Y-63682253D01*
X218688527Y-63797591D01*
X218689347Y-63799032D01*
X218692139Y-63803213D01*
X218786358Y-63911945D01*
X218786361Y-63911948D01*
X218895015Y-64006096D01*
X218895018Y-64006099D01*
X218895020Y-64006100D01*
X218895021Y-64006101D01*
X219016057Y-64083885D01*
X219016065Y-64083889D01*
X219016074Y-64083894D01*
X219140793Y-64140851D01*
X219145092Y-64143100D01*
X219146843Y-64143614D01*
X219284895Y-64184150D01*
X219284896Y-64184150D01*
X219284899Y-64184151D01*
X219324191Y-64189800D01*
X219427210Y-64204612D01*
X219483550Y-64204612D01*
X219483560Y-64204615D01*
X219534915Y-64204615D01*
X220014724Y-64204615D01*
X220014752Y-64204612D01*
X220071091Y-64204612D01*
X220071092Y-64204612D01*
X220204630Y-64185412D01*
X220204632Y-64185412D01*
X220210763Y-64184530D01*
X220213407Y-64184150D01*
X220213408Y-64184150D01*
X220351460Y-64143613D01*
X220482245Y-64083885D01*
X220603281Y-64006101D01*
X220633517Y-63979901D01*
X220697072Y-63950877D01*
X220714719Y-63949615D01*
X221356079Y-63949615D01*
X221423118Y-63969300D01*
X221437277Y-63979898D01*
X221467517Y-64006101D01*
X221588553Y-64083885D01*
X221588561Y-64083889D01*
X221588570Y-64083894D01*
X221713289Y-64140851D01*
X221717588Y-64143100D01*
X221719339Y-64143614D01*
X221857391Y-64184150D01*
X221857392Y-64184150D01*
X221857395Y-64184151D01*
X221896687Y-64189800D01*
X221999706Y-64204612D01*
X222056046Y-64204612D01*
X222056056Y-64204615D01*
X222107411Y-64204615D01*
X222587220Y-64204615D01*
X222587248Y-64204612D01*
X222643587Y-64204612D01*
X222643588Y-64204612D01*
X222777126Y-64185412D01*
X222777128Y-64185412D01*
X222783259Y-64184530D01*
X222785903Y-64184150D01*
X222785904Y-64184150D01*
X222923956Y-64143613D01*
X223054741Y-64083885D01*
X223175777Y-64006101D01*
X223206013Y-63979901D01*
X223269568Y-63950877D01*
X223287215Y-63949615D01*
X223899159Y-63949615D01*
X223966198Y-63969300D01*
X223980361Y-63979902D01*
X224034698Y-64026985D01*
X224034702Y-64026988D01*
X224034704Y-64026989D01*
X224034705Y-64026990D01*
X224155741Y-64104774D01*
X224155749Y-64104778D01*
X224155758Y-64104783D01*
X224280477Y-64161740D01*
X224284776Y-64163989D01*
X224318537Y-64173902D01*
X224424579Y-64205039D01*
X224424580Y-64205039D01*
X224424583Y-64205040D01*
X224467018Y-64211140D01*
X224566894Y-64225501D01*
X224623234Y-64225501D01*
X224623244Y-64225504D01*
X224674599Y-64225504D01*
X225154408Y-64225504D01*
X225154436Y-64225501D01*
X225210775Y-64225501D01*
X225210776Y-64225501D01*
X225344314Y-64206301D01*
X225344316Y-64206301D01*
X225350447Y-64205419D01*
X225353091Y-64205039D01*
X225353092Y-64205039D01*
X225491144Y-64164502D01*
X225587023Y-64120714D01*
X225621916Y-64104780D01*
X225621916Y-64104779D01*
X225621929Y-64104774D01*
X225742965Y-64026990D01*
X225773201Y-64000790D01*
X225836756Y-63971766D01*
X225854403Y-63970504D01*
X226545261Y-63970504D01*
X226612300Y-63990189D01*
X226621422Y-63996650D01*
X226633566Y-64006101D01*
X226634594Y-64006901D01*
X226853293Y-64125255D01*
X227024842Y-64184148D01*
X227085695Y-64205039D01*
X227088489Y-64205998D01*
X227333768Y-64246927D01*
X227582438Y-64246927D01*
X227827717Y-64205998D01*
X228062913Y-64125255D01*
X228281612Y-64006901D01*
X228477847Y-63854165D01*
X228646267Y-63671212D01*
X228782276Y-63463034D01*
X228882166Y-63235308D01*
X228943211Y-62994248D01*
X228944312Y-62980962D01*
X228963746Y-62746432D01*
X228963746Y-62746421D01*
X228943212Y-62498614D01*
X228943210Y-62498602D01*
X228882166Y-62257545D01*
X228782276Y-62029820D01*
X228646269Y-61821644D01*
X228621225Y-61794439D01*
X228477847Y-61638689D01*
X228281612Y-61485953D01*
X228281610Y-61485952D01*
X228281609Y-61485951D01*
X228062914Y-61367599D01*
X228062905Y-61367596D01*
X227827719Y-61286856D01*
X227582438Y-61245927D01*
X227333768Y-61245927D01*
X227088486Y-61286856D01*
X226853300Y-61367596D01*
X226853291Y-61367599D01*
X226634596Y-61485951D01*
X226438358Y-61638689D01*
X226438355Y-61638692D01*
X226333449Y-61752650D01*
X226273562Y-61788641D01*
X226203724Y-61786540D01*
X226146108Y-61747016D01*
X226123243Y-61703602D01*
X226118960Y-61689015D01*
X226083352Y-61567745D01*
X226023582Y-61436867D01*
X226005771Y-61409153D01*
X225949458Y-61321527D01*
X225948637Y-61320085D01*
X225945846Y-61315905D01*
X225868339Y-61226460D01*
X225851626Y-61207172D01*
X225742965Y-61113018D01*
X225696294Y-61083024D01*
X225650541Y-61030221D01*
X225639335Y-60978710D01*
X225639335Y-60942070D01*
X225659020Y-60875031D01*
X225698236Y-60836531D01*
X225812799Y-60765870D01*
X225936855Y-60641814D01*
X226028957Y-60492492D01*
X226084142Y-60325955D01*
X226094643Y-60223167D01*
X226094642Y-59976912D01*
X226114326Y-59909875D01*
X226167130Y-59864120D01*
X226236289Y-59854176D01*
X226292955Y-59877649D01*
X226306589Y-59887856D01*
X226306593Y-59887858D01*
X226441439Y-59938152D01*
X226441438Y-59938152D01*
X226448366Y-59938896D01*
X226501049Y-59944561D01*
X228596794Y-59944560D01*
X228656405Y-59938152D01*
X228791253Y-59887857D01*
X228906468Y-59801607D01*
X228992718Y-59686392D01*
X229043013Y-59551544D01*
X229049422Y-59491934D01*
X229049421Y-57396189D01*
X229043013Y-57336578D01*
X229041474Y-57332453D01*
X228992719Y-57201732D01*
X228992715Y-57201725D01*
X228906469Y-57086516D01*
X228906466Y-57086513D01*
X228791257Y-57000267D01*
X228791250Y-57000263D01*
X228656404Y-56949969D01*
X228656405Y-56949969D01*
X228596805Y-56943562D01*
X228596803Y-56943561D01*
X228596795Y-56943561D01*
X228596787Y-56943561D01*
X228184381Y-56943561D01*
X228117342Y-56923876D01*
X228076995Y-56881562D01*
X228066081Y-56862659D01*
X228066080Y-56862657D01*
X228029446Y-56799205D01*
X228029443Y-56799201D01*
X228029442Y-56799199D01*
X227917638Y-56687395D01*
X227917637Y-56687394D01*
X227913307Y-56683064D01*
X227913296Y-56683054D01*
X227417080Y-56186838D01*
X227383595Y-56125515D01*
X227388579Y-56055823D01*
X227430451Y-55999890D01*
X227495915Y-55975473D01*
X227504761Y-55975157D01*
X227628275Y-55975157D01*
X227628276Y-55975157D01*
X227687887Y-55968749D01*
X227822735Y-55918454D01*
X227937950Y-55832204D01*
X228024200Y-55716989D01*
X228074495Y-55582141D01*
X228080904Y-55522531D01*
X228080903Y-53626786D01*
X228075193Y-53573669D01*
X228074495Y-53567174D01*
X228024201Y-53432329D01*
X228024197Y-53432322D01*
X227937951Y-53317113D01*
X227937948Y-53317110D01*
X227822739Y-53230864D01*
X227822732Y-53230860D01*
X227687886Y-53180566D01*
X227687887Y-53180566D01*
X227628287Y-53174159D01*
X227628285Y-53174158D01*
X227628277Y-53174158D01*
X227628268Y-53174158D01*
X225732533Y-53174158D01*
X225732527Y-53174159D01*
X225672920Y-53180566D01*
X225538075Y-53230860D01*
X225538068Y-53230864D01*
X225422859Y-53317110D01*
X225422856Y-53317113D01*
X225336610Y-53432322D01*
X225336607Y-53432328D01*
X225307948Y-53509166D01*
X225266076Y-53565099D01*
X225200612Y-53589516D01*
X225132339Y-53574664D01*
X225100539Y-53549816D01*
X225092188Y-53540745D01*
X225092182Y-53540740D01*
X225092181Y-53540739D01*
X224909038Y-53398193D01*
X224909032Y-53398189D01*
X224704908Y-53287722D01*
X224704899Y-53287719D01*
X224485388Y-53212360D01*
X224294854Y-53180566D01*
X224256453Y-53174158D01*
X224024355Y-53174158D01*
X223986199Y-53180525D01*
X223795418Y-53212360D01*
X223743502Y-53230182D01*
X223673704Y-53233330D01*
X223615562Y-53200581D01*
X221271553Y-50856572D01*
X221271551Y-50856569D01*
X221152680Y-50737698D01*
X221152672Y-50737692D01*
X221055527Y-50681606D01*
X221055525Y-50681605D01*
X221015753Y-50658642D01*
X221015752Y-50658641D01*
X220979189Y-50648844D01*
X220863020Y-50617716D01*
X220704906Y-50617716D01*
X220697310Y-50617716D01*
X220697294Y-50617717D01*
X215495761Y-50617717D01*
X215428722Y-50598032D01*
X215396495Y-50568029D01*
X215361282Y-50520992D01*
X215353556Y-50510671D01*
X215271311Y-50449102D01*
X215238345Y-50424423D01*
X215238338Y-50424419D01*
X215103492Y-50374125D01*
X215103493Y-50374125D01*
X215043893Y-50367718D01*
X215043891Y-50367717D01*
X215043883Y-50367717D01*
X215043874Y-50367717D01*
X213698139Y-50367717D01*
X213698133Y-50367718D01*
X213633762Y-50374638D01*
X213565003Y-50362231D01*
X213513866Y-50314620D01*
X213496509Y-50251348D01*
X213496509Y-49870346D01*
X213496508Y-49870340D01*
X213494023Y-49847225D01*
X213490101Y-49810734D01*
X213472281Y-49762957D01*
X213439807Y-49675888D01*
X213439803Y-49675881D01*
X213353557Y-49560672D01*
X213353554Y-49560669D01*
X213238345Y-49474423D01*
X213238338Y-49474419D01*
X213103492Y-49424125D01*
X213103493Y-49424125D01*
X213043893Y-49417718D01*
X213043891Y-49417717D01*
X213043883Y-49417717D01*
X213043875Y-49417717D01*
X211734591Y-49417717D01*
X211667552Y-49398032D01*
X211621797Y-49345228D01*
X211610591Y-49293717D01*
X211610591Y-48939866D01*
X211630276Y-48872827D01*
X211683080Y-48827072D01*
X211752238Y-48817128D01*
X211815794Y-48846153D01*
X211843423Y-48880440D01*
X211845743Y-48884689D01*
X211931992Y-48999902D01*
X211931995Y-48999905D01*
X212047204Y-49086151D01*
X212047211Y-49086155D01*
X212182057Y-49136449D01*
X212182056Y-49136449D01*
X212188984Y-49137193D01*
X212241667Y-49142858D01*
X213747412Y-49142857D01*
X213807023Y-49136449D01*
X213941871Y-49086154D01*
X213941873Y-49086152D01*
X213950180Y-49083054D01*
X213951333Y-49086147D01*
X214003879Y-49074702D01*
X214038322Y-49084807D01*
X214039142Y-49082611D01*
X214182163Y-49135955D01*
X214182167Y-49135956D01*
X214241695Y-49142357D01*
X214241712Y-49142358D01*
X214744540Y-49142358D01*
X214744540Y-48217358D01*
X215244540Y-48217358D01*
X215244540Y-49142358D01*
X215747368Y-49142358D01*
X215747384Y-49142357D01*
X215806912Y-49135956D01*
X215806919Y-49135954D01*
X215941626Y-49085712D01*
X215941633Y-49085708D01*
X216056727Y-48999548D01*
X216056730Y-48999545D01*
X216142890Y-48884451D01*
X216142894Y-48884444D01*
X216193136Y-48749737D01*
X216193138Y-48749730D01*
X216199539Y-48690202D01*
X216199540Y-48690185D01*
X216199540Y-48217358D01*
X215244540Y-48217358D01*
X214744540Y-48217358D01*
X214744540Y-46792358D01*
X215244540Y-46792358D01*
X215244540Y-47717358D01*
X216199540Y-47717358D01*
X216199540Y-47244530D01*
X216199539Y-47244513D01*
X216193138Y-47184985D01*
X216193136Y-47184978D01*
X216142894Y-47050271D01*
X216142890Y-47050264D01*
X216056730Y-46935170D01*
X216056727Y-46935167D01*
X215941633Y-46849007D01*
X215941626Y-46849003D01*
X215806919Y-46798761D01*
X215806912Y-46798759D01*
X215747384Y-46792358D01*
X215244540Y-46792358D01*
X214744540Y-46792358D01*
X214241696Y-46792358D01*
X214233348Y-46793256D01*
X214164589Y-46780847D01*
X214113454Y-46733234D01*
X214096099Y-46669966D01*
X214096099Y-46462672D01*
X214115784Y-46395633D01*
X214153057Y-46358358D01*
X214199729Y-46328365D01*
X214210167Y-46319321D01*
X214226894Y-46304826D01*
X214308390Y-46234211D01*
X214308393Y-46234208D01*
X214402614Y-46125470D01*
X214480346Y-46004516D01*
X214540116Y-45873638D01*
X214580623Y-45735683D01*
X214601099Y-45593268D01*
X214601099Y-45021379D01*
X214595954Y-44949439D01*
X214584995Y-44912119D01*
X214581235Y-44859537D01*
X214586370Y-44823820D01*
X214601099Y-44721379D01*
X214601099Y-44149490D01*
X214580623Y-44007075D01*
X214540116Y-43869120D01*
X214480346Y-43738242D01*
X214459620Y-43705992D01*
X214406222Y-43622902D01*
X214405401Y-43621460D01*
X214402613Y-43617285D01*
X214384303Y-43596155D01*
X214371139Y-43580963D01*
X214342114Y-43517408D01*
X214352057Y-43448250D01*
X214397812Y-43395445D01*
X214464851Y-43375760D01*
X215541392Y-43375760D01*
X215541393Y-43375760D01*
X215601004Y-43369352D01*
X215735852Y-43319057D01*
X215851067Y-43232807D01*
X215937317Y-43117592D01*
X215987612Y-42982744D01*
X215994021Y-42923134D01*
X215994020Y-41477389D01*
X215987612Y-41417778D01*
X215978295Y-41392799D01*
X215937318Y-41282932D01*
X215937314Y-41282925D01*
X215851068Y-41167716D01*
X215851065Y-41167713D01*
X215735856Y-41081467D01*
X215735849Y-41081463D01*
X215601003Y-41031169D01*
X215601004Y-41031169D01*
X215541404Y-41024762D01*
X215541402Y-41024761D01*
X215541394Y-41024761D01*
X215541386Y-41024761D01*
X214645358Y-41024761D01*
X214578319Y-41005076D01*
X214557677Y-40988442D01*
X214155913Y-40586678D01*
X214155911Y-40586675D01*
X214037040Y-40467804D01*
X214037039Y-40467803D01*
X213943218Y-40413636D01*
X213943217Y-40413635D01*
X213900106Y-40388745D01*
X213840269Y-40372712D01*
X213747380Y-40347822D01*
X213589266Y-40347822D01*
X213581670Y-40347822D01*
X213581654Y-40347823D01*
X209162647Y-40347823D01*
X209162631Y-40347822D01*
X209155035Y-40347822D01*
X208996920Y-40347822D01*
X208920556Y-40368284D01*
X208844191Y-40388746D01*
X208844186Y-40388749D01*
X208707267Y-40467798D01*
X208707259Y-40467804D01*
X208570568Y-40604495D01*
X208570567Y-40604497D01*
X208528291Y-40677722D01*
X208516211Y-40698645D01*
X208491509Y-40741428D01*
X208491508Y-40741431D01*
X208477139Y-40795056D01*
X208440773Y-40854716D01*
X208431679Y-40862225D01*
X208393541Y-40890776D01*
X208393539Y-40890778D01*
X208307293Y-41005987D01*
X208307289Y-41005994D01*
X208256995Y-41140840D01*
X208250588Y-41200439D01*
X208250587Y-41200458D01*
X208250587Y-42396193D01*
X208250588Y-42396199D01*
X208256995Y-42455806D01*
X208307289Y-42590651D01*
X208307293Y-42590658D01*
X208393539Y-42705867D01*
X208393542Y-42705870D01*
X208508751Y-42792116D01*
X208508758Y-42792120D01*
X208550751Y-42807782D01*
X208643604Y-42842414D01*
X208703214Y-42848823D01*
X209154110Y-42848822D01*
X209221149Y-42868506D01*
X209266904Y-42921310D01*
X209275727Y-42948628D01*
X209279428Y-42967233D01*
X209279429Y-42967238D01*
X209335999Y-43103811D01*
X209336001Y-43103815D01*
X209336003Y-43103818D01*
X209352770Y-43128911D01*
X209396835Y-43194861D01*
X209418136Y-43226740D01*
X209427538Y-43236142D01*
X209461023Y-43297465D01*
X209456039Y-43367157D01*
X209414167Y-43423090D01*
X209348703Y-43447507D01*
X209339857Y-43447823D01*
X208703216Y-43447823D01*
X208703210Y-43447824D01*
X208643603Y-43454231D01*
X208508758Y-43504525D01*
X208508751Y-43504529D01*
X208393543Y-43590775D01*
X208393542Y-43590776D01*
X208393541Y-43590777D01*
X208358815Y-43637165D01*
X208313174Y-43698134D01*
X208257240Y-43740005D01*
X208213907Y-43747823D01*
X207925977Y-43747823D01*
X207858938Y-43728138D01*
X207813183Y-43675334D01*
X207809795Y-43667156D01*
X207779344Y-43585513D01*
X207782435Y-43584360D01*
X207770991Y-43531808D01*
X207781114Y-43497377D01*
X207778900Y-43496552D01*
X207832244Y-43353530D01*
X207832245Y-43353526D01*
X207838646Y-43293998D01*
X207838647Y-43293981D01*
X207838647Y-42791154D01*
X205488647Y-42791154D01*
X205488647Y-43293998D01*
X205495048Y-43353526D01*
X205495050Y-43353533D01*
X205548393Y-43496553D01*
X205545068Y-43497793D01*
X205556293Y-43549552D01*
X205545950Y-43584767D01*
X205547950Y-43585513D01*
X205494555Y-43728671D01*
X205488148Y-43788270D01*
X205488147Y-43788289D01*
X205488147Y-45294024D01*
X205488148Y-45294030D01*
X205494555Y-45353637D01*
X205544849Y-45488482D01*
X205544853Y-45488489D01*
X205631099Y-45603698D01*
X205631102Y-45603701D01*
X205746311Y-45689947D01*
X205746318Y-45689951D01*
X205791812Y-45706919D01*
X205827337Y-45720169D01*
X205832480Y-45722087D01*
X205888413Y-45763958D01*
X205912831Y-45829422D01*
X205913147Y-45838269D01*
X205913147Y-45952419D01*
X205901941Y-46003930D01*
X205900613Y-46006837D01*
X205875067Y-46062774D01*
X205875066Y-46062778D01*
X205854591Y-46205192D01*
X205854591Y-47705195D01*
X205859735Y-47777133D01*
X205880208Y-47846854D01*
X205899106Y-47911215D01*
X205900273Y-47915187D01*
X205978058Y-48036223D01*
X205978062Y-48036227D01*
X206007682Y-48061893D01*
X206086797Y-48130447D01*
X206127265Y-48148928D01*
X206217671Y-48190216D01*
X206217674Y-48190216D01*
X206217675Y-48190217D01*
X206360091Y-48210693D01*
X206360094Y-48210693D01*
X207195225Y-48210693D01*
X207262264Y-48230378D01*
X207308019Y-48283182D01*
X207317963Y-48352340D01*
X207288938Y-48415896D01*
X207271391Y-48432543D01*
X207222420Y-48470659D01*
X207145279Y-48530700D01*
X206976855Y-48713656D01*
X206840848Y-48921832D01*
X206740958Y-49149557D01*
X206679914Y-49390614D01*
X206679912Y-49390626D01*
X206661900Y-49607999D01*
X206636747Y-49673184D01*
X206580345Y-49714422D01*
X206510601Y-49718620D01*
X206449660Y-49684446D01*
X206444612Y-49678963D01*
X206400966Y-49628593D01*
X206327671Y-49565083D01*
X206292310Y-49534443D01*
X206292307Y-49534440D01*
X206261349Y-49514545D01*
X206171269Y-49456655D01*
X206171262Y-49456652D01*
X206171256Y-49456648D01*
X206046531Y-49399688D01*
X206042232Y-49397439D01*
X205902436Y-49356391D01*
X205902426Y-49356388D01*
X205774475Y-49337992D01*
X205760116Y-49335928D01*
X205760115Y-49335928D01*
X205703776Y-49335928D01*
X205703766Y-49335925D01*
X205652411Y-49335925D01*
X205223939Y-49335925D01*
X205172602Y-49335925D01*
X205172574Y-49335928D01*
X205116234Y-49335928D01*
X204982696Y-49355128D01*
X204982694Y-49355128D01*
X204973919Y-49356389D01*
X204835861Y-49396928D01*
X204705093Y-49456648D01*
X204705083Y-49456653D01*
X204705081Y-49456655D01*
X204677439Y-49474419D01*
X204584042Y-49534440D01*
X204584038Y-49534443D01*
X204475401Y-49628577D01*
X204475382Y-49628594D01*
X204475365Y-49628613D01*
X204415132Y-49698127D01*
X204356354Y-49735902D01*
X204321419Y-49740925D01*
X204037841Y-49740925D01*
X203970802Y-49721240D01*
X203925047Y-49668436D01*
X203915103Y-49599278D01*
X203918067Y-49584830D01*
X203921466Y-49572143D01*
X203921467Y-49572140D01*
X203921467Y-49406431D01*
X203921466Y-49406413D01*
X203921466Y-46500024D01*
X203941151Y-46432985D01*
X203993955Y-46387230D01*
X204045466Y-46376024D01*
X204368837Y-46376024D01*
X204368838Y-46376024D01*
X204428449Y-46369616D01*
X204563297Y-46319321D01*
X204678512Y-46233071D01*
X204764762Y-46117856D01*
X204815057Y-45983008D01*
X204821466Y-45923398D01*
X204821465Y-43827653D01*
X204815057Y-43768042D01*
X204803942Y-43738242D01*
X204764763Y-43633196D01*
X204764759Y-43633189D01*
X204678513Y-43517980D01*
X204678510Y-43517977D01*
X204563301Y-43431731D01*
X204563294Y-43431727D01*
X204428448Y-43381433D01*
X204428449Y-43381433D01*
X204368849Y-43375026D01*
X204368847Y-43375025D01*
X204368839Y-43375025D01*
X204368831Y-43375025D01*
X202721063Y-43375025D01*
X202654024Y-43355340D01*
X202633382Y-43338706D01*
X202109529Y-42814853D01*
X202109527Y-42814850D01*
X201990656Y-42695979D01*
X201990648Y-42695973D01*
X201886618Y-42635912D01*
X201886617Y-42635911D01*
X201886617Y-42635912D01*
X201853724Y-42616921D01*
X201818128Y-42607383D01*
X201700996Y-42575997D01*
X201542882Y-42575997D01*
X201535286Y-42575997D01*
X201535270Y-42575998D01*
X195375302Y-42575998D01*
X195308263Y-42556313D01*
X195262508Y-42503509D01*
X195255527Y-42484092D01*
X195222730Y-42361694D01*
X195203829Y-42291154D01*
X205488647Y-42291154D01*
X206413647Y-42291154D01*
X206413647Y-41336154D01*
X206913647Y-41336154D01*
X206913647Y-42291154D01*
X207838647Y-42291154D01*
X207838647Y-41788326D01*
X207838646Y-41788309D01*
X207832245Y-41728781D01*
X207832243Y-41728774D01*
X207782001Y-41594067D01*
X207781997Y-41594060D01*
X207695837Y-41478966D01*
X207695834Y-41478963D01*
X207580740Y-41392803D01*
X207580733Y-41392799D01*
X207446026Y-41342557D01*
X207446019Y-41342555D01*
X207386491Y-41336154D01*
X206913647Y-41336154D01*
X206413647Y-41336154D01*
X205940802Y-41336154D01*
X205881274Y-41342555D01*
X205881267Y-41342557D01*
X205746560Y-41392799D01*
X205746553Y-41392803D01*
X205631459Y-41478963D01*
X205631456Y-41478966D01*
X205545296Y-41594060D01*
X205545292Y-41594067D01*
X205495050Y-41728774D01*
X205495048Y-41728781D01*
X205488647Y-41788309D01*
X205488647Y-42291154D01*
X195203829Y-42291154D01*
X195098604Y-41898448D01*
X195076986Y-41842527D01*
X194993503Y-41725291D01*
X194993501Y-41725289D01*
X194993500Y-41725288D01*
X194993499Y-41725287D01*
X194880371Y-41636324D01*
X194746758Y-41582832D01*
X194666501Y-41575169D01*
X194601636Y-41549201D01*
X194561108Y-41492287D01*
X194557783Y-41422497D01*
X194567726Y-41396639D01*
X194567617Y-41396592D01*
X194568653Y-41394229D01*
X194569243Y-41392696D01*
X194569672Y-41391901D01*
X194569677Y-41391895D01*
X194662910Y-41179346D01*
X194719887Y-40954351D01*
X194721311Y-40937165D01*
X194739053Y-40723052D01*
X194739053Y-40723039D01*
X194719888Y-40491748D01*
X194719886Y-40491737D01*
X194662910Y-40266745D01*
X194569677Y-40054197D01*
X194442736Y-39859898D01*
X194442733Y-39859895D01*
X194442732Y-39859893D01*
X194285537Y-39689133D01*
X194285532Y-39689129D01*
X194285530Y-39689127D01*
X194102387Y-39546581D01*
X194102381Y-39546577D01*
X193898257Y-39436110D01*
X193898248Y-39436107D01*
X193678737Y-39360748D01*
X193507035Y-39332096D01*
X193449802Y-39322546D01*
X193217704Y-39322546D01*
X193171917Y-39330186D01*
X192988768Y-39360748D01*
X192769257Y-39436107D01*
X192769248Y-39436110D01*
X192565125Y-39546577D01*
X192397215Y-39677266D01*
X192332221Y-39702908D01*
X192263681Y-39689341D01*
X192213356Y-39640873D01*
X192197053Y-39579412D01*
X192197053Y-38516072D01*
X192216738Y-38449033D01*
X192269542Y-38403278D01*
X192288950Y-38396300D01*
X193587993Y-38048222D01*
X193643914Y-38026604D01*
X193761150Y-37943121D01*
X193850116Y-37829990D01*
X193903607Y-37696378D01*
X193917287Y-37553108D01*
X193908050Y-37493870D01*
X193417394Y-35662721D01*
X193395776Y-35606800D01*
X193312293Y-35489564D01*
X193312291Y-35489562D01*
X193312290Y-35489561D01*
X193312289Y-35489560D01*
X193199161Y-35400597D01*
X193065548Y-35347105D01*
X192985291Y-35339442D01*
X192920426Y-35313474D01*
X192879898Y-35256560D01*
X192876573Y-35186770D01*
X192886516Y-35160912D01*
X192886407Y-35160865D01*
X192887443Y-35158502D01*
X192888033Y-35156969D01*
X192888462Y-35156174D01*
X192888467Y-35156168D01*
X192981700Y-34943619D01*
X193038677Y-34718624D01*
X193038678Y-34718616D01*
X193057843Y-34487325D01*
X193057843Y-34487312D01*
X193038678Y-34256021D01*
X193038676Y-34256010D01*
X192981700Y-34031018D01*
X192888467Y-33818470D01*
X192761526Y-33624171D01*
X192761523Y-33624168D01*
X192761522Y-33624166D01*
X192604327Y-33453406D01*
X192604322Y-33453402D01*
X192604320Y-33453400D01*
X192421177Y-33310854D01*
X192421171Y-33310850D01*
X192217047Y-33200383D01*
X192217038Y-33200380D01*
X191997527Y-33125021D01*
X191825825Y-33096369D01*
X191768592Y-33086819D01*
X191536494Y-33086819D01*
X191490707Y-33094459D01*
X191307558Y-33125021D01*
X191088047Y-33200380D01*
X191088038Y-33200383D01*
X190883914Y-33310850D01*
X190883908Y-33310854D01*
X190700765Y-33453400D01*
X190700762Y-33453403D01*
X190543559Y-33624171D01*
X190416618Y-33818470D01*
X190323385Y-34031018D01*
X190266409Y-34256010D01*
X190266407Y-34256021D01*
X190247243Y-34487312D01*
X190247243Y-34487325D01*
X190266407Y-34718616D01*
X190266409Y-34718628D01*
X190310862Y-34894167D01*
X190308237Y-34963987D01*
X190278337Y-35012288D01*
X189704586Y-35586040D01*
X189592781Y-35697844D01*
X189592775Y-35697852D01*
X189548666Y-35774253D01*
X189548666Y-35774254D01*
X189513723Y-35834776D01*
X189513723Y-35834777D01*
X189472799Y-35987505D01*
X189472799Y-35987507D01*
X189472799Y-36155608D01*
X189472800Y-36155621D01*
X189472800Y-55035556D01*
X189472799Y-55035574D01*
X189472799Y-55201280D01*
X189472798Y-55201280D01*
X189513167Y-55351938D01*
X189513723Y-55354011D01*
X189535213Y-55391232D01*
X189560836Y-55435613D01*
X189592779Y-55490940D01*
X189592781Y-55490943D01*
X189711649Y-55609811D01*
X189711655Y-55609816D01*
X190683287Y-56581448D01*
X190716772Y-56642771D01*
X190719606Y-56669129D01*
X190719606Y-57291902D01*
X190719607Y-57291908D01*
X190726014Y-57351515D01*
X190776308Y-57486360D01*
X190776312Y-57486367D01*
X190862558Y-57601576D01*
X190862561Y-57601579D01*
X190977770Y-57687825D01*
X190977777Y-57687829D01*
X191112623Y-57738123D01*
X191112622Y-57738123D01*
X191119550Y-57738867D01*
X191172233Y-57744532D01*
X192517978Y-57744531D01*
X192577589Y-57738123D01*
X192577593Y-57738121D01*
X192582351Y-57737610D01*
X192651110Y-57750016D01*
X192702248Y-57797626D01*
X192719606Y-57860900D01*
X192719606Y-58241901D01*
X192719607Y-58241908D01*
X192726014Y-58301515D01*
X192776308Y-58436360D01*
X192776312Y-58436367D01*
X192862558Y-58551576D01*
X192862561Y-58551579D01*
X192977770Y-58637825D01*
X192977777Y-58637829D01*
X193112623Y-58688123D01*
X193112622Y-58688123D01*
X193119550Y-58688867D01*
X193172233Y-58694532D01*
X194517978Y-58694531D01*
X194577589Y-58688123D01*
X194712437Y-58637828D01*
X194827652Y-58551578D01*
X194854333Y-58515935D01*
X194870591Y-58494220D01*
X194926525Y-58452350D01*
X194969857Y-58444532D01*
X195278977Y-58444532D01*
X195346016Y-58464217D01*
X195391771Y-58517021D01*
X195402977Y-58568532D01*
X195402977Y-58652849D01*
X195413476Y-58755627D01*
X195413477Y-58755630D01*
X195468661Y-58922162D01*
X195468663Y-58922167D01*
X195482045Y-58943863D01*
X195558915Y-59068490D01*
X195560765Y-59071488D01*
X195654427Y-59165150D01*
X195687912Y-59226473D01*
X195682928Y-59296165D01*
X195654427Y-59340512D01*
X195560765Y-59434173D01*
X195468663Y-59583494D01*
X195468661Y-59583499D01*
X195455655Y-59622749D01*
X195413477Y-59750034D01*
X195413477Y-59750035D01*
X195413476Y-59750035D01*
X195402976Y-59852814D01*
X195402976Y-60465232D01*
X195383291Y-60532271D01*
X195366658Y-60552913D01*
X195201708Y-60717863D01*
X195089903Y-60829667D01*
X195089899Y-60829672D01*
X195042065Y-60912525D01*
X195042065Y-60912526D01*
X195010845Y-60966599D01*
X195004416Y-60990594D01*
X194969921Y-61119328D01*
X194969921Y-61119330D01*
X194969921Y-61287431D01*
X194969922Y-61287444D01*
X194969922Y-63383388D01*
X194950237Y-63450427D01*
X194898336Y-63495766D01*
X194892595Y-63498443D01*
X194892591Y-63498445D01*
X194699019Y-63633985D01*
X194531927Y-63801077D01*
X194401997Y-63986638D01*
X194347420Y-64030263D01*
X194277922Y-64037457D01*
X194215567Y-64005934D01*
X194198847Y-63986638D01*
X194068916Y-63801077D01*
X193901824Y-63633986D01*
X193901817Y-63633981D01*
X193708256Y-63498447D01*
X193708252Y-63498445D01*
X193659810Y-63475856D01*
X193494085Y-63398577D01*
X193494081Y-63398576D01*
X193494077Y-63398574D01*
X193265835Y-63337418D01*
X193265825Y-63337416D01*
X193030423Y-63316821D01*
X193030421Y-63316821D01*
X192795018Y-63337416D01*
X192795008Y-63337418D01*
X192566766Y-63398574D01*
X192566757Y-63398578D01*
X192352593Y-63498444D01*
X192352591Y-63498445D01*
X192159019Y-63633985D01*
X191991927Y-63801077D01*
X191861997Y-63986638D01*
X191807420Y-64030263D01*
X191737922Y-64037457D01*
X191675567Y-64005934D01*
X191658847Y-63986638D01*
X191528916Y-63801077D01*
X191361824Y-63633986D01*
X191361817Y-63633981D01*
X191168256Y-63498447D01*
X191168252Y-63498445D01*
X191119810Y-63475856D01*
X190954085Y-63398577D01*
X190954081Y-63398576D01*
X190954077Y-63398574D01*
X190725835Y-63337418D01*
X190725825Y-63337416D01*
X190490423Y-63316821D01*
X190490421Y-63316821D01*
X190255018Y-63337416D01*
X190255008Y-63337418D01*
X190026766Y-63398574D01*
X190026757Y-63398578D01*
X189812593Y-63498444D01*
X189812591Y-63498445D01*
X189619019Y-63633985D01*
X189451927Y-63801077D01*
X189321997Y-63986638D01*
X189267420Y-64030263D01*
X189197922Y-64037457D01*
X189135567Y-64005934D01*
X189118847Y-63986638D01*
X188988916Y-63801077D01*
X188821824Y-63633986D01*
X188821817Y-63633981D01*
X188628256Y-63498447D01*
X188628252Y-63498445D01*
X188579810Y-63475856D01*
X188414085Y-63398577D01*
X188414081Y-63398576D01*
X188414077Y-63398574D01*
X188185835Y-63337418D01*
X188185825Y-63337416D01*
X187950423Y-63316821D01*
X187950421Y-63316821D01*
X187715018Y-63337416D01*
X187715008Y-63337418D01*
X187486766Y-63398574D01*
X187486757Y-63398578D01*
X187272593Y-63498444D01*
X187272591Y-63498445D01*
X187079019Y-63633985D01*
X186911927Y-63801077D01*
X186781997Y-63986638D01*
X186727420Y-64030263D01*
X186657922Y-64037457D01*
X186595567Y-64005934D01*
X186578847Y-63986638D01*
X186448916Y-63801077D01*
X186281824Y-63633986D01*
X186281817Y-63633981D01*
X186088256Y-63498447D01*
X186088252Y-63498445D01*
X186039810Y-63475856D01*
X185874085Y-63398577D01*
X185874081Y-63398576D01*
X185874077Y-63398574D01*
X185645835Y-63337418D01*
X185645825Y-63337416D01*
X185410423Y-63316821D01*
X185410421Y-63316821D01*
X185175018Y-63337416D01*
X185175008Y-63337418D01*
X184946766Y-63398574D01*
X184946757Y-63398578D01*
X184732593Y-63498444D01*
X184732591Y-63498445D01*
X184539019Y-63633985D01*
X184371927Y-63801077D01*
X184241997Y-63986638D01*
X184187420Y-64030263D01*
X184117922Y-64037457D01*
X184055567Y-64005934D01*
X184038847Y-63986638D01*
X183908916Y-63801077D01*
X183741824Y-63633986D01*
X183741817Y-63633981D01*
X183548253Y-63498445D01*
X183548248Y-63498442D01*
X183542513Y-63495768D01*
X183490075Y-63449593D01*
X183470922Y-63383388D01*
X183470922Y-61520946D01*
X183490607Y-61453907D01*
X183543411Y-61408152D01*
X183594922Y-61396946D01*
X183668498Y-61396946D01*
X183668504Y-61396946D01*
X183771293Y-61386446D01*
X183937830Y-61331261D01*
X184087152Y-61239159D01*
X184211208Y-61115103D01*
X184303310Y-60965781D01*
X184358495Y-60799244D01*
X184368996Y-60696456D01*
X184368995Y-60071439D01*
X184366290Y-60044962D01*
X184358495Y-59968650D01*
X184358494Y-59968647D01*
X184331723Y-59887858D01*
X184303310Y-59802113D01*
X184211208Y-59652791D01*
X184117545Y-59559128D01*
X184084060Y-59497805D01*
X184089044Y-59428113D01*
X184117545Y-59383766D01*
X184160799Y-59340512D01*
X184211208Y-59290103D01*
X184303310Y-59140781D01*
X184358495Y-58974244D01*
X184368996Y-58871456D01*
X184368995Y-58259042D01*
X184375039Y-58238458D01*
X184896166Y-58238458D01*
X184896166Y-58386302D01*
X184902567Y-58445830D01*
X184902569Y-58445837D01*
X184952811Y-58580544D01*
X184952815Y-58580551D01*
X185038975Y-58695645D01*
X185038978Y-58695648D01*
X185154072Y-58781808D01*
X185154079Y-58781812D01*
X185288786Y-58832054D01*
X185288793Y-58832056D01*
X185348321Y-58838457D01*
X185348338Y-58838458D01*
X185771166Y-58838458D01*
X185771166Y-58238458D01*
X186271166Y-58238458D01*
X186271166Y-58838458D01*
X186693994Y-58838458D01*
X186694010Y-58838457D01*
X186753538Y-58832056D01*
X186753545Y-58832054D01*
X186888252Y-58781812D01*
X186888259Y-58781808D01*
X187003353Y-58695648D01*
X187003356Y-58695645D01*
X187089516Y-58580551D01*
X187089520Y-58580544D01*
X187139762Y-58445837D01*
X187139764Y-58445830D01*
X187146165Y-58386302D01*
X187146166Y-58386285D01*
X187146166Y-58238458D01*
X186271166Y-58238458D01*
X185771166Y-58238458D01*
X184896166Y-58238458D01*
X184375039Y-58238458D01*
X184388679Y-58192004D01*
X184405309Y-58171367D01*
X184801900Y-57774777D01*
X184863223Y-57741292D01*
X184889581Y-57738458D01*
X186987269Y-57738458D01*
X187054308Y-57758143D01*
X187061569Y-57763184D01*
X187153831Y-57832251D01*
X187153834Y-57832253D01*
X187153837Y-57832255D01*
X187288683Y-57882549D01*
X187288682Y-57882549D01*
X187295610Y-57883293D01*
X187348293Y-57888958D01*
X188694038Y-57888957D01*
X188753649Y-57882549D01*
X188888497Y-57832254D01*
X189003712Y-57746004D01*
X189089962Y-57630789D01*
X189140257Y-57495941D01*
X189146666Y-57436331D01*
X189146665Y-56640586D01*
X189140257Y-56580975D01*
X189132644Y-56560564D01*
X189089963Y-56446129D01*
X189089959Y-56446122D01*
X189003713Y-56330913D01*
X189003710Y-56330910D01*
X188888501Y-56244664D01*
X188888494Y-56244660D01*
X188753649Y-56194366D01*
X188732409Y-56192083D01*
X188667858Y-56165344D01*
X188628011Y-56107951D01*
X188621666Y-56068794D01*
X188621666Y-38909741D01*
X188621667Y-38909728D01*
X188621667Y-38741625D01*
X188580742Y-38588895D01*
X188580739Y-38588890D01*
X188501690Y-38451971D01*
X188501684Y-38451963D01*
X188056706Y-38006985D01*
X187501757Y-37452037D01*
X187468273Y-37390715D01*
X187469234Y-37333916D01*
X187513685Y-37158386D01*
X187513685Y-37158385D01*
X187513688Y-37158374D01*
X187513708Y-37158132D01*
X187532854Y-36927075D01*
X187532854Y-36927062D01*
X187513689Y-36695771D01*
X187513687Y-36695760D01*
X187456711Y-36470768D01*
X187363479Y-36258223D01*
X187363478Y-36258220D01*
X187363474Y-36258214D01*
X187363039Y-36257409D01*
X187362959Y-36257037D01*
X187361418Y-36253523D01*
X187362140Y-36253205D01*
X187348438Y-36189082D01*
X187373096Y-36123708D01*
X187429183Y-36082043D01*
X187460300Y-36074944D01*
X187540561Y-36067281D01*
X187674173Y-36013790D01*
X187787304Y-35924824D01*
X187870787Y-35807588D01*
X187892406Y-35751668D01*
X188383059Y-33920519D01*
X188392298Y-33861280D01*
X188378618Y-33718010D01*
X188325127Y-33584398D01*
X188318824Y-33576383D01*
X188236164Y-33471270D01*
X188236163Y-33471269D01*
X188236162Y-33471268D01*
X188236161Y-33471267D01*
X188118925Y-33387784D01*
X188118922Y-33387782D01*
X188118921Y-33387782D01*
X188063006Y-33366165D01*
X186231861Y-32875513D01*
X186231857Y-32875512D01*
X186231856Y-32875512D01*
X186172617Y-32866273D01*
X186172616Y-32866273D01*
X186029345Y-32879953D01*
X185895735Y-32933443D01*
X185782607Y-33022406D01*
X185782606Y-33022407D01*
X185699119Y-33139649D01*
X185677503Y-33195562D01*
X185520579Y-33781211D01*
X185484214Y-33840871D01*
X185421367Y-33871400D01*
X185400804Y-33873117D01*
X184779383Y-33873117D01*
X184779367Y-33873116D01*
X184771771Y-33873116D01*
X184613657Y-33873116D01*
X184460929Y-33914040D01*
X184460927Y-33914041D01*
X184437195Y-33927741D01*
X184437196Y-33927742D01*
X184324001Y-33993094D01*
X184323996Y-33993098D01*
X183660379Y-34656715D01*
X183640622Y-34690936D01*
X183632271Y-34705402D01*
X183581323Y-34793646D01*
X183540399Y-34946374D01*
X183540399Y-34946376D01*
X183540399Y-35114477D01*
X183540400Y-35114490D01*
X183540400Y-37439795D01*
X183540399Y-37439813D01*
X183540399Y-37605519D01*
X183540398Y-37605519D01*
X183581323Y-37758251D01*
X183581324Y-37758252D01*
X183599782Y-37790222D01*
X183622741Y-37829989D01*
X183660381Y-37895182D01*
X183779249Y-38014050D01*
X183779255Y-38014055D01*
X184671810Y-38906610D01*
X184705295Y-38967933D01*
X184700311Y-39037625D01*
X184658439Y-39093558D01*
X184592975Y-39117975D01*
X184553165Y-39114175D01*
X184553163Y-39114185D01*
X184553079Y-39114167D01*
X184552049Y-39114069D01*
X184549935Y-39113502D01*
X184549917Y-39113498D01*
X184549915Y-39113498D01*
X184490676Y-39104259D01*
X184490675Y-39104259D01*
X184347404Y-39117939D01*
X184213794Y-39171429D01*
X184100666Y-39260392D01*
X184100665Y-39260393D01*
X184017178Y-39377635D01*
X183995562Y-39433548D01*
X183838638Y-40019197D01*
X183802273Y-40078857D01*
X183739426Y-40109386D01*
X183718863Y-40111103D01*
X183008057Y-40111103D01*
X183008041Y-40111102D01*
X183000445Y-40111102D01*
X182842330Y-40111102D01*
X182765966Y-40131564D01*
X182689601Y-40152026D01*
X182689596Y-40152029D01*
X182552677Y-40231078D01*
X182552669Y-40231084D01*
X178182764Y-44600989D01*
X178121441Y-44634474D01*
X178095083Y-44637308D01*
X176447311Y-44637308D01*
X176447305Y-44637309D01*
X176387698Y-44643716D01*
X176252853Y-44694010D01*
X176252846Y-44694014D01*
X176137637Y-44780260D01*
X176137634Y-44780263D01*
X176051388Y-44895472D01*
X176051384Y-44895479D01*
X176001090Y-45030325D01*
X175994683Y-45089924D01*
X175994683Y-45089931D01*
X175994682Y-45089943D01*
X175994682Y-47185678D01*
X175994683Y-47185684D01*
X176001090Y-47245291D01*
X176051384Y-47380136D01*
X176051388Y-47380143D01*
X176137634Y-47495352D01*
X176137637Y-47495355D01*
X176252846Y-47581601D01*
X176252853Y-47581605D01*
X176297800Y-47598369D01*
X176387699Y-47631899D01*
X176447309Y-47638308D01*
X176770682Y-47638307D01*
X176837721Y-47657991D01*
X176883476Y-47710795D01*
X176894682Y-47762307D01*
X176894682Y-48988491D01*
X176874997Y-49055530D01*
X176822193Y-49101285D01*
X176770682Y-49112491D01*
X176690944Y-49112491D01*
X176623905Y-49092806D01*
X176597232Y-49069695D01*
X176579189Y-49048873D01*
X176536978Y-49000159D01*
X176428322Y-48906009D01*
X176428319Y-48906006D01*
X176391485Y-48882335D01*
X176307281Y-48828221D01*
X176307274Y-48828218D01*
X176307268Y-48828214D01*
X176182543Y-48771254D01*
X176178244Y-48769005D01*
X176038448Y-48727957D01*
X176038438Y-48727954D01*
X175910487Y-48709558D01*
X175896128Y-48707494D01*
X175896127Y-48707494D01*
X175839788Y-48707494D01*
X175839778Y-48707491D01*
X175788423Y-48707491D01*
X175359951Y-48707491D01*
X175308614Y-48707491D01*
X175308586Y-48707494D01*
X175252246Y-48707494D01*
X175118708Y-48726694D01*
X175118706Y-48726694D01*
X175109931Y-48727955D01*
X174971873Y-48768494D01*
X174841105Y-48828214D01*
X174841095Y-48828219D01*
X174841093Y-48828221D01*
X174813190Y-48846153D01*
X174720054Y-48906006D01*
X174720050Y-48906009D01*
X174611413Y-49000143D01*
X174611394Y-49000160D01*
X174611377Y-49000179D01*
X174551144Y-49069693D01*
X174492366Y-49107468D01*
X174457431Y-49112491D01*
X174135878Y-49112491D01*
X174068839Y-49092806D01*
X174042166Y-49069695D01*
X174024125Y-49048875D01*
X173977195Y-48994715D01*
X173896232Y-48924561D01*
X173868539Y-48900565D01*
X173868536Y-48900562D01*
X173825378Y-48872827D01*
X173747498Y-48822777D01*
X173747491Y-48822774D01*
X173747485Y-48822770D01*
X173622760Y-48765810D01*
X173618461Y-48763561D01*
X173478665Y-48722513D01*
X173478655Y-48722510D01*
X173350704Y-48704114D01*
X173336345Y-48702050D01*
X173336344Y-48702050D01*
X173280005Y-48702050D01*
X173279995Y-48702047D01*
X173228640Y-48702047D01*
X172800168Y-48702047D01*
X172748831Y-48702047D01*
X172748803Y-48702050D01*
X172692463Y-48702050D01*
X172558925Y-48721250D01*
X172558923Y-48721250D01*
X172550148Y-48722511D01*
X172412090Y-48763050D01*
X172281322Y-48822770D01*
X172281312Y-48822775D01*
X172281310Y-48822777D01*
X172247657Y-48844404D01*
X172160271Y-48900562D01*
X172160267Y-48900565D01*
X172051630Y-48994699D01*
X172051611Y-48994716D01*
X172051609Y-48994719D01*
X172046893Y-49000162D01*
X171957389Y-49103456D01*
X171957387Y-49103458D01*
X171957387Y-49103459D01*
X171957385Y-49103462D01*
X171879659Y-49224404D01*
X171879656Y-49224410D01*
X171819887Y-49355288D01*
X171779381Y-49493238D01*
X171779378Y-49493250D01*
X171758904Y-49635657D01*
X171758904Y-50207549D01*
X171764048Y-50279486D01*
X171775007Y-50316809D01*
X171778767Y-50369388D01*
X171758904Y-50507545D01*
X171758904Y-51079436D01*
X171779378Y-51221843D01*
X171779381Y-51221855D01*
X171793899Y-51271297D01*
X171819887Y-51359806D01*
X171839148Y-51401981D01*
X171879656Y-51490683D01*
X171879657Y-51490685D01*
X171953780Y-51606023D01*
X171954600Y-51607464D01*
X171957392Y-51611645D01*
X172051611Y-51720377D01*
X172051614Y-51720380D01*
X172160268Y-51814528D01*
X172160271Y-51814531D01*
X172160273Y-51814532D01*
X172160274Y-51814533D01*
X172245814Y-51869505D01*
X172291569Y-51922309D01*
X172301513Y-51991467D01*
X172272489Y-52055023D01*
X172266457Y-52061501D01*
X172222307Y-52105651D01*
X172130205Y-52254972D01*
X172130203Y-52254977D01*
X172120799Y-52283356D01*
X172075019Y-52421512D01*
X172075019Y-52421513D01*
X172075018Y-52421513D01*
X172064518Y-52524292D01*
X172064518Y-53149310D01*
X172064519Y-53149328D01*
X172075018Y-53252105D01*
X172075019Y-53252108D01*
X172130203Y-53418640D01*
X172130205Y-53418645D01*
X172142050Y-53437848D01*
X172220538Y-53565099D01*
X172222307Y-53567966D01*
X172316322Y-53661981D01*
X172349807Y-53723304D01*
X172344823Y-53792996D01*
X172316323Y-53837343D01*
X172222700Y-53930966D01*
X172130661Y-54080184D01*
X172130659Y-54080189D01*
X172075512Y-54246611D01*
X172075511Y-54246618D01*
X172065018Y-54349322D01*
X172065018Y-54411809D01*
X174451611Y-54411809D01*
X174468792Y-54416854D01*
X176432960Y-54416854D01*
X176435211Y-54417515D01*
X178412706Y-54417515D01*
X178412706Y-54355043D01*
X178412705Y-54355028D01*
X178402212Y-54252317D01*
X178347065Y-54085895D01*
X178347063Y-54085890D01*
X178255022Y-53936669D01*
X178161402Y-53843049D01*
X178127917Y-53781726D01*
X178132901Y-53712034D01*
X178161398Y-53667691D01*
X178255419Y-53573671D01*
X178347521Y-53424349D01*
X178402706Y-53257812D01*
X178413207Y-53155024D01*
X178413206Y-52530007D01*
X178412816Y-52526193D01*
X178402706Y-52427218D01*
X178402705Y-52427215D01*
X178392473Y-52396337D01*
X178347521Y-52260681D01*
X178338167Y-52245516D01*
X178314771Y-52207584D01*
X178296331Y-52140192D01*
X178317254Y-52073528D01*
X178370896Y-52028759D01*
X178420310Y-52018488D01*
X178459231Y-52018488D01*
X178459232Y-52018488D01*
X178592770Y-51999288D01*
X178592772Y-51999288D01*
X178598903Y-51998406D01*
X178601547Y-51998026D01*
X178601548Y-51998026D01*
X178739600Y-51957489D01*
X178854129Y-51905185D01*
X178870372Y-51897767D01*
X178870372Y-51897766D01*
X178870385Y-51897761D01*
X178888205Y-51886308D01*
X178955244Y-51866625D01*
X179022283Y-51886310D01*
X179068038Y-51939114D01*
X179079243Y-51990625D01*
X179079243Y-55142274D01*
X179059558Y-55209313D01*
X179042924Y-55229955D01*
X178235206Y-56037673D01*
X178173883Y-56071158D01*
X178147525Y-56073992D01*
X177359962Y-56073992D01*
X177337370Y-56080045D01*
X177337371Y-56080046D01*
X177207237Y-56114915D01*
X177207232Y-56114918D01*
X177070313Y-56193967D01*
X177070305Y-56193973D01*
X176958501Y-56305778D01*
X176520186Y-56744092D01*
X176458863Y-56777577D01*
X176432505Y-56780411D01*
X175404734Y-56780411D01*
X175404728Y-56780412D01*
X175345121Y-56786819D01*
X175210276Y-56837113D01*
X175210269Y-56837117D01*
X175095060Y-56923363D01*
X175095057Y-56923366D01*
X175008811Y-57038575D01*
X175008807Y-57038582D01*
X174958513Y-57173428D01*
X174952133Y-57232774D01*
X174952106Y-57233034D01*
X174952105Y-57233046D01*
X174952105Y-58145566D01*
X174932420Y-58212605D01*
X174879616Y-58258360D01*
X174810458Y-58268304D01*
X174746902Y-58239279D01*
X174740424Y-58233247D01*
X173158472Y-56651295D01*
X173158470Y-56651292D01*
X173039599Y-56532421D01*
X173039598Y-56532420D01*
X172951413Y-56481507D01*
X172951412Y-56481506D01*
X172902665Y-56453362D01*
X172839917Y-56436549D01*
X172749939Y-56412439D01*
X172591825Y-56412439D01*
X172584229Y-56412439D01*
X172584213Y-56412440D01*
X170863380Y-56412440D01*
X170796341Y-56392755D01*
X170757841Y-56353537D01*
X170713584Y-56281784D01*
X170619921Y-56188121D01*
X170586436Y-56126798D01*
X170591420Y-56057106D01*
X170619921Y-56012759D01*
X170663933Y-55968747D01*
X170713584Y-55919096D01*
X170805686Y-55769774D01*
X170860871Y-55603237D01*
X170871372Y-55500449D01*
X170871371Y-54911809D01*
X172065019Y-54911809D01*
X172065019Y-54974295D01*
X172075512Y-55077006D01*
X172130659Y-55243428D01*
X172130661Y-55243433D01*
X172222702Y-55392654D01*
X172346672Y-55516624D01*
X172495893Y-55608665D01*
X172495898Y-55608667D01*
X172662320Y-55663814D01*
X172662327Y-55663815D01*
X172765037Y-55674308D01*
X173015017Y-55674308D01*
X173015018Y-55674307D01*
X173015018Y-54911809D01*
X173515018Y-54911809D01*
X173515018Y-55674308D01*
X173764990Y-55674308D01*
X173765004Y-55674307D01*
X173867715Y-55663814D01*
X174034137Y-55608667D01*
X174034148Y-55608662D01*
X174184682Y-55515811D01*
X174252074Y-55497370D01*
X174317480Y-55517897D01*
X174317492Y-55517879D01*
X174317565Y-55517924D01*
X174318737Y-55518292D01*
X174321921Y-55520611D01*
X174472858Y-55613710D01*
X174472863Y-55613712D01*
X174639285Y-55668859D01*
X174639292Y-55668860D01*
X174742002Y-55679353D01*
X174991982Y-55679353D01*
X174991983Y-55679352D01*
X174991983Y-54916854D01*
X175491983Y-54916854D01*
X175491983Y-55679353D01*
X175741955Y-55679353D01*
X175741969Y-55679352D01*
X175844680Y-55668859D01*
X176011102Y-55613712D01*
X176011107Y-55613710D01*
X176161712Y-55520816D01*
X176229104Y-55502376D01*
X176291906Y-55520816D01*
X176443582Y-55614371D01*
X176443587Y-55614373D01*
X176610009Y-55669520D01*
X176610016Y-55669521D01*
X176712726Y-55680014D01*
X176962706Y-55680014D01*
X176962707Y-55680013D01*
X176962707Y-54917515D01*
X177462707Y-54917515D01*
X177462707Y-55680014D01*
X177712679Y-55680014D01*
X177712693Y-55680013D01*
X177815404Y-55669520D01*
X177981826Y-55614373D01*
X177981831Y-55614371D01*
X178131052Y-55522330D01*
X178255022Y-55398360D01*
X178347063Y-55249139D01*
X178347065Y-55249134D01*
X178402212Y-55082712D01*
X178402213Y-55082705D01*
X178412706Y-54980001D01*
X178412707Y-54979988D01*
X178412707Y-54917515D01*
X177462707Y-54917515D01*
X176962707Y-54917515D01*
X176021730Y-54917515D01*
X176019479Y-54916854D01*
X175491983Y-54916854D01*
X174991983Y-54916854D01*
X174055390Y-54916854D01*
X174038209Y-54911809D01*
X173515018Y-54911809D01*
X173015018Y-54911809D01*
X172065019Y-54911809D01*
X170871371Y-54911809D01*
X170871371Y-54875432D01*
X170869588Y-54857981D01*
X170860871Y-54772643D01*
X170860870Y-54772640D01*
X170847121Y-54731148D01*
X170805686Y-54606106D01*
X170713584Y-54456784D01*
X170589528Y-54332728D01*
X170449921Y-54246618D01*
X170440208Y-54240627D01*
X170440203Y-54240625D01*
X170432891Y-54238202D01*
X170273669Y-54185441D01*
X170273667Y-54185440D01*
X170170882Y-54174940D01*
X169170870Y-54174940D01*
X169170852Y-54174941D01*
X169068075Y-54185440D01*
X169068072Y-54185441D01*
X168901540Y-54240625D01*
X168901535Y-54240627D01*
X168752214Y-54332729D01*
X168628160Y-54456783D01*
X168623679Y-54462451D01*
X168621211Y-54460499D01*
X168579681Y-54497812D01*
X168510712Y-54508996D01*
X168446646Y-54481117D01*
X168438472Y-54473642D01*
X166592496Y-52627666D01*
X166559011Y-52566343D01*
X166556177Y-52539985D01*
X166556177Y-51917212D01*
X166556176Y-51917206D01*
X166555359Y-51909609D01*
X166549769Y-51857600D01*
X166549071Y-51855729D01*
X166499475Y-51722754D01*
X166499471Y-51722747D01*
X166413225Y-51607538D01*
X166413222Y-51607535D01*
X166298013Y-51521289D01*
X166298006Y-51521285D01*
X166189990Y-51480998D01*
X166134056Y-51439127D01*
X166109639Y-51373663D01*
X166124491Y-51305390D01*
X166173896Y-51255984D01*
X166189991Y-51248634D01*
X166297762Y-51208438D01*
X166297771Y-51208433D01*
X166412865Y-51122273D01*
X166412868Y-51122270D01*
X166499028Y-51007176D01*
X166499032Y-51007169D01*
X166549274Y-50872462D01*
X166549276Y-50872455D01*
X166555677Y-50812927D01*
X166555678Y-50812910D01*
X166555678Y-50665083D01*
X164464575Y-50665083D01*
X164397536Y-50645398D01*
X164390274Y-50640356D01*
X164298009Y-50571287D01*
X164298006Y-50571285D01*
X164163160Y-50520991D01*
X164163161Y-50520991D01*
X164103561Y-50514584D01*
X164103559Y-50514583D01*
X164103551Y-50514583D01*
X164103542Y-50514583D01*
X162757807Y-50514583D01*
X162757801Y-50514584D01*
X162698194Y-50520991D01*
X162563349Y-50571285D01*
X162563342Y-50571289D01*
X162448135Y-50657534D01*
X162448129Y-50657540D01*
X162405193Y-50714895D01*
X162349259Y-50756765D01*
X162305927Y-50764583D01*
X155062092Y-50764583D01*
X155062076Y-50764582D01*
X155054480Y-50764582D01*
X154896366Y-50764582D01*
X154789010Y-50793348D01*
X154743633Y-50805507D01*
X154743632Y-50805508D01*
X154693519Y-50834442D01*
X154693518Y-50834443D01*
X154667437Y-50849501D01*
X154606708Y-50884562D01*
X154606705Y-50884564D01*
X154494901Y-50996369D01*
X152300839Y-53190430D01*
X152239516Y-53223915D01*
X152172897Y-53220031D01*
X152116707Y-53200742D01*
X152092676Y-53196732D01*
X151887775Y-53162540D01*
X151655677Y-53162540D01*
X151617276Y-53168948D01*
X151426741Y-53200742D01*
X151207230Y-53276101D01*
X151207221Y-53276104D01*
X151003097Y-53386571D01*
X151003091Y-53386575D01*
X150819948Y-53529121D01*
X150819945Y-53529124D01*
X150819942Y-53529126D01*
X150819942Y-53529127D01*
X150784189Y-53567965D01*
X150662742Y-53699892D01*
X150535801Y-53894191D01*
X150442568Y-54106739D01*
X150385592Y-54331731D01*
X150385590Y-54331742D01*
X150366426Y-54563033D01*
X150366426Y-54563046D01*
X150385590Y-54794337D01*
X150385592Y-54794348D01*
X150442568Y-55019340D01*
X150535801Y-55231888D01*
X150662742Y-55426187D01*
X150662745Y-55426191D01*
X150662747Y-55426193D01*
X150819942Y-55596953D01*
X150819945Y-55596955D01*
X150819948Y-55596958D01*
X151003091Y-55739504D01*
X151003097Y-55739508D01*
X151003100Y-55739510D01*
X151207223Y-55849976D01*
X151279862Y-55874913D01*
X151426741Y-55925337D01*
X151426743Y-55925337D01*
X151426745Y-55925338D01*
X151655677Y-55963540D01*
X151655678Y-55963540D01*
X151887774Y-55963540D01*
X151887775Y-55963540D01*
X152116707Y-55925338D01*
X152336229Y-55849976D01*
X152540352Y-55739510D01*
X152569289Y-55716988D01*
X152630274Y-55669521D01*
X152723510Y-55596953D01*
X152731856Y-55587886D01*
X152791736Y-55551894D01*
X152861575Y-55553989D01*
X152919194Y-55593509D01*
X152939270Y-55628531D01*
X152967929Y-55705370D01*
X152967932Y-55705375D01*
X153054178Y-55820584D01*
X153054181Y-55820587D01*
X153169390Y-55906833D01*
X153169397Y-55906837D01*
X153197445Y-55917298D01*
X153304243Y-55957131D01*
X153363853Y-55963540D01*
X153587226Y-55963539D01*
X153654265Y-55983223D01*
X153700020Y-56036027D01*
X153711226Y-56087539D01*
X153711226Y-57100760D01*
X153691541Y-57167799D01*
X153638737Y-57213554D01*
X153587226Y-57224760D01*
X152713622Y-57224760D01*
X152713604Y-57224761D01*
X152610827Y-57235260D01*
X152610824Y-57235261D01*
X152444292Y-57290445D01*
X152444287Y-57290447D01*
X152294966Y-57382549D01*
X152170913Y-57506602D01*
X152170912Y-57506604D01*
X152134918Y-57564961D01*
X152126655Y-57578357D01*
X152074707Y-57625081D01*
X152021116Y-57637260D01*
X151709779Y-57637260D01*
X151642740Y-57617575D01*
X151604241Y-57578358D01*
X151566590Y-57517315D01*
X151442534Y-57393259D01*
X151313048Y-57313392D01*
X151293214Y-57301158D01*
X151293209Y-57301156D01*
X151260885Y-57290445D01*
X151126675Y-57245972D01*
X151126673Y-57245971D01*
X151023888Y-57235471D01*
X150023876Y-57235471D01*
X150023858Y-57235472D01*
X149921081Y-57245971D01*
X149921078Y-57245972D01*
X149754546Y-57301156D01*
X149754541Y-57301158D01*
X149605220Y-57393260D01*
X149481167Y-57517313D01*
X149389065Y-57666634D01*
X149389063Y-57666639D01*
X149368540Y-57728574D01*
X149333879Y-57833174D01*
X149333879Y-57833175D01*
X149333878Y-57833175D01*
X149323378Y-57935954D01*
X149323378Y-58560972D01*
X149323379Y-58560990D01*
X149333878Y-58663767D01*
X149333879Y-58663770D01*
X149389063Y-58830302D01*
X149389065Y-58830307D01*
X149408588Y-58861958D01*
X149477845Y-58974243D01*
X149481167Y-58979628D01*
X149574829Y-59073290D01*
X149608314Y-59134613D01*
X149603330Y-59204305D01*
X149574829Y-59248652D01*
X149481167Y-59342313D01*
X149389065Y-59491634D01*
X149389063Y-59491639D01*
X149373777Y-59537771D01*
X149333879Y-59658174D01*
X149333879Y-59658175D01*
X149333878Y-59658175D01*
X149323378Y-59760954D01*
X149323378Y-60385972D01*
X149323379Y-60385990D01*
X149333878Y-60488767D01*
X149333879Y-60488770D01*
X149389063Y-60655302D01*
X149389065Y-60655307D01*
X149407935Y-60685900D01*
X149480911Y-60804214D01*
X149481167Y-60804628D01*
X149610329Y-60933790D01*
X149608514Y-60935604D01*
X149641945Y-60982811D01*
X149645087Y-61052610D01*
X149609994Y-61113028D01*
X149605863Y-61116773D01*
X149561096Y-61155564D01*
X149561088Y-61155571D01*
X149561087Y-61155573D01*
X149466866Y-61264311D01*
X149466864Y-61264313D01*
X149466864Y-61264314D01*
X149466862Y-61264317D01*
X149389136Y-61385259D01*
X149389133Y-61385265D01*
X149329364Y-61516143D01*
X149288858Y-61654093D01*
X149288855Y-61654105D01*
X149268381Y-61796512D01*
X149268381Y-62368404D01*
X149273525Y-62440341D01*
X149284484Y-62477664D01*
X149288244Y-62530243D01*
X149272983Y-62636393D01*
X149268381Y-62668402D01*
X149268381Y-63240291D01*
X148494216Y-63240291D01*
X148452871Y-63152878D01*
X148448216Y-63141639D01*
X148436196Y-63108048D01*
X148335311Y-62826103D01*
X148331779Y-62814458D01*
X148319989Y-62767394D01*
X148250350Y-62489393D01*
X148247976Y-62477463D01*
X148247025Y-62471055D01*
X148198799Y-62145965D01*
X148197606Y-62133855D01*
X148181075Y-61797470D01*
X148180926Y-61791384D01*
X148180926Y-51566355D01*
X148181121Y-51559401D01*
X148182482Y-51535167D01*
X148193784Y-51333951D01*
X148195341Y-51320141D01*
X148197848Y-51305390D01*
X148232583Y-51100958D01*
X148235677Y-51087408D01*
X148236221Y-51085520D01*
X148297222Y-50873786D01*
X148301812Y-50860670D01*
X148301869Y-50860533D01*
X148386895Y-50655264D01*
X148392915Y-50642764D01*
X148500462Y-50448171D01*
X148507857Y-50436403D01*
X148508422Y-50435607D01*
X148636515Y-50255075D01*
X148645165Y-50244230D01*
X148715894Y-50165083D01*
X164305678Y-50165083D01*
X165180678Y-50165083D01*
X165180678Y-49565083D01*
X165680678Y-49565083D01*
X165680678Y-50165083D01*
X166555678Y-50165083D01*
X166555678Y-50017255D01*
X166555677Y-50017238D01*
X166549276Y-49957710D01*
X166549274Y-49957703D01*
X166499032Y-49822996D01*
X166499028Y-49822989D01*
X166412868Y-49707895D01*
X166412865Y-49707892D01*
X166297771Y-49621732D01*
X166297764Y-49621728D01*
X166163057Y-49571486D01*
X166163050Y-49571484D01*
X166103522Y-49565083D01*
X165680678Y-49565083D01*
X165180678Y-49565083D01*
X164757833Y-49565083D01*
X164698305Y-49571484D01*
X164698298Y-49571486D01*
X164563591Y-49621728D01*
X164563584Y-49621732D01*
X164448490Y-49707892D01*
X164448487Y-49707895D01*
X164362327Y-49822989D01*
X164362323Y-49822996D01*
X164312081Y-49957703D01*
X164312079Y-49957710D01*
X164305678Y-50017238D01*
X164305678Y-50165083D01*
X148715894Y-50165083D01*
X148765690Y-50109360D01*
X148770243Y-50104958D01*
X148803315Y-50068138D01*
X148807867Y-50063334D01*
X148838661Y-50032541D01*
X148838662Y-50032538D01*
X148843981Y-50025435D01*
X148844519Y-50025838D01*
X148853027Y-50013976D01*
X149792751Y-48995353D01*
X149794933Y-48993049D01*
X150801807Y-47958340D01*
X150804059Y-47956086D01*
X151838168Y-46948523D01*
X151840435Y-46946373D01*
X152900995Y-45966722D01*
X152903401Y-45964559D01*
X153989589Y-45013574D01*
X153992063Y-45011466D01*
X154132917Y-44894623D01*
X162748190Y-44894623D01*
X162748190Y-45367467D01*
X162754591Y-45426995D01*
X162754593Y-45427002D01*
X162804835Y-45561709D01*
X162804839Y-45561716D01*
X162890999Y-45676810D01*
X162891002Y-45676813D01*
X163006096Y-45762973D01*
X163006103Y-45762977D01*
X163140810Y-45813219D01*
X163140817Y-45813221D01*
X163200345Y-45819622D01*
X163200362Y-45819623D01*
X163703190Y-45819623D01*
X163703190Y-44894623D01*
X162748190Y-44894623D01*
X154132917Y-44894623D01*
X154735664Y-44394623D01*
X162748190Y-44394623D01*
X163703190Y-44394623D01*
X163703190Y-43469623D01*
X163200345Y-43469623D01*
X163140817Y-43476024D01*
X163140810Y-43476026D01*
X163006103Y-43526268D01*
X163006096Y-43526272D01*
X162891002Y-43612432D01*
X162890999Y-43612435D01*
X162804839Y-43727529D01*
X162804835Y-43727536D01*
X162754593Y-43862243D01*
X162754591Y-43862250D01*
X162748190Y-43921778D01*
X162748190Y-44394623D01*
X154735664Y-44394623D01*
X154964731Y-44204604D01*
X155103217Y-44089724D01*
X155105738Y-44087689D01*
X156241077Y-43195842D01*
X156243616Y-43193902D01*
X157032660Y-42607377D01*
X162861815Y-42607377D01*
X162861816Y-42607383D01*
X162868223Y-42666990D01*
X162918517Y-42801835D01*
X162918521Y-42801842D01*
X163004767Y-42917051D01*
X163004770Y-42917054D01*
X163119979Y-43003300D01*
X163119986Y-43003304D01*
X163254832Y-43053598D01*
X163254831Y-43053598D01*
X163261759Y-43054342D01*
X163314442Y-43060007D01*
X164820187Y-43060006D01*
X164879798Y-43053598D01*
X165014646Y-43003303D01*
X165014648Y-43003301D01*
X165022955Y-43000203D01*
X165024170Y-43003460D01*
X165076090Y-42992135D01*
X165110874Y-43002348D01*
X165111675Y-43000203D01*
X165119981Y-43003301D01*
X165119984Y-43003303D01*
X165254832Y-43053598D01*
X165314442Y-43060007D01*
X166820187Y-43060006D01*
X166879798Y-43053598D01*
X167014646Y-43003303D01*
X167129861Y-42917053D01*
X167216111Y-42801838D01*
X167266406Y-42666990D01*
X167272815Y-42607380D01*
X167272815Y-42607352D01*
X167272993Y-42604055D01*
X167274249Y-42604122D01*
X167292500Y-42541968D01*
X167345304Y-42496213D01*
X167396815Y-42485007D01*
X167462271Y-42485007D01*
X167529310Y-42504692D01*
X167575065Y-42557496D01*
X167581571Y-42581226D01*
X167582990Y-42580891D01*
X167584773Y-42588438D01*
X167635068Y-42723287D01*
X167635072Y-42723294D01*
X167721318Y-42838503D01*
X167721321Y-42838506D01*
X167836530Y-42924752D01*
X167836537Y-42924756D01*
X167881484Y-42941520D01*
X167971383Y-42975050D01*
X168030993Y-42981459D01*
X168594164Y-42981458D01*
X168661203Y-43001142D01*
X168697267Y-43036569D01*
X168745909Y-43109369D01*
X168745913Y-43109374D01*
X169011278Y-43374739D01*
X169044763Y-43436062D01*
X169039779Y-43505754D01*
X168997907Y-43561687D01*
X168936854Y-43585709D01*
X168921489Y-43587361D01*
X168897910Y-43596155D01*
X168828219Y-43601137D01*
X168811247Y-43596154D01*
X168786352Y-43586869D01*
X168786351Y-43586868D01*
X168786349Y-43586868D01*
X168726739Y-43580459D01*
X168726729Y-43580459D01*
X168030995Y-43580459D01*
X168030989Y-43580460D01*
X167971382Y-43586867D01*
X167836537Y-43637161D01*
X167836530Y-43637165D01*
X167721322Y-43723411D01*
X167721321Y-43723412D01*
X167721320Y-43723413D01*
X167640953Y-43830770D01*
X167585019Y-43872641D01*
X167541686Y-43880459D01*
X167245209Y-43880459D01*
X167178170Y-43860774D01*
X167132415Y-43807970D01*
X167129027Y-43799792D01*
X167101987Y-43727294D01*
X167101983Y-43727287D01*
X167015737Y-43612078D01*
X167015734Y-43612075D01*
X166900525Y-43525829D01*
X166900518Y-43525825D01*
X166765672Y-43475531D01*
X166765673Y-43475531D01*
X166706073Y-43469124D01*
X166706071Y-43469123D01*
X166706063Y-43469123D01*
X166706054Y-43469123D01*
X165200319Y-43469123D01*
X165200313Y-43469124D01*
X165140706Y-43475531D01*
X164997549Y-43528926D01*
X164996400Y-43525846D01*
X164943755Y-43537271D01*
X164909403Y-43527186D01*
X164908589Y-43529369D01*
X164765569Y-43476026D01*
X164765562Y-43476024D01*
X164706034Y-43469623D01*
X164203190Y-43469623D01*
X164203190Y-45819623D01*
X164706018Y-45819623D01*
X164706034Y-45819622D01*
X164765562Y-45813221D01*
X164765566Y-45813220D01*
X164908588Y-45759876D01*
X164909837Y-45763226D01*
X164961388Y-45751960D01*
X164996794Y-45762342D01*
X164997549Y-45760320D01*
X165050146Y-45779937D01*
X165140707Y-45813714D01*
X165200317Y-45820123D01*
X165424139Y-45820122D01*
X165491178Y-45839806D01*
X165536933Y-45892610D01*
X165548139Y-45944122D01*
X165548139Y-45963663D01*
X165528454Y-46030702D01*
X165491181Y-46067977D01*
X165467608Y-46083126D01*
X165467604Y-46083130D01*
X165373389Y-46191859D01*
X165373383Y-46191868D01*
X165313615Y-46322739D01*
X165313614Y-46322744D01*
X165293139Y-46465158D01*
X165293139Y-47965161D01*
X165298283Y-48037099D01*
X165338821Y-48175153D01*
X165416606Y-48296189D01*
X165416610Y-48296193D01*
X165510979Y-48377965D01*
X165525345Y-48390413D01*
X165565813Y-48408894D01*
X165656219Y-48450182D01*
X165656222Y-48450182D01*
X165656223Y-48450183D01*
X165798639Y-48470659D01*
X165798642Y-48470659D01*
X166798623Y-48470659D01*
X166798639Y-48470659D01*
X166862161Y-48466652D01*
X166862171Y-48466649D01*
X166868462Y-48465597D01*
X166868838Y-48467847D01*
X166928310Y-48468839D01*
X166986450Y-48507587D01*
X167014412Y-48571618D01*
X167003317Y-48640601D01*
X166995206Y-48655038D01*
X166939599Y-48740151D01*
X166839709Y-48967876D01*
X166778665Y-49208933D01*
X166778663Y-49208945D01*
X166758130Y-49456752D01*
X166758130Y-49456763D01*
X166778663Y-49704570D01*
X166778665Y-49704582D01*
X166839709Y-49945639D01*
X166939599Y-50173364D01*
X167075606Y-50381540D01*
X167075609Y-50381543D01*
X167244029Y-50564496D01*
X167440264Y-50717232D01*
X167658963Y-50835586D01*
X167720093Y-50856572D01*
X167894157Y-50916329D01*
X167897525Y-50916891D01*
X167898784Y-50917500D01*
X167899129Y-50917588D01*
X167899111Y-50917658D01*
X167960411Y-50947340D01*
X167996852Y-51006953D01*
X167995278Y-51076805D01*
X167956190Y-51134718D01*
X167953281Y-51137053D01*
X167793142Y-51261694D01*
X167793140Y-51261695D01*
X167793140Y-51261696D01*
X167786723Y-51268667D01*
X167624717Y-51444651D01*
X167488710Y-51652827D01*
X167388820Y-51880552D01*
X167327776Y-52121609D01*
X167327774Y-52121621D01*
X167307241Y-52369428D01*
X167307241Y-52369439D01*
X167327774Y-52617246D01*
X167327776Y-52617258D01*
X167388820Y-52858315D01*
X167488710Y-53086040D01*
X167624717Y-53294216D01*
X167635099Y-53305494D01*
X167793140Y-53477172D01*
X167989375Y-53629908D01*
X167989377Y-53629909D01*
X168197598Y-53742593D01*
X168208074Y-53748262D01*
X168443270Y-53829005D01*
X168688549Y-53869934D01*
X168937219Y-53869934D01*
X169182498Y-53829005D01*
X169417694Y-53748262D01*
X169636393Y-53629908D01*
X169832628Y-53477172D01*
X170001048Y-53294219D01*
X170137057Y-53086041D01*
X170236947Y-52858315D01*
X170297992Y-52617255D01*
X170299113Y-52603732D01*
X170318527Y-52369439D01*
X170318527Y-52369428D01*
X170297993Y-52121621D01*
X170297990Y-52121604D01*
X170279741Y-52049543D01*
X170282365Y-51979722D01*
X170312265Y-51931420D01*
X170588016Y-51655670D01*
X170881591Y-51362095D01*
X170927305Y-51293678D01*
X170932419Y-51286025D01*
X170944019Y-51268663D01*
X170963723Y-51239174D01*
X171020297Y-51102592D01*
X171036090Y-51023196D01*
X171049139Y-50957599D01*
X171049139Y-48466653D01*
X171068824Y-48399614D01*
X171106100Y-48362337D01*
X171129671Y-48347190D01*
X171220253Y-48242653D01*
X171279029Y-48204881D01*
X171348899Y-48204881D01*
X171388274Y-48224591D01*
X171439470Y-48262916D01*
X171440059Y-48263357D01*
X171440062Y-48263359D01*
X171574908Y-48313653D01*
X171574907Y-48313653D01*
X171581835Y-48314397D01*
X171634518Y-48320062D01*
X173140263Y-48320061D01*
X173199874Y-48313653D01*
X173334722Y-48263358D01*
X173334724Y-48263356D01*
X173343031Y-48260258D01*
X173344184Y-48263351D01*
X173396730Y-48251906D01*
X173431173Y-48262011D01*
X173431993Y-48259815D01*
X173575014Y-48313159D01*
X173575018Y-48313160D01*
X173634546Y-48319561D01*
X173634563Y-48319562D01*
X174137391Y-48319562D01*
X174137391Y-47394562D01*
X174637391Y-47394562D01*
X174637391Y-48319562D01*
X175140219Y-48319562D01*
X175140235Y-48319561D01*
X175199763Y-48313160D01*
X175199770Y-48313158D01*
X175334477Y-48262916D01*
X175334484Y-48262912D01*
X175449578Y-48176752D01*
X175449581Y-48176749D01*
X175535741Y-48061655D01*
X175535745Y-48061648D01*
X175585987Y-47926941D01*
X175585989Y-47926934D01*
X175592390Y-47867406D01*
X175592391Y-47867389D01*
X175592391Y-47394562D01*
X174637391Y-47394562D01*
X174137391Y-47394562D01*
X174137391Y-45969562D01*
X174637391Y-45969562D01*
X174637391Y-46894562D01*
X175592391Y-46894562D01*
X175592391Y-46421734D01*
X175592390Y-46421717D01*
X175585989Y-46362189D01*
X175585987Y-46362182D01*
X175535745Y-46227475D01*
X175535741Y-46227468D01*
X175449581Y-46112374D01*
X175449578Y-46112371D01*
X175334484Y-46026211D01*
X175334477Y-46026207D01*
X175199770Y-45975965D01*
X175199763Y-45975963D01*
X175140235Y-45969562D01*
X174637391Y-45969562D01*
X174137391Y-45969562D01*
X173634546Y-45969562D01*
X173575018Y-45975963D01*
X173575011Y-45975965D01*
X173431992Y-46029308D01*
X173430755Y-46025993D01*
X173378922Y-46037203D01*
X173343777Y-46026865D01*
X173343032Y-46028865D01*
X173218558Y-45982439D01*
X173162624Y-45940568D01*
X173138207Y-45875103D01*
X173137891Y-45866257D01*
X173137891Y-45819713D01*
X173157576Y-45752674D01*
X173210380Y-45706919D01*
X173226950Y-45700738D01*
X173272390Y-45687396D01*
X173285390Y-45681459D01*
X173403157Y-45627677D01*
X173403162Y-45627673D01*
X173403175Y-45627668D01*
X173524211Y-45549884D01*
X173525436Y-45548823D01*
X173590881Y-45492115D01*
X173632872Y-45455730D01*
X173632875Y-45455727D01*
X173727096Y-45346989D01*
X173803029Y-45228835D01*
X173804825Y-45226040D01*
X173804827Y-45226036D01*
X173804828Y-45226035D01*
X173864598Y-45095157D01*
X173905105Y-44957202D01*
X173925581Y-44814787D01*
X173925581Y-44242898D01*
X173920436Y-44170958D01*
X173909477Y-44133638D01*
X173905717Y-44081056D01*
X173925581Y-43942898D01*
X173925581Y-43371009D01*
X173905105Y-43228594D01*
X173864598Y-43090639D01*
X173804828Y-42959761D01*
X173797673Y-42948628D01*
X173730704Y-42844421D01*
X173729883Y-42842979D01*
X173727092Y-42838799D01*
X173632873Y-42730067D01*
X173632870Y-42730064D01*
X173524216Y-42635916D01*
X173524211Y-42635912D01*
X173479818Y-42607383D01*
X173403175Y-42558128D01*
X173403168Y-42558125D01*
X173403162Y-42558121D01*
X173278437Y-42501161D01*
X173274138Y-42498912D01*
X173134342Y-42457864D01*
X173134332Y-42457861D01*
X173006381Y-42439465D01*
X172992022Y-42437401D01*
X172992021Y-42437401D01*
X172935682Y-42437401D01*
X172935672Y-42437398D01*
X172884317Y-42437398D01*
X172455845Y-42437398D01*
X172404508Y-42437398D01*
X172404480Y-42437401D01*
X172348140Y-42437401D01*
X172214602Y-42456601D01*
X172214600Y-42456601D01*
X172205825Y-42457862D01*
X172067767Y-42498401D01*
X171936999Y-42558121D01*
X171936989Y-42558126D01*
X171936987Y-42558128D01*
X171901567Y-42580891D01*
X171815950Y-42635912D01*
X171796736Y-42652560D01*
X171785714Y-42662111D01*
X171722160Y-42691136D01*
X171704513Y-42692398D01*
X171199826Y-42692398D01*
X171132787Y-42672713D01*
X171087032Y-42619909D01*
X171076537Y-42555141D01*
X171079366Y-42528832D01*
X171079365Y-41333087D01*
X171074165Y-41284716D01*
X171072957Y-41273475D01*
X171022663Y-41138630D01*
X171022659Y-41138623D01*
X170936413Y-41023414D01*
X170936410Y-41023411D01*
X170821201Y-40937165D01*
X170821194Y-40937161D01*
X170686348Y-40886867D01*
X170686349Y-40886867D01*
X170626749Y-40880460D01*
X170626747Y-40880459D01*
X170626739Y-40880459D01*
X170626730Y-40880459D01*
X170623414Y-40880281D01*
X170623490Y-40878852D01*
X170561924Y-40860774D01*
X170541282Y-40844140D01*
X170245004Y-40547862D01*
X170245002Y-40547859D01*
X170126131Y-40428988D01*
X170126123Y-40428982D01*
X170028661Y-40372713D01*
X170028659Y-40372712D01*
X169989204Y-40349932D01*
X169989203Y-40349931D01*
X169976677Y-40346574D01*
X169836471Y-40309006D01*
X169678357Y-40309006D01*
X169670761Y-40309006D01*
X169670745Y-40309007D01*
X165121372Y-40309007D01*
X164963257Y-40309007D01*
X164810530Y-40349930D01*
X164810529Y-40349930D01*
X164810527Y-40349931D01*
X164810524Y-40349932D01*
X164771070Y-40372712D01*
X164771068Y-40372713D01*
X164673605Y-40428982D01*
X164673597Y-40428988D01*
X164610849Y-40491737D01*
X164561795Y-40540791D01*
X164561793Y-40540793D01*
X164429897Y-40672689D01*
X164368574Y-40706173D01*
X164342216Y-40709007D01*
X163314444Y-40709007D01*
X163314438Y-40709008D01*
X163254831Y-40715415D01*
X163119986Y-40765709D01*
X163119979Y-40765713D01*
X163004770Y-40851959D01*
X163004767Y-40851962D01*
X162918521Y-40967171D01*
X162918517Y-40967178D01*
X162868223Y-41102024D01*
X162861816Y-41161623D01*
X162861815Y-41161642D01*
X162861815Y-42607377D01*
X157032660Y-42607377D01*
X157402318Y-42332597D01*
X157404881Y-42330745D01*
X158586114Y-41500600D01*
X158588733Y-41498811D01*
X159791682Y-40700401D01*
X159794302Y-40698712D01*
X161018109Y-39932608D01*
X161020833Y-39930953D01*
X162264495Y-39197780D01*
X162267291Y-39196180D01*
X163530105Y-38496351D01*
X163532934Y-38494832D01*
X164813920Y-37828890D01*
X164816740Y-37827471D01*
X166115041Y-37195864D01*
X166117909Y-37194516D01*
X167432533Y-36597726D01*
X167435475Y-36596438D01*
X168765515Y-36034874D01*
X168768481Y-36033667D01*
X170113011Y-35507721D01*
X170116039Y-35506583D01*
X171474072Y-35016640D01*
X171477057Y-35015608D01*
X172847755Y-34561972D01*
X172850815Y-34561006D01*
X174232964Y-34144080D01*
X174236093Y-34143181D01*
X175628934Y-33763189D01*
X175631997Y-33762397D01*
X177034462Y-33419635D01*
X177037637Y-33418903D01*
X178448714Y-33113616D01*
X178451836Y-33112984D01*
X179870520Y-32845389D01*
X179873735Y-32844827D01*
X181299088Y-32615101D01*
X181302201Y-32614642D01*
X182733198Y-32422953D01*
X182736336Y-32422575D01*
X184171894Y-32269067D01*
X184175154Y-32268763D01*
X185614233Y-32153546D01*
X185617418Y-32153333D01*
X187059085Y-32076480D01*
X187062360Y-32076349D01*
X188505505Y-32037918D01*
X188508802Y-32037875D01*
X189952519Y-32037891D01*
G37*
%TD.AperFunction*%
%TD*%
M02*
