%TF.GenerationSoftware,KiCad,Pcbnew,8.0.0*%
%TF.CreationDate,2024-03-23T23:06:13+02:00*%
%TF.ProjectId,test,74657374-2e6b-4696-9361-645f70636258,rev?*%
%TF.SameCoordinates,Original*%
%TF.FileFunction,Soldermask,Top*%
%TF.FilePolarity,Negative*%
%FSLAX46Y46*%
G04 Gerber Fmt 4.6, Leading zero omitted, Abs format (unit mm)*
G04 Created by KiCad (PCBNEW 8.0.0) date 2024-03-23 23:06:13*
%MOMM*%
%LPD*%
G01*
G04 APERTURE LIST*
G04 Aperture macros list*
%AMRoundRect*
0 Rectangle with rounded corners*
0 $1 Rounding radius*
0 $2 $3 $4 $5 $6 $7 $8 $9 X,Y pos of 4 corners*
0 Add a 4 corners polygon primitive as box body*
4,1,4,$2,$3,$4,$5,$6,$7,$8,$9,$2,$3,0*
0 Add four circle primitives for the rounded corners*
1,1,$1+$1,$2,$3*
1,1,$1+$1,$4,$5*
1,1,$1+$1,$6,$7*
1,1,$1+$1,$8,$9*
0 Add four rect primitives between the rounded corners*
20,1,$1+$1,$2,$3,$4,$5,0*
20,1,$1+$1,$4,$5,$6,$7,0*
20,1,$1+$1,$6,$7,$8,$9,0*
20,1,$1+$1,$8,$9,$2,$3,0*%
%AMFreePoly0*
4,1,35,0.528284,0.778284,0.540000,0.750000,0.540000,-0.750000,0.528284,-0.778284,0.500000,-0.790000,0.000000,-0.790000,-0.012286,-0.784911,-0.071157,-0.784911,-0.082426,-0.783291,-0.218977,-0.743196,-0.229334,-0.738466,-0.349056,-0.661525,-0.357660,-0.654069,-0.450857,-0.546514,-0.457012,-0.536936,-0.516131,-0.407482,-0.519339,-0.396559,-0.539593,-0.255693,-0.540000,-0.250000,-0.540000,0.250000,
-0.539593,0.255693,-0.519339,0.396559,-0.516131,0.407482,-0.457012,0.536936,-0.450857,0.546514,-0.357660,0.654069,-0.349056,0.661525,-0.229334,0.738466,-0.218977,0.743196,-0.082426,0.783291,-0.071157,0.784911,-0.012286,0.784911,0.000000,0.790000,0.500000,0.790000,0.528284,0.778284,0.528284,0.778284,$1*%
%AMFreePoly1*
4,1,35,0.012286,0.784911,0.071157,0.784911,0.082426,0.783291,0.218977,0.743196,0.229334,0.738466,0.349056,0.661525,0.357660,0.654069,0.450857,0.546514,0.457012,0.536936,0.516131,0.407482,0.519339,0.396559,0.539593,0.255693,0.540000,0.250000,0.540000,-0.250000,0.539593,-0.255693,0.519339,-0.396559,0.516131,-0.407482,0.457012,-0.536936,0.450857,-0.546514,0.357660,-0.654069,
0.349056,-0.661525,0.229334,-0.738466,0.218977,-0.743196,0.082426,-0.783291,0.071157,-0.784911,0.012286,-0.784911,0.000000,-0.790000,-0.500000,-0.790000,-0.528284,-0.778284,-0.540000,-0.750000,-0.540000,0.750000,-0.528284,0.778284,-0.500000,0.790000,0.000000,0.790000,0.012286,0.784911,0.012286,0.784911,$1*%
%AMFreePoly2*
4,1,16,0.528284,0.778284,0.533282,0.772188,1.033282,0.022188,1.039223,-0.007845,1.033282,-0.022188,0.533282,-0.772188,0.507845,-0.789223,0.500000,-0.790000,-0.500000,-0.790000,-0.528284,-0.778284,-0.540000,-0.750000,-0.540000,0.750000,-0.528284,0.778284,-0.500000,0.790000,0.500000,0.790000,0.528284,0.778284,0.528284,0.778284,$1*%
G04 Aperture macros list end*
%ADD10FreePoly0,90.000000*%
%ADD11FreePoly1,90.000000*%
%ADD12R,1.500000X1.500000*%
%ADD13FreePoly2,180.000000*%
%ADD14FreePoly2,0.000000*%
%ADD15RoundRect,0.269512X0.470488X-0.282988X0.470488X0.282988X-0.470488X0.282988X-0.470488X-0.282988X0*%
%ADD16RoundRect,0.269512X-0.470488X0.282988X-0.470488X-0.282988X0.470488X-0.282988X0.470488X0.282988X0*%
%ADD17RoundRect,0.269512X-0.282988X-0.470488X0.282988X-0.470488X0.282988X0.470488X-0.282988X0.470488X0*%
%ADD18RoundRect,0.040000X-0.705000X-0.675000X0.705000X-0.675000X0.705000X0.675000X-0.705000X0.675000X0*%
%ADD19RoundRect,0.040000X-1.000000X-1.000000X1.000000X-1.000000X1.000000X1.000000X-1.000000X1.000000X0*%
%ADD20RoundRect,0.040000X0.705000X0.675000X-0.705000X0.675000X-0.705000X-0.675000X0.705000X-0.675000X0*%
%ADD21RoundRect,0.040000X0.900000X0.900000X-0.900000X0.900000X-0.900000X-0.900000X0.900000X-0.900000X0*%
%ADD22C,1.880000*%
%ADD23RoundRect,0.040000X1.102270X-0.636396X0.636396X1.102270X-1.102270X0.636396X-0.636396X-1.102270X0*%
%ADD24FreePoly0,270.000000*%
%ADD25FreePoly1,270.000000*%
%ADD26RoundRect,0.040000X-0.300000X0.550000X-0.300000X-0.550000X0.300000X-0.550000X0.300000X0.550000X0*%
%ADD27RoundRect,0.040000X-0.625000X-0.350000X0.625000X-0.350000X0.625000X0.350000X-0.625000X0.350000X0*%
%ADD28RoundRect,0.040000X0.625000X0.350000X-0.625000X0.350000X-0.625000X-0.350000X0.625000X-0.350000X0*%
%ADD29RoundRect,0.040000X-0.636396X1.102270X-1.102270X-0.636396X0.636396X-1.102270X1.102270X0.636396X0*%
%ADD30RoundRect,0.040000X-0.675000X0.705000X-0.675000X-0.705000X0.675000X-0.705000X0.675000X0.705000X0*%
%ADD31RoundRect,0.040000X0.675000X-0.705000X0.675000X0.705000X-0.675000X0.705000X-0.675000X-0.705000X0*%
%ADD32RoundRect,0.040000X0.850000X-0.850000X0.850000X0.850000X-0.850000X0.850000X-0.850000X-0.850000X0*%
%ADD33O,1.780000X1.780000*%
G04 APERTURE END LIST*
D10*
%TO.C,JP28*%
X213345599Y-45521379D03*
D11*
X213345599Y-44221379D03*
%TD*%
D10*
%TO.C,JP27*%
X172670081Y-44742898D03*
D11*
X172670081Y-43442898D03*
%TD*%
D12*
%TO.C,JP14*%
X169498639Y-47215159D03*
X167098639Y-47215159D03*
D13*
X170298639Y-47215159D03*
D14*
X166298639Y-47215159D03*
%TD*%
D12*
%TO.C,JP13*%
X210060091Y-46955193D03*
X207660091Y-46955193D03*
D13*
X210860091Y-46955193D03*
D14*
X206860091Y-46955193D03*
%TD*%
D15*
%TO.C,R1*%
X186324976Y-50292039D03*
X186324976Y-48467039D03*
%TD*%
D16*
%TO.C,R2*%
X166478154Y-61811222D03*
X166478154Y-63636222D03*
%TD*%
D15*
%TO.C,R3*%
X150523878Y-60073471D03*
X150523878Y-58248471D03*
%TD*%
%TO.C,R4*%
X183168496Y-60383947D03*
X183168496Y-58558947D03*
%TD*%
%TO.C,R5*%
X169670872Y-57012940D03*
X169670872Y-55187940D03*
%TD*%
%TO.C,R6*%
X192524381Y-50129376D03*
X192524381Y-48304376D03*
%TD*%
%TO.C,R7*%
X196603476Y-60165331D03*
X196603476Y-58340331D03*
%TD*%
%TO.C,R8*%
X181244976Y-50292039D03*
X181244976Y-48467039D03*
%TD*%
D16*
%TO.C,R9*%
X177212707Y-52842515D03*
X177212707Y-54667515D03*
%TD*%
%TO.C,R10*%
X200921048Y-53458944D03*
X200921048Y-55283944D03*
%TD*%
D15*
%TO.C,R11*%
X183784976Y-50292039D03*
X183784976Y-48467039D03*
%TD*%
%TO.C,R12*%
X153213624Y-60062760D03*
X153213624Y-58237760D03*
%TD*%
%TO.C,R13*%
X155736343Y-60074279D03*
X155736343Y-58249279D03*
%TD*%
%TO.C,R14*%
X195064381Y-50129376D03*
X195064381Y-48304376D03*
%TD*%
%TO.C,R15*%
X197604381Y-50129376D03*
X197604381Y-48304376D03*
%TD*%
D16*
%TO.C,R16*%
X173265018Y-52836809D03*
X173265018Y-54661809D03*
%TD*%
%TO.C,R17*%
X175241983Y-52841854D03*
X175241983Y-54666854D03*
%TD*%
%TO.C,R18*%
X164467929Y-61808301D03*
X164467929Y-63633301D03*
%TD*%
%TO.C,R19*%
X162447215Y-61808301D03*
X162447215Y-63633301D03*
%TD*%
%TO.C,R20*%
X211732221Y-61357592D03*
X211732221Y-63182592D03*
%TD*%
D17*
%TO.C,R21*%
X206561859Y-57819683D03*
X208386859Y-57819683D03*
%TD*%
D15*
%TO.C,R22*%
X224894143Y-59910658D03*
X224894143Y-58085658D03*
%TD*%
%TO.C,R23*%
X222321647Y-59954632D03*
X222321647Y-58129632D03*
%TD*%
%TO.C,R24*%
X219749151Y-59899697D03*
X219749151Y-58074697D03*
%TD*%
D16*
%TO.C,R25*%
X202875470Y-53457605D03*
X202875470Y-55282605D03*
%TD*%
%TO.C,R26*%
X204826831Y-53457605D03*
X204826831Y-55282605D03*
%TD*%
%TO.C,R27*%
X213702336Y-61354375D03*
X213702336Y-63179375D03*
%TD*%
%TO.C,R28*%
X215662979Y-61354375D03*
X215662979Y-63179375D03*
%TD*%
D18*
%TO.C,C9*%
X212788521Y-42200261D03*
X214788521Y-42200261D03*
%TD*%
%TO.C,C1*%
X176157605Y-57955911D03*
X178157605Y-57955911D03*
%TD*%
D19*
%TO.C,TP5*%
X198850987Y-45871692D03*
%TD*%
%TO.C,TP1*%
X177495182Y-46137808D03*
%TD*%
D18*
%TO.C,C8*%
X212994540Y-47967358D03*
X214994540Y-47967358D03*
%TD*%
D19*
%TO.C,TP4*%
X158577599Y-58268183D03*
%TD*%
D10*
%TO.C,JP21*%
X202898175Y-51641425D03*
D11*
X202898175Y-50341425D03*
%TD*%
D20*
%TO.C,C6*%
X207418225Y-61284732D03*
X205418225Y-61284732D03*
%TD*%
D10*
%TO.C,JP22*%
X205438175Y-51641425D03*
D11*
X205438175Y-50341425D03*
%TD*%
D18*
%TO.C,C12*%
X172387391Y-47144562D03*
X174387391Y-47144562D03*
%TD*%
D20*
%TO.C,C10*%
X165953190Y-44644623D03*
X163953190Y-44644623D03*
%TD*%
D10*
%TO.C,JP25*%
X216276393Y-59508259D03*
D11*
X216276393Y-58208259D03*
%TD*%
D21*
%TO.C,CGQ2*%
X160825200Y-54559030D03*
D22*
X158285200Y-54559030D03*
%TD*%
D21*
%TO.C,U4*%
X226680404Y-54574658D03*
D22*
X224140404Y-54574658D03*
%TD*%
D10*
%TO.C,JP15*%
X175574187Y-51012991D03*
D11*
X175574187Y-49712991D03*
%TD*%
D23*
%TO.C,CGQ3*%
X193991153Y-43176498D03*
D22*
X193333753Y-40723046D03*
%TD*%
D19*
%TO.C,TP7*%
X213552848Y-54632582D03*
%TD*%
D10*
%TO.C,JP20*%
X166986485Y-59973073D03*
D11*
X166986485Y-58673073D03*
%TD*%
D24*
%TO.C,JP7*%
X150523881Y-61868402D03*
D25*
X150523881Y-63168402D03*
%TD*%
D26*
%TO.C,U5*%
X209051087Y-44498323D03*
X210001087Y-44498323D03*
X210951087Y-44498323D03*
X210951087Y-41798323D03*
X210001087Y-41798323D03*
X209051087Y-41798323D03*
%TD*%
D27*
%TO.C,Q3*%
X193845106Y-57844032D03*
X193845106Y-55944032D03*
X191845106Y-56894032D03*
%TD*%
D19*
%TO.C,TP8*%
X227548922Y-58444061D03*
%TD*%
D28*
%TO.C,Q1*%
X186021166Y-56088458D03*
X186021166Y-57988458D03*
X188021166Y-57038458D03*
%TD*%
D10*
%TO.C,JP18*%
X164423382Y-59968028D03*
D11*
X164423382Y-58668028D03*
%TD*%
D19*
%TO.C,TP2*%
X164406353Y-55779019D03*
%TD*%
D24*
%TO.C,JP10*%
X224888835Y-61920004D03*
D25*
X224888835Y-63220004D03*
%TD*%
D24*
%TO.C,JP6*%
X183777636Y-52093571D03*
D25*
X183777636Y-53393571D03*
%TD*%
D21*
%TO.C,CGQ4*%
X220223258Y-54580179D03*
D22*
X217683258Y-54580179D03*
%TD*%
D23*
%TO.C,U3*%
X192309943Y-36940771D03*
D22*
X191652543Y-34487319D03*
%TD*%
D18*
%TO.C,C11*%
X164067315Y-41884507D03*
X166067315Y-41884507D03*
%TD*%
D19*
%TO.C,TP3*%
X203320966Y-44875525D03*
%TD*%
D29*
%TO.C,U1*%
X186784954Y-34473617D03*
D22*
X186127554Y-36927069D03*
%TD*%
D11*
%TO.C,JP24*%
X213736393Y-58208259D03*
D10*
X213736393Y-59508259D03*
%TD*%
D19*
%TO.C,TP6*%
X180805512Y-46137808D03*
%TD*%
D30*
%TO.C,C3*%
X199614140Y-58447197D03*
X199614140Y-60447197D03*
%TD*%
D10*
%TO.C,JP16*%
X173014404Y-51007547D03*
D11*
X173014404Y-49707547D03*
%TD*%
D29*
%TO.C,CGQ1*%
X185103013Y-40711603D03*
D22*
X184445613Y-43165055D03*
%TD*%
D21*
%TO.C,U2*%
X154311726Y-54563040D03*
D22*
X151771726Y-54563040D03*
%TD*%
D24*
%TO.C,JP2*%
X192524381Y-51970813D03*
D25*
X192524381Y-53270813D03*
%TD*%
D26*
%TO.C,U6*%
X168378866Y-44630959D03*
X169328866Y-44630959D03*
X170278866Y-44630959D03*
X170278866Y-41930959D03*
X169328866Y-41930959D03*
X168378866Y-41930959D03*
%TD*%
D30*
%TO.C,C2*%
X169568741Y-60435233D03*
X169568741Y-62435233D03*
%TD*%
D24*
%TO.C,JP4*%
X186317633Y-52067653D03*
D25*
X186317633Y-53367653D03*
%TD*%
D24*
%TO.C,JP11*%
X222321647Y-61899115D03*
D25*
X222321647Y-63199115D03*
%TD*%
D24*
%TO.C,JP1*%
X197612196Y-51981499D03*
D25*
X197612196Y-53281499D03*
%TD*%
D24*
%TO.C,JP8*%
X153167552Y-61890238D03*
D25*
X153167552Y-63190238D03*
%TD*%
D24*
%TO.C,JP9*%
X155733468Y-61892279D03*
D25*
X155733468Y-63192279D03*
%TD*%
D10*
%TO.C,JP17*%
X178137291Y-51012991D03*
D11*
X178137291Y-49712991D03*
%TD*%
D24*
%TO.C,JP12*%
X219749151Y-61899115D03*
D25*
X219749151Y-63199115D03*
%TD*%
D24*
%TO.C,JP5*%
X181237638Y-52119489D03*
D25*
X181237638Y-53419489D03*
%TD*%
D27*
%TO.C,Q2*%
X165430678Y-52315083D03*
X165430678Y-50415083D03*
X163430678Y-51365083D03*
%TD*%
D28*
%TO.C,Q4*%
X212371010Y-50268217D03*
X212371010Y-52168217D03*
X214371010Y-51218217D03*
%TD*%
D10*
%TO.C,JP23*%
X200358175Y-51641425D03*
D11*
X200358175Y-50341425D03*
%TD*%
D10*
%TO.C,JP19*%
X161860677Y-59968028D03*
D11*
X161860677Y-58668028D03*
%TD*%
D24*
%TO.C,JP3*%
X195070139Y-51970813D03*
D25*
X195070139Y-53270813D03*
%TD*%
D31*
%TO.C,C7*%
X206663647Y-44541154D03*
X206663647Y-42541154D03*
%TD*%
D10*
%TO.C,JP26*%
X211196393Y-59508259D03*
D11*
X211196393Y-58208259D03*
%TD*%
D32*
%TO.C,J1*%
X205730422Y-67212480D03*
D33*
X205730422Y-64672480D03*
X203190422Y-67212480D03*
X203190422Y-64672480D03*
X200650422Y-67212480D03*
X200650422Y-64672480D03*
X198110422Y-67212480D03*
X198110422Y-64672480D03*
X195570422Y-67212480D03*
X195570422Y-64672480D03*
X193030422Y-67212480D03*
X193030422Y-64672480D03*
X190490422Y-67212480D03*
X190490422Y-64672480D03*
X187950422Y-67212480D03*
X187950422Y-64672480D03*
X185410422Y-67212480D03*
X185410422Y-64672480D03*
X182870422Y-67212480D03*
X182870422Y-64672480D03*
X180330422Y-67212480D03*
X180330422Y-64672480D03*
X177790422Y-67212480D03*
X177790422Y-64672480D03*
X175250422Y-67212480D03*
X175250422Y-64672480D03*
X172710422Y-67212480D03*
X172710422Y-64672480D03*
%TD*%
M02*
