%TF.GenerationSoftware,KiCad,Pcbnew,8.0.0*%
%TF.CreationDate,2024-03-23T23:06:13+02:00*%
%TF.ProjectId,test,74657374-2e6b-4696-9361-645f70636258,rev?*%
%TF.SameCoordinates,Original*%
%TF.FileFunction,Legend,Bot*%
%TF.FilePolarity,Positive*%
%FSLAX46Y46*%
G04 Gerber Fmt 4.6, Leading zero omitted, Abs format (unit mm)*
G04 Created by KiCad (PCBNEW 8.0.0) date 2024-03-23 23:06:13*
%MOMM*%
%LPD*%
G01*
G04 APERTURE LIST*
G04 Aperture macros list*
%AMRoundRect*
0 Rectangle with rounded corners*
0 $1 Rounding radius*
0 $2 $3 $4 $5 $6 $7 $8 $9 X,Y pos of 4 corners*
0 Add a 4 corners polygon primitive as box body*
4,1,4,$2,$3,$4,$5,$6,$7,$8,$9,$2,$3,0*
0 Add four circle primitives for the rounded corners*
1,1,$1+$1,$2,$3*
1,1,$1+$1,$4,$5*
1,1,$1+$1,$6,$7*
1,1,$1+$1,$8,$9*
0 Add four rect primitives between the rounded corners*
20,1,$1+$1,$2,$3,$4,$5,0*
20,1,$1+$1,$4,$5,$6,$7,0*
20,1,$1+$1,$6,$7,$8,$9,0*
20,1,$1+$1,$8,$9,$2,$3,0*%
G04 Aperture macros list end*
%ADD10C,0.150000*%
%ADD11C,0.120000*%
%ADD12RoundRect,0.040000X0.900000X0.900000X-0.900000X0.900000X-0.900000X-0.900000X0.900000X-0.900000X0*%
%ADD13C,1.880000*%
%ADD14RoundRect,0.040000X1.102270X-0.636396X0.636396X1.102270X-1.102270X0.636396X-0.636396X-1.102270X0*%
%ADD15RoundRect,0.040000X-0.636396X1.102270X-1.102270X-0.636396X0.636396X-1.102270X1.102270X0.636396X0*%
%ADD16RoundRect,0.040000X0.850000X-0.850000X0.850000X0.850000X-0.850000X0.850000X-0.850000X-0.850000X0*%
%ADD17O,1.780000X1.780000*%
G04 APERTURE END LIST*
D10*
X176136151Y-69491408D02*
X176136151Y-68691408D01*
X176136151Y-68691408D02*
X175869485Y-69262836D01*
X175869485Y-69262836D02*
X175602818Y-68691408D01*
X175602818Y-68691408D02*
X175602818Y-69491408D01*
X174840913Y-69491408D02*
X175221865Y-69491408D01*
X175221865Y-69491408D02*
X175221865Y-68691408D01*
X174421865Y-68691408D02*
X174269484Y-68691408D01*
X174269484Y-68691408D02*
X174193294Y-68729503D01*
X174193294Y-68729503D02*
X174117103Y-68805693D01*
X174117103Y-68805693D02*
X174079008Y-68958074D01*
X174079008Y-68958074D02*
X174079008Y-69224741D01*
X174079008Y-69224741D02*
X174117103Y-69377122D01*
X174117103Y-69377122D02*
X174193294Y-69453313D01*
X174193294Y-69453313D02*
X174269484Y-69491408D01*
X174269484Y-69491408D02*
X174421865Y-69491408D01*
X174421865Y-69491408D02*
X174498056Y-69453313D01*
X174498056Y-69453313D02*
X174574246Y-69377122D01*
X174574246Y-69377122D02*
X174612342Y-69224741D01*
X174612342Y-69224741D02*
X174612342Y-68958074D01*
X174612342Y-68958074D02*
X174574246Y-68805693D01*
X174574246Y-68805693D02*
X174498056Y-68729503D01*
X174498056Y-68729503D02*
X174421865Y-68691408D01*
X182916954Y-69491408D02*
X183297906Y-69491408D01*
X183297906Y-69491408D02*
X183297906Y-68691408D01*
X182497906Y-68691408D02*
X182345525Y-68691408D01*
X182345525Y-68691408D02*
X182269335Y-68729503D01*
X182269335Y-68729503D02*
X182193144Y-68805693D01*
X182193144Y-68805693D02*
X182155049Y-68958074D01*
X182155049Y-68958074D02*
X182155049Y-69224741D01*
X182155049Y-69224741D02*
X182193144Y-69377122D01*
X182193144Y-69377122D02*
X182269335Y-69453313D01*
X182269335Y-69453313D02*
X182345525Y-69491408D01*
X182345525Y-69491408D02*
X182497906Y-69491408D01*
X182497906Y-69491408D02*
X182574097Y-69453313D01*
X182574097Y-69453313D02*
X182650287Y-69377122D01*
X182650287Y-69377122D02*
X182688383Y-69224741D01*
X182688383Y-69224741D02*
X182688383Y-68958074D01*
X182688383Y-68958074D02*
X182650287Y-68805693D01*
X182650287Y-68805693D02*
X182574097Y-68729503D01*
X182574097Y-68729503D02*
X182497906Y-68691408D01*
X198276976Y-69511639D02*
X198543643Y-69130686D01*
X198734119Y-69511639D02*
X198734119Y-68711639D01*
X198734119Y-68711639D02*
X198429357Y-68711639D01*
X198429357Y-68711639D02*
X198353167Y-68749734D01*
X198353167Y-68749734D02*
X198315072Y-68787829D01*
X198315072Y-68787829D02*
X198276976Y-68864020D01*
X198276976Y-68864020D02*
X198276976Y-68978305D01*
X198276976Y-68978305D02*
X198315072Y-69054496D01*
X198315072Y-69054496D02*
X198353167Y-69092591D01*
X198353167Y-69092591D02*
X198429357Y-69130686D01*
X198429357Y-69130686D02*
X198734119Y-69130686D01*
X197781738Y-68711639D02*
X197629357Y-68711639D01*
X197629357Y-68711639D02*
X197553167Y-68749734D01*
X197553167Y-68749734D02*
X197476976Y-68825924D01*
X197476976Y-68825924D02*
X197438881Y-68978305D01*
X197438881Y-68978305D02*
X197438881Y-69244972D01*
X197438881Y-69244972D02*
X197476976Y-69397353D01*
X197476976Y-69397353D02*
X197553167Y-69473544D01*
X197553167Y-69473544D02*
X197629357Y-69511639D01*
X197629357Y-69511639D02*
X197781738Y-69511639D01*
X197781738Y-69511639D02*
X197857929Y-69473544D01*
X197857929Y-69473544D02*
X197934119Y-69397353D01*
X197934119Y-69397353D02*
X197972215Y-69244972D01*
X197972215Y-69244972D02*
X197972215Y-68978305D01*
X197972215Y-68978305D02*
X197934119Y-68825924D01*
X197934119Y-68825924D02*
X197857929Y-68749734D01*
X197857929Y-68749734D02*
X197781738Y-68711639D01*
X201748530Y-69511639D02*
X201748530Y-68711639D01*
X201748530Y-68711639D02*
X201481864Y-69283067D01*
X201481864Y-69283067D02*
X201215197Y-68711639D01*
X201215197Y-68711639D02*
X201215197Y-69511639D01*
X200377101Y-69511639D02*
X200643768Y-69130686D01*
X200834244Y-69511639D02*
X200834244Y-68711639D01*
X200834244Y-68711639D02*
X200529482Y-68711639D01*
X200529482Y-68711639D02*
X200453292Y-68749734D01*
X200453292Y-68749734D02*
X200415197Y-68787829D01*
X200415197Y-68787829D02*
X200377101Y-68864020D01*
X200377101Y-68864020D02*
X200377101Y-68978305D01*
X200377101Y-68978305D02*
X200415197Y-69054496D01*
X200415197Y-69054496D02*
X200453292Y-69092591D01*
X200453292Y-69092591D02*
X200529482Y-69130686D01*
X200529482Y-69130686D02*
X200834244Y-69130686D01*
X199881863Y-68711639D02*
X199729482Y-68711639D01*
X199729482Y-68711639D02*
X199653292Y-68749734D01*
X199653292Y-68749734D02*
X199577101Y-68825924D01*
X199577101Y-68825924D02*
X199539006Y-68978305D01*
X199539006Y-68978305D02*
X199539006Y-69244972D01*
X199539006Y-69244972D02*
X199577101Y-69397353D01*
X199577101Y-69397353D02*
X199653292Y-69473544D01*
X199653292Y-69473544D02*
X199729482Y-69511639D01*
X199729482Y-69511639D02*
X199881863Y-69511639D01*
X199881863Y-69511639D02*
X199958054Y-69473544D01*
X199958054Y-69473544D02*
X200034244Y-69397353D01*
X200034244Y-69397353D02*
X200072340Y-69244972D01*
X200072340Y-69244972D02*
X200072340Y-68978305D01*
X200072340Y-68978305D02*
X200034244Y-68825924D01*
X200034244Y-68825924D02*
X199958054Y-68749734D01*
X199958054Y-68749734D02*
X199881863Y-68711639D01*
X195502970Y-68749734D02*
X195579160Y-68711639D01*
X195579160Y-68711639D02*
X195693446Y-68711639D01*
X195693446Y-68711639D02*
X195807732Y-68749734D01*
X195807732Y-68749734D02*
X195883922Y-68825924D01*
X195883922Y-68825924D02*
X195922017Y-68902115D01*
X195922017Y-68902115D02*
X195960113Y-69054496D01*
X195960113Y-69054496D02*
X195960113Y-69168782D01*
X195960113Y-69168782D02*
X195922017Y-69321163D01*
X195922017Y-69321163D02*
X195883922Y-69397353D01*
X195883922Y-69397353D02*
X195807732Y-69473544D01*
X195807732Y-69473544D02*
X195693446Y-69511639D01*
X195693446Y-69511639D02*
X195617255Y-69511639D01*
X195617255Y-69511639D02*
X195502970Y-69473544D01*
X195502970Y-69473544D02*
X195464874Y-69435448D01*
X195464874Y-69435448D02*
X195464874Y-69168782D01*
X195464874Y-69168782D02*
X195617255Y-69168782D01*
X180167913Y-68729503D02*
X180244103Y-68691408D01*
X180244103Y-68691408D02*
X180358389Y-68691408D01*
X180358389Y-68691408D02*
X180472675Y-68729503D01*
X180472675Y-68729503D02*
X180548865Y-68805693D01*
X180548865Y-68805693D02*
X180586960Y-68881884D01*
X180586960Y-68881884D02*
X180625056Y-69034265D01*
X180625056Y-69034265D02*
X180625056Y-69148551D01*
X180625056Y-69148551D02*
X180586960Y-69300932D01*
X180586960Y-69300932D02*
X180548865Y-69377122D01*
X180548865Y-69377122D02*
X180472675Y-69453313D01*
X180472675Y-69453313D02*
X180358389Y-69491408D01*
X180358389Y-69491408D02*
X180282198Y-69491408D01*
X180282198Y-69491408D02*
X180167913Y-69453313D01*
X180167913Y-69453313D02*
X180129817Y-69415217D01*
X180129817Y-69415217D02*
X180129817Y-69148551D01*
X180129817Y-69148551D02*
X180282198Y-69148551D01*
X203089575Y-68749734D02*
X203165765Y-68711639D01*
X203165765Y-68711639D02*
X203280051Y-68711639D01*
X203280051Y-68711639D02*
X203394337Y-68749734D01*
X203394337Y-68749734D02*
X203470527Y-68825924D01*
X203470527Y-68825924D02*
X203508622Y-68902115D01*
X203508622Y-68902115D02*
X203546718Y-69054496D01*
X203546718Y-69054496D02*
X203546718Y-69168782D01*
X203546718Y-69168782D02*
X203508622Y-69321163D01*
X203508622Y-69321163D02*
X203470527Y-69397353D01*
X203470527Y-69397353D02*
X203394337Y-69473544D01*
X203394337Y-69473544D02*
X203280051Y-69511639D01*
X203280051Y-69511639D02*
X203203860Y-69511639D01*
X203203860Y-69511639D02*
X203089575Y-69473544D01*
X203089575Y-69473544D02*
X203051479Y-69435448D01*
X203051479Y-69435448D02*
X203051479Y-69168782D01*
X203051479Y-69168782D02*
X203203860Y-69168782D01*
X172500384Y-68749734D02*
X172576574Y-68711639D01*
X172576574Y-68711639D02*
X172690860Y-68711639D01*
X172690860Y-68711639D02*
X172805146Y-68749734D01*
X172805146Y-68749734D02*
X172881336Y-68825924D01*
X172881336Y-68825924D02*
X172919431Y-68902115D01*
X172919431Y-68902115D02*
X172957527Y-69054496D01*
X172957527Y-69054496D02*
X172957527Y-69168782D01*
X172957527Y-69168782D02*
X172919431Y-69321163D01*
X172919431Y-69321163D02*
X172881336Y-69397353D01*
X172881336Y-69397353D02*
X172805146Y-69473544D01*
X172805146Y-69473544D02*
X172690860Y-69511639D01*
X172690860Y-69511639D02*
X172614669Y-69511639D01*
X172614669Y-69511639D02*
X172500384Y-69473544D01*
X172500384Y-69473544D02*
X172462288Y-69435448D01*
X172462288Y-69435448D02*
X172462288Y-69168782D01*
X172462288Y-69168782D02*
X172614669Y-69168782D01*
X187835441Y-68729503D02*
X187911631Y-68691408D01*
X187911631Y-68691408D02*
X188025917Y-68691408D01*
X188025917Y-68691408D02*
X188140203Y-68729503D01*
X188140203Y-68729503D02*
X188216393Y-68805693D01*
X188216393Y-68805693D02*
X188254488Y-68881884D01*
X188254488Y-68881884D02*
X188292584Y-69034265D01*
X188292584Y-69034265D02*
X188292584Y-69148551D01*
X188292584Y-69148551D02*
X188254488Y-69300932D01*
X188254488Y-69300932D02*
X188216393Y-69377122D01*
X188216393Y-69377122D02*
X188140203Y-69453313D01*
X188140203Y-69453313D02*
X188025917Y-69491408D01*
X188025917Y-69491408D02*
X187949726Y-69491408D01*
X187949726Y-69491408D02*
X187835441Y-69453313D01*
X187835441Y-69453313D02*
X187797345Y-69415217D01*
X187797345Y-69415217D02*
X187797345Y-69148551D01*
X187797345Y-69148551D02*
X187949726Y-69148551D01*
X205322406Y-61198765D02*
X205322406Y-61694003D01*
X205322406Y-61694003D02*
X205703358Y-61427337D01*
X205703358Y-61427337D02*
X205703358Y-61541622D01*
X205703358Y-61541622D02*
X205750977Y-61617813D01*
X205750977Y-61617813D02*
X205798596Y-61655908D01*
X205798596Y-61655908D02*
X205893834Y-61694003D01*
X205893834Y-61694003D02*
X206131929Y-61694003D01*
X206131929Y-61694003D02*
X206227167Y-61655908D01*
X206227167Y-61655908D02*
X206274787Y-61617813D01*
X206274787Y-61617813D02*
X206322406Y-61541622D01*
X206322406Y-61541622D02*
X206322406Y-61313051D01*
X206322406Y-61313051D02*
X206274787Y-61236860D01*
X206274787Y-61236860D02*
X206227167Y-61198765D01*
X205322406Y-61922575D02*
X206322406Y-62189242D01*
X206322406Y-62189242D02*
X205322406Y-62455908D01*
X205322406Y-62646384D02*
X205322406Y-63141622D01*
X205322406Y-63141622D02*
X205703358Y-62874956D01*
X205703358Y-62874956D02*
X205703358Y-62989241D01*
X205703358Y-62989241D02*
X205750977Y-63065432D01*
X205750977Y-63065432D02*
X205798596Y-63103527D01*
X205798596Y-63103527D02*
X205893834Y-63141622D01*
X205893834Y-63141622D02*
X206131929Y-63141622D01*
X206131929Y-63141622D02*
X206227167Y-63103527D01*
X206227167Y-63103527D02*
X206274787Y-63065432D01*
X206274787Y-63065432D02*
X206322406Y-62989241D01*
X206322406Y-62989241D02*
X206322406Y-62760670D01*
X206322406Y-62760670D02*
X206274787Y-62684479D01*
X206274787Y-62684479D02*
X206227167Y-62646384D01*
X183360281Y-61939142D02*
X183360281Y-61558190D01*
X183360281Y-61558190D02*
X182360281Y-61558190D01*
X183360281Y-62205809D02*
X182360281Y-62205809D01*
X183360281Y-62586761D02*
X182360281Y-62586761D01*
X182360281Y-62586761D02*
X183360281Y-63043904D01*
X183360281Y-63043904D02*
X182360281Y-63043904D01*
X180790951Y-60607335D02*
X179790951Y-60607335D01*
X179790951Y-60607335D02*
X180505236Y-60874001D01*
X180505236Y-60874001D02*
X179790951Y-61140668D01*
X179790951Y-61140668D02*
X180790951Y-61140668D01*
X180790951Y-61902573D02*
X180790951Y-61521621D01*
X180790951Y-61521621D02*
X179790951Y-61521621D01*
X180790951Y-62169240D02*
X179790951Y-62169240D01*
X180790951Y-62550192D02*
X179790951Y-62550192D01*
X179790951Y-62550192D02*
X180790951Y-63007335D01*
X180790951Y-63007335D02*
X179790951Y-63007335D01*
X198594184Y-60566873D02*
X197594184Y-60566873D01*
X197594184Y-60566873D02*
X198308469Y-60833539D01*
X198308469Y-60833539D02*
X197594184Y-61100206D01*
X197594184Y-61100206D02*
X198594184Y-61100206D01*
X198594184Y-61938302D02*
X198117993Y-61671635D01*
X198594184Y-61481159D02*
X197594184Y-61481159D01*
X197594184Y-61481159D02*
X197594184Y-61785921D01*
X197594184Y-61785921D02*
X197641803Y-61862111D01*
X197641803Y-61862111D02*
X197689422Y-61900206D01*
X197689422Y-61900206D02*
X197784660Y-61938302D01*
X197784660Y-61938302D02*
X197927517Y-61938302D01*
X197927517Y-61938302D02*
X198022755Y-61900206D01*
X198022755Y-61900206D02*
X198070374Y-61862111D01*
X198070374Y-61862111D02*
X198117993Y-61785921D01*
X198117993Y-61785921D02*
X198117993Y-61481159D01*
X198594184Y-62281159D02*
X197594184Y-62281159D01*
X198594184Y-62662111D02*
X197594184Y-62662111D01*
X197594184Y-62662111D02*
X198594184Y-63119254D01*
X198594184Y-63119254D02*
X197594184Y-63119254D01*
X195984392Y-61934409D02*
X195508201Y-61667742D01*
X195984392Y-61477266D02*
X194984392Y-61477266D01*
X194984392Y-61477266D02*
X194984392Y-61782028D01*
X194984392Y-61782028D02*
X195032011Y-61858218D01*
X195032011Y-61858218D02*
X195079630Y-61896313D01*
X195079630Y-61896313D02*
X195174868Y-61934409D01*
X195174868Y-61934409D02*
X195317725Y-61934409D01*
X195317725Y-61934409D02*
X195412963Y-61896313D01*
X195412963Y-61896313D02*
X195460582Y-61858218D01*
X195460582Y-61858218D02*
X195508201Y-61782028D01*
X195508201Y-61782028D02*
X195508201Y-61477266D01*
X195984392Y-62277266D02*
X194984392Y-62277266D01*
X195984392Y-62658218D02*
X194984392Y-62658218D01*
X194984392Y-62658218D02*
X195984392Y-63115361D01*
X195984392Y-63115361D02*
X194984392Y-63115361D01*
X175168942Y-61238158D02*
X175216561Y-61352444D01*
X175216561Y-61352444D02*
X175264180Y-61390539D01*
X175264180Y-61390539D02*
X175359418Y-61428635D01*
X175359418Y-61428635D02*
X175502275Y-61428635D01*
X175502275Y-61428635D02*
X175597513Y-61390539D01*
X175597513Y-61390539D02*
X175645133Y-61352444D01*
X175645133Y-61352444D02*
X175692752Y-61276254D01*
X175692752Y-61276254D02*
X175692752Y-60971492D01*
X175692752Y-60971492D02*
X174692752Y-60971492D01*
X174692752Y-60971492D02*
X174692752Y-61238158D01*
X174692752Y-61238158D02*
X174740371Y-61314349D01*
X174740371Y-61314349D02*
X174787990Y-61352444D01*
X174787990Y-61352444D02*
X174883228Y-61390539D01*
X174883228Y-61390539D02*
X174978466Y-61390539D01*
X174978466Y-61390539D02*
X175073704Y-61352444D01*
X175073704Y-61352444D02*
X175121323Y-61314349D01*
X175121323Y-61314349D02*
X175168942Y-61238158D01*
X175168942Y-61238158D02*
X175168942Y-60971492D01*
X175692752Y-62114349D02*
X175168942Y-62114349D01*
X175168942Y-62114349D02*
X175073704Y-62076254D01*
X175073704Y-62076254D02*
X175026085Y-62000063D01*
X175026085Y-62000063D02*
X175026085Y-61847682D01*
X175026085Y-61847682D02*
X175073704Y-61771492D01*
X175645133Y-62114349D02*
X175692752Y-62038158D01*
X175692752Y-62038158D02*
X175692752Y-61847682D01*
X175692752Y-61847682D02*
X175645133Y-61771492D01*
X175645133Y-61771492D02*
X175549894Y-61733396D01*
X175549894Y-61733396D02*
X175454656Y-61733396D01*
X175454656Y-61733396D02*
X175359418Y-61771492D01*
X175359418Y-61771492D02*
X175311799Y-61847682D01*
X175311799Y-61847682D02*
X175311799Y-62038158D01*
X175311799Y-62038158D02*
X175264180Y-62114349D01*
X175026085Y-62381016D02*
X175026085Y-62685778D01*
X174692752Y-62495302D02*
X175549894Y-62495302D01*
X175549894Y-62495302D02*
X175645133Y-62533397D01*
X175645133Y-62533397D02*
X175692752Y-62609587D01*
X175692752Y-62609587D02*
X175692752Y-62685778D01*
X175026085Y-62838159D02*
X175026085Y-63142921D01*
X174692752Y-62952445D02*
X175549894Y-62952445D01*
X175549894Y-62952445D02*
X175645133Y-62990540D01*
X175645133Y-62990540D02*
X175692752Y-63066730D01*
X175692752Y-63066730D02*
X175692752Y-63142921D01*
X203006725Y-61258389D02*
X203054344Y-61372675D01*
X203054344Y-61372675D02*
X203101963Y-61410770D01*
X203101963Y-61410770D02*
X203197201Y-61448866D01*
X203197201Y-61448866D02*
X203340058Y-61448866D01*
X203340058Y-61448866D02*
X203435296Y-61410770D01*
X203435296Y-61410770D02*
X203482916Y-61372675D01*
X203482916Y-61372675D02*
X203530535Y-61296485D01*
X203530535Y-61296485D02*
X203530535Y-60991723D01*
X203530535Y-60991723D02*
X202530535Y-60991723D01*
X202530535Y-60991723D02*
X202530535Y-61258389D01*
X202530535Y-61258389D02*
X202578154Y-61334580D01*
X202578154Y-61334580D02*
X202625773Y-61372675D01*
X202625773Y-61372675D02*
X202721011Y-61410770D01*
X202721011Y-61410770D02*
X202816249Y-61410770D01*
X202816249Y-61410770D02*
X202911487Y-61372675D01*
X202911487Y-61372675D02*
X202959106Y-61334580D01*
X202959106Y-61334580D02*
X203006725Y-61258389D01*
X203006725Y-61258389D02*
X203006725Y-60991723D01*
X203530535Y-62134580D02*
X203006725Y-62134580D01*
X203006725Y-62134580D02*
X202911487Y-62096485D01*
X202911487Y-62096485D02*
X202863868Y-62020294D01*
X202863868Y-62020294D02*
X202863868Y-61867913D01*
X202863868Y-61867913D02*
X202911487Y-61791723D01*
X203482916Y-62134580D02*
X203530535Y-62058389D01*
X203530535Y-62058389D02*
X203530535Y-61867913D01*
X203530535Y-61867913D02*
X203482916Y-61791723D01*
X203482916Y-61791723D02*
X203387677Y-61753627D01*
X203387677Y-61753627D02*
X203292439Y-61753627D01*
X203292439Y-61753627D02*
X203197201Y-61791723D01*
X203197201Y-61791723D02*
X203149582Y-61867913D01*
X203149582Y-61867913D02*
X203149582Y-62058389D01*
X203149582Y-62058389D02*
X203101963Y-62134580D01*
X202863868Y-62401247D02*
X202863868Y-62706009D01*
X202530535Y-62515533D02*
X203387677Y-62515533D01*
X203387677Y-62515533D02*
X203482916Y-62553628D01*
X203482916Y-62553628D02*
X203530535Y-62629818D01*
X203530535Y-62629818D02*
X203530535Y-62706009D01*
X202863868Y-62858390D02*
X202863868Y-63163152D01*
X202530535Y-62972676D02*
X203387677Y-62972676D01*
X203387677Y-62972676D02*
X203482916Y-63010771D01*
X203482916Y-63010771D02*
X203530535Y-63086961D01*
X203530535Y-63086961D02*
X203530535Y-63163152D01*
X207515241Y-65609146D02*
X208229526Y-65609146D01*
X208229526Y-65609146D02*
X208372383Y-65561527D01*
X208372383Y-65561527D02*
X208467622Y-65466289D01*
X208467622Y-65466289D02*
X208515241Y-65323432D01*
X208515241Y-65323432D02*
X208515241Y-65228194D01*
X208515241Y-66609146D02*
X208515241Y-66037718D01*
X208515241Y-66323432D02*
X207515241Y-66323432D01*
X207515241Y-66323432D02*
X207658098Y-66228194D01*
X207658098Y-66228194D02*
X207753336Y-66132956D01*
X207753336Y-66132956D02*
X207800955Y-66037718D01*
D11*
%TO.C,J1*%
X171380422Y-63342480D02*
X171380422Y-68542480D01*
X171380422Y-63342480D02*
X207060422Y-63342480D01*
X171380422Y-68542480D02*
X204460422Y-68542480D01*
X204460422Y-65942480D02*
X204460422Y-68542480D01*
X207060422Y-63342480D02*
X207060422Y-65942480D01*
X207060422Y-65942480D02*
X204460422Y-65942480D01*
X207060422Y-67212480D02*
X207060422Y-68542480D01*
X207060422Y-68542480D02*
X205730422Y-68542480D01*
%TD*%
%LPC*%
D12*
%TO.C,CGQ2*%
X160825200Y-54559030D03*
D13*
X158285200Y-54559030D03*
%TD*%
D12*
%TO.C,U4*%
X226680404Y-54574658D03*
D13*
X224140404Y-54574658D03*
%TD*%
D14*
%TO.C,CGQ3*%
X193991153Y-43176498D03*
D13*
X193333753Y-40723046D03*
%TD*%
D12*
%TO.C,CGQ4*%
X220223258Y-54580179D03*
D13*
X217683258Y-54580179D03*
%TD*%
D14*
%TO.C,U3*%
X192309943Y-36940771D03*
D13*
X191652543Y-34487319D03*
%TD*%
D15*
%TO.C,U1*%
X186784954Y-34473617D03*
D13*
X186127554Y-36927069D03*
%TD*%
D15*
%TO.C,CGQ1*%
X185103013Y-40711603D03*
D13*
X184445613Y-43165055D03*
%TD*%
D12*
%TO.C,U2*%
X154311726Y-54563040D03*
D13*
X151771726Y-54563040D03*
%TD*%
D16*
%TO.C,J1*%
X205730422Y-67212480D03*
D17*
X205730422Y-64672480D03*
X203190422Y-67212480D03*
X203190422Y-64672480D03*
X200650422Y-67212480D03*
X200650422Y-64672480D03*
X198110422Y-67212480D03*
X198110422Y-64672480D03*
X195570422Y-67212480D03*
X195570422Y-64672480D03*
X193030422Y-67212480D03*
X193030422Y-64672480D03*
X190490422Y-67212480D03*
X190490422Y-64672480D03*
X187950422Y-67212480D03*
X187950422Y-64672480D03*
X185410422Y-67212480D03*
X185410422Y-64672480D03*
X182870422Y-67212480D03*
X182870422Y-64672480D03*
X180330422Y-67212480D03*
X180330422Y-64672480D03*
X177790422Y-67212480D03*
X177790422Y-64672480D03*
X175250422Y-67212480D03*
X175250422Y-64672480D03*
X172710422Y-67212480D03*
X172710422Y-64672480D03*
%TD*%
%LPD*%
M02*
